<svg width="32" height="33" viewBox="0 0 32 33" fill="none" xmlns="http://www.w3.org/2000/svg">
<g id="carbon:checkmark-outline">
<path id="Vector" d="M14 21.4911L9 16.4901L10.413 15.0771L14 18.6631L21.585 11.0771L23 12.4921L14 21.4911Z" fill="#06385F"/>
<path id="Vector_2" d="M16 2.07715C13.2311 2.07715 10.5243 2.89823 8.22202 4.43657C5.91973 5.97491 4.12532 8.16142 3.06569 10.7196C2.00607 13.2777 1.72882 16.0927 2.26901 18.8084C2.80921 21.5241 4.14258 24.0187 6.10051 25.9766C8.05845 27.9346 10.553 29.2679 13.2687 29.8081C15.9845 30.3483 18.7994 30.0711 21.3576 29.0115C23.9157 27.9518 26.1022 26.1574 27.6406 23.8551C29.1789 21.5528 30 18.8461 30 16.0771C30 12.3641 28.525 8.80316 25.8995 6.17765C23.274 3.55214 19.713 2.07715 16 2.07715ZM16 28.0771C13.6266 28.0771 11.3066 27.3734 9.33316 26.0548C7.35977 24.7362 5.8217 22.8621 4.91345 20.6693C4.0052 18.4766 3.76756 16.0638 4.23058 13.7361C4.69361 11.4083 5.83649 9.2701 7.51472 7.59187C9.19296 5.91364 11.3312 4.77075 13.6589 4.30772C15.9867 3.8447 18.3995 4.08234 20.5922 4.99059C22.7849 5.89885 24.6591 7.43692 25.9776 9.41031C27.2962 11.3837 28 13.7038 28 16.0771C28 19.2597 26.7357 22.312 24.4853 24.5624C22.2348 26.8129 19.1826 28.0771 16 28.0771Z" fill="#06385F"/>
</g>
</svg>
