<svg width="20" height="19" viewBox="0 0 20 19" fill="none" xmlns="http://www.w3.org/2000/svg">
<g id="Group">
<path id="Vector" d="M1.52998 0.985634C1.44667 0.991956 1.36503 1.02221 1.28972 1.07466C1.21441 1.12712 1.1469 1.20075 1.09106 1.29134C1.03521 1.38194 0.99212 1.48774 0.964245 1.60269C0.936369 1.71763 0.924255 1.83948 0.928594 1.96128C0.932933 2.08307 0.95364 2.20242 0.989533 2.31251C1.02543 2.4226 1.0758 2.52128 1.13778 2.60291C1.19976 2.68454 1.27214 2.74751 1.35077 2.78825C1.4294 2.82898 1.51275 2.84667 1.59605 2.8403H19.3568C19.4409 2.84204 19.5243 2.81934 19.6023 2.77352C19.6803 2.72769 19.7513 2.65966 19.8112 2.57338C19.871 2.4871 19.9186 2.38428 19.951 2.27091C19.9835 2.15753 20.0002 2.03586 20.0002 1.91297C20.0002 1.79007 19.9835 1.6684 19.951 1.55503C19.9186 1.44166 19.871 1.33884 19.8112 1.25256C19.7513 1.16627 19.6803 1.09824 19.6023 1.05242C19.5243 1.0066 19.4409 0.983896 19.3568 0.985634H1.59605C1.57405 0.983955 1.55199 0.983955 1.52998 0.985634ZM1.52998 9.02254C1.44667 9.02886 1.36503 9.05912 1.28972 9.11157C1.21441 9.16403 1.1469 9.23765 1.09106 9.32825C1.03521 9.41885 0.99212 9.52465 0.964245 9.63959C0.936369 9.75454 0.924255 9.87639 0.928594 9.99819C0.932933 10.12 0.95364 10.2393 0.989533 10.3494C1.02543 10.4595 1.0758 10.5582 1.13778 10.6398C1.19976 10.7214 1.27214 10.7844 1.35077 10.8252C1.4294 10.8659 1.51275 10.8836 1.59605 10.8772H15.9738C16.0579 10.879 16.1413 10.8562 16.2193 10.8104C16.2973 10.7646 16.3683 10.6966 16.4282 10.6103C16.488 10.524 16.5356 10.4212 16.568 10.3078C16.6005 10.1944 16.6172 10.0728 16.6172 9.94988C16.6172 9.82698 16.6005 9.70531 16.568 9.59194C16.5356 9.47857 16.488 9.37575 16.4282 9.28947C16.3683 9.20318 16.2973 9.13515 16.2193 9.08933C16.1413 9.04351 16.0579 9.0208 15.9738 9.02254H1.59605C1.57405 9.02086 1.55199 9.02086 1.52998 9.02254ZM18.0221 9.02254C17.9388 9.02886 17.8572 9.05912 17.7819 9.11157C17.7066 9.16403 17.639 9.23765 17.5832 9.32825C17.5274 9.41885 17.4843 9.52465 17.4564 9.63959C17.4285 9.75454 17.4164 9.87639 17.4207 9.99819C17.4251 10.12 17.4458 10.2393 17.4817 10.3494C17.5176 10.4595 17.5679 10.5582 17.6299 10.6398C17.6919 10.7214 17.7643 10.7844 17.8429 10.8252C17.9215 10.8659 18.0049 10.8836 18.0882 10.8772H19.3568C19.4409 10.879 19.5243 10.8562 19.6023 10.8104C19.6803 10.7646 19.7513 10.6966 19.8112 10.6103C19.871 10.524 19.9186 10.4212 19.951 10.3078C19.9835 10.1944 20.0002 10.0728 20.0002 9.94988C20.0002 9.82698 19.9835 9.70531 19.951 9.59194C19.9186 9.47857 19.871 9.37575 19.8112 9.28947C19.7513 9.20318 19.6803 9.13515 19.6023 9.08933C19.5243 9.04351 19.4409 9.0208 19.3568 9.02254H18.0882C18.0662 9.02086 18.0441 9.02086 18.0221 9.02254ZM1.52998 17.0595C1.44667 17.0658 1.36503 17.096 1.28972 17.1485C1.21441 17.2009 1.1469 17.2746 1.09106 17.3652C1.03521 17.4558 0.99212 17.5616 0.964245 17.6765C0.936369 17.7914 0.924255 17.9133 0.928594 18.0351C0.932933 18.1569 0.95364 18.2762 0.989533 18.3863C1.02543 18.4964 1.0758 18.5951 1.13778 18.6767C1.19976 18.7584 1.27214 18.8213 1.35077 18.8621C1.4294 18.9028 1.51275 18.9205 1.59605 18.9141H19.3568C19.4409 18.9159 19.5243 18.8932 19.6023 18.8473C19.6803 18.8015 19.7513 18.7335 19.8112 18.6472C19.871 18.5609 19.9186 18.4581 19.951 18.3447C19.9835 18.2314 20.0002 18.1097 20.0002 17.9868C20.0002 17.8639 19.9835 17.7422 19.951 17.6288C19.9186 17.5155 19.871 17.4127 19.8112 17.3264C19.7513 17.2401 19.6803 17.1721 19.6023 17.1262C19.5243 17.0804 19.4409 17.0577 19.3568 17.0595H1.59605C1.57405 17.0578 1.55199 17.0578 1.52998 17.0595Z" fill="white"/>
</g>
</svg>
