<svg width="739" height="690" viewBox="0 0 739 690" fill="none" xmlns="http://www.w3.org/2000/svg">
<mask id="mask0_2_2" style="mask-type:alpha" maskUnits="userSpaceOnUse" x="0" y="0" width="738" height="690">
<rect x="0.5" y="0.5" width="737" height="689" fill="#D9D9D9" stroke="black"/>
</mask>
<g mask="url(#mask0_2_2)">
<mask id="mask1_2_2" style="mask-type:alpha" maskUnits="userSpaceOnUse" x="0" y="0" width="1321" height="1425">
<g style="mix-blend-mode:multiply" opacity="0.75">
<path d="M564.015 741.651C563.683 741.221 563.572 740.656 563.695 740.116L586.209 643.956C586.356 643.305 586.848 642.789 587.486 642.593L682.061 614.159C682.7 613.962 683.388 614.134 683.879 614.589L755.941 682.314C756.42 682.757 756.628 683.444 756.481 684.095L733.967 780.255C733.82 780.906 733.329 781.422 732.69 781.618L638.115 810.052C637.476 810.249 636.788 810.077 636.309 809.622L564.248 741.897C564.174 741.823 564.101 741.737 564.027 741.651H564.015ZM589.599 645.848L567.576 739.907L638.066 806.159L730.577 778.351L752.6 684.292L682.111 618.04L589.587 645.848H589.599Z" fill="black"/>
<path d="M555.722 734.579C555.366 734.1 555.255 733.461 555.439 732.884L588.221 633.064C588.43 632.426 588.958 631.959 589.609 631.824L692.475 610.464C693.126 610.329 693.802 610.55 694.244 611.054L764.328 689.515C764.77 690.018 764.917 690.706 764.708 691.332L731.926 791.152C731.718 791.791 731.19 792.258 730.539 792.393L627.673 813.752C627.022 813.887 626.346 813.666 625.904 813.162L555.82 734.702C555.82 734.702 555.747 734.616 555.722 734.579ZM591.427 635.251L559.321 733.031L627.98 809.883L728.745 788.966L760.852 691.197L692.193 614.346L591.427 635.275V635.251Z" fill="black"/>
<path d="M614.596 815.96L547.595 726.31C547.202 725.782 547.116 725.07 547.374 724.468L591.37 621.725C591.627 621.111 592.205 620.681 592.868 620.607L703.865 607.502C704.528 607.428 705.179 607.698 705.572 608.239L772.573 697.889C772.966 698.417 773.052 699.129 772.794 699.731L728.798 802.474C728.54 803.088 727.963 803.518 727.3 803.592L616.303 816.697C615.64 816.771 614.989 816.501 614.596 815.96ZM551.218 724.947L616.929 812.865L725.789 800.018L768.937 699.252L703.226 611.334L594.366 624.182L551.218 724.947Z" fill="black"/>
<path d="M602.437 818.027C602.437 818.027 602.376 817.941 602.351 817.892L539.649 716.672C539.305 716.107 539.281 715.394 539.588 714.805L595.743 609.998C596.063 609.409 596.664 609.04 597.328 609.016L716.173 605.417C716.836 605.392 717.463 605.749 717.807 606.301L780.509 707.521C780.853 708.086 780.877 708.799 780.57 709.388L724.415 814.195C724.095 814.784 723.493 815.153 722.83 815.177L603.985 818.776C603.371 818.801 602.793 818.518 602.437 818.027ZM543.383 715.628L604.955 815.018L721.651 811.492L776.787 708.578L715.227 609.188L598.531 612.713L543.395 715.628H543.383Z" fill="black"/>
<path d="M589.365 819.082C589.303 818.996 589.242 818.91 589.193 818.799L532.128 705.714C531.833 705.125 531.87 704.412 532.239 703.86L601.463 597.985C601.831 597.432 602.458 597.1 603.133 597.149L729.422 604.359C730.085 604.396 730.675 604.777 730.982 605.379L788.046 718.463C788.341 719.053 788.304 719.765 787.935 720.318L718.711 826.193C718.343 826.746 717.716 827.077 717.041 827.028L590.752 819.818C590.2 819.782 589.696 819.511 589.365 819.069V819.082ZM535.936 705.002L592.03 816.171L716.169 823.258L784.214 719.188L728.12 608.032L603.981 600.945L535.936 705.014V705.002Z" fill="black"/>
<path d="M575.41 818.995C575.312 818.872 575.238 818.725 575.177 818.565L525.187 693.431C524.942 692.817 525.04 692.117 525.457 691.589L608.634 585.812C609.052 585.284 609.703 585.026 610.366 585.124L743.533 604.481C744.196 604.58 744.749 605.01 744.995 605.636L794.984 730.77C795.23 731.384 795.132 732.084 794.714 732.612L711.537 838.389C711.119 838.917 710.468 839.175 709.805 839.077L576.639 819.72C576.147 819.646 575.705 819.376 575.41 818.995ZM529.044 693.051L578.235 816.182L709.277 835.22L791.128 731.126L741.936 607.994L610.894 588.956L529.044 693.051Z" fill="black"/>
<path d="M560.624 817.607C560.501 817.435 560.403 817.239 560.329 817.03L518.949 679.785C518.753 679.147 518.925 678.459 519.379 677.968L617.344 573.579C617.799 573.087 618.487 572.891 619.125 573.038L758.458 605.894C759.109 606.054 759.625 606.533 759.809 607.171L801.189 744.416C801.385 745.055 801.213 745.742 800.759 746.234L702.794 850.623C702.339 851.114 701.651 851.31 701.013 851.163L561.68 818.307C561.25 818.209 560.87 817.951 560.612 817.607H560.624ZM522.831 679.736L563.584 814.93L700.829 847.294L797.32 744.477L756.566 609.284L619.322 576.92L522.831 679.736Z" fill="black"/>
<path d="M545.098 814.771C544.938 814.562 544.828 814.304 544.766 814.034L513.643 664.74C513.507 664.089 513.729 663.414 514.22 662.972L627.722 561.42C628.214 560.978 628.914 560.83 629.552 561.039L774.166 608.781C774.793 608.99 775.272 609.518 775.407 610.169L806.531 759.463C806.666 760.114 806.445 760.789 805.953 761.231L692.451 862.783C691.96 863.225 691.26 863.373 690.621 863.164L546.007 815.422C545.638 815.299 545.319 815.066 545.098 814.771ZM517.512 665.035L548.193 812.216L690.768 859.282L802.662 759.168L771.98 611.987L629.405 564.92L517.512 665.035Z" fill="black"/>
<path d="M528.899 810.313C528.702 810.055 528.579 809.748 528.543 809.416L509.406 648.319C509.333 647.656 509.603 647.005 510.143 646.612L639.834 549.519C640.362 549.114 641.075 549.04 641.689 549.298L790.528 613.302C791.142 613.56 791.56 614.137 791.646 614.788L810.782 775.885C810.855 776.548 810.585 777.199 810.045 777.592L680.342 874.685C679.801 875.091 679.101 875.164 678.487 874.907L529.648 810.903C529.341 810.767 529.083 810.571 528.887 810.313H528.899ZM513.226 648.946L532.117 807.906L678.978 871.062L806.95 775.259L788.059 616.299L641.198 553.142L513.226 648.946Z" fill="black"/>
<path d="M512.134 804.096C511.913 803.789 511.778 803.433 511.766 803.04L506.423 630.532C506.399 629.869 506.742 629.243 507.307 628.886L653.764 538.008C654.329 537.652 655.041 537.64 655.631 537.947L807.43 619.576C808.02 619.896 808.388 620.497 808.413 621.161L813.755 793.668C813.78 794.331 813.436 794.958 812.871 795.314L666.415 886.192C665.85 886.548 665.137 886.561 664.548 886.253L512.749 804.624C512.503 804.489 512.294 804.317 512.134 804.096ZM510.169 631.49L515.451 801.848L665.358 882.458L809.985 792.722L804.703 622.364L654.796 541.754L510.169 631.49Z" fill="black"/>
<path d="M494.949 795.942C494.692 795.598 494.556 795.168 494.581 794.726L504.911 611.41C504.947 610.746 505.34 610.157 505.93 609.85L669.57 527.115C670.159 526.82 670.871 526.857 671.436 527.226L824.746 627.807C825.299 628.163 825.618 628.802 825.582 629.465L815.252 812.781C815.215 813.444 814.822 814.034 814.233 814.341L650.593 897.063C650.004 897.358 649.291 897.321 648.726 896.953L495.416 796.372C495.232 796.249 495.072 796.101 494.949 795.929V795.942ZM508.571 612.687L498.364 793.854L649.868 893.256L811.58 811.504L821.786 630.337L670.282 530.935L508.571 612.699V612.687Z" fill="black"/>
<path d="M477.51 785.723C477.215 785.33 477.093 784.838 477.154 784.347L505.097 591.033C505.195 590.37 505.625 589.817 506.251 589.571L687.344 517.068C687.958 516.822 688.671 516.92 689.187 517.338L842.337 638.149C842.853 638.566 843.123 639.217 843.025 639.88L815.082 833.194C814.984 833.858 814.554 834.41 813.927 834.656L632.835 907.159C632.22 907.405 631.508 907.307 630.992 906.889L477.842 786.079C477.719 785.98 477.596 785.858 477.51 785.735V785.723ZM508.634 592.617L480.998 783.807L632.454 903.29L811.545 831.585L839.18 640.396L687.725 520.912L508.634 592.617Z" fill="black"/>
<path d="M459.957 773.268C459.626 772.826 459.503 772.273 459.638 771.721L507.171 569.44C507.318 568.79 507.81 568.274 508.448 568.077L707.081 508.028C707.719 507.832 708.407 508.004 708.899 508.458L859.998 650.689C860.477 651.144 860.686 651.819 860.538 652.47L813.005 854.75C812.858 855.401 812.366 855.917 811.728 856.114L613.095 916.163C612.457 916.359 611.769 916.187 611.277 915.733L460.178 773.502C460.105 773.428 460.031 773.342 459.957 773.256V773.268ZM510.549 571.344L463.507 771.536L613.046 912.294L809.615 852.871L856.657 652.679L707.118 511.922L510.536 571.344H510.549Z" fill="black"/>
<path d="M442.517 758.431C442.161 757.952 442.05 757.313 442.235 756.736L511.36 546.767C511.569 546.14 512.097 545.661 512.748 545.526L728.822 500.302C729.473 500.167 730.148 500.388 730.591 500.892L877.538 665.637C877.968 666.128 878.128 666.828 877.919 667.454L808.793 877.424C808.584 878.05 808.056 878.529 807.405 878.664L591.332 923.888C590.681 924.023 590.005 923.802 589.563 923.299L442.615 758.554C442.615 758.554 442.542 758.468 442.517 758.431ZM514.579 548.953L446.116 756.871L591.627 920.007L805.6 875.225L874.062 667.307L728.552 504.171L514.579 548.953Z" fill="black"/>
<path d="M565.856 929.328L425.394 741.111C425.001 740.583 424.915 739.871 425.172 739.257L517.905 523.146C518.163 522.532 518.74 522.115 519.391 522.029L752.574 494.135C753.238 494.062 753.889 494.332 754.282 494.872L894.732 683.089C895.125 683.617 895.211 684.329 894.953 684.944L802.22 901.054C801.962 901.668 801.385 902.086 800.734 902.172L567.551 930.065C566.888 930.139 566.237 929.869 565.844 929.328H565.856ZM429.029 739.736L568.202 926.233L799.248 898.597L891.133 684.465L751.96 497.967L520.914 525.603L429.029 739.736Z" fill="black"/>
<path d="M540.276 933.64C540.276 933.64 540.214 933.554 540.19 933.505L408.792 721.006C408.448 720.441 408.423 719.728 408.73 719.139L527.047 498.705C527.367 498.116 527.968 497.747 528.632 497.723L778.347 489.788C779.01 489.763 779.649 490.132 779.993 490.672L911.391 703.159C911.747 703.724 911.759 704.437 911.452 705.026L793.135 925.46C792.816 926.05 792.214 926.418 791.551 926.443L541.835 934.377C541.221 934.402 540.644 934.119 540.288 933.628L540.276 933.64ZM412.513 719.962L542.781 930.631L790.347 922.758L907.645 704.228L777.377 493.571L529.811 501.432L412.513 719.962Z" fill="black"/>
<path d="M512.77 935.85C512.709 935.765 512.647 935.666 512.598 935.568L393.04 698.184C392.745 697.595 392.782 696.882 393.151 696.33L538.968 473.697C539.337 473.145 539.963 472.825 540.627 472.862L806.002 487.601C806.665 487.638 807.255 488.019 807.562 488.621L927.12 726.004C927.414 726.594 927.377 727.306 927.009 727.859L781.191 950.491C780.823 951.044 780.196 951.363 779.533 951.326L514.158 936.587C513.605 936.551 513.102 936.28 512.77 935.838V935.85ZM396.86 697.472L515.448 932.927L778.673 947.556L923.312 726.717L804.725 491.261L541.499 476.633L396.848 697.472H396.86Z" fill="black"/>
<path d="M483.404 935.642C483.305 935.507 483.232 935.372 483.17 935.212L378.474 672.551C378.229 671.937 378.327 671.237 378.745 670.709L553.93 448.285C554.335 447.757 554.998 447.499 555.662 447.597L835.53 487.822C836.194 487.921 836.746 488.363 836.992 488.977L941.688 751.638C941.933 752.252 941.835 752.952 941.418 753.48L766.232 975.904C765.827 976.432 765.164 976.69 764.501 976.592L484.632 936.366C484.141 936.293 483.698 936.023 483.404 935.642ZM382.331 672.182L486.229 932.841L763.972 972.759L937.831 752.019L833.934 491.36L556.19 451.442L382.331 672.182Z" fill="black"/>
<path d="M452.305 932.694C452.182 932.522 452.071 932.326 452.01 932.117L365.419 644.056C365.234 643.417 365.394 642.729 365.848 642.25L572.133 422.774C572.587 422.295 573.263 422.087 573.914 422.234L866.79 490.819C867.441 490.967 867.956 491.458 868.153 492.097L954.744 780.158C954.929 780.797 954.769 781.484 954.314 781.963L748.03 1001.44C747.576 1001.92 746.9 1002.13 746.249 1001.98L453.373 933.394C452.943 933.296 452.563 933.038 452.305 932.694ZM369.3 644.007L455.277 930.017L746.053 998.111L950.863 780.195L864.886 494.185L574.11 426.091L369.3 644.007Z" fill="black"/>
<path d="M419.634 926.689C419.474 926.48 419.364 926.222 419.302 925.952L354.242 612.638C354.107 611.987 354.328 611.311 354.819 610.869L593.775 397.399C594.266 396.957 594.966 396.81 595.593 397.019L899.621 496.863C900.248 497.072 900.727 497.6 900.862 498.251L965.922 811.565C966.057 812.216 965.836 812.891 965.345 813.334L726.389 1026.8C725.898 1027.25 725.198 1027.39 724.571 1027.18L420.543 927.34C420.174 927.217 419.855 926.983 419.634 926.689ZM358.099 612.933L422.729 924.134L724.706 1023.3L962.065 811.258L897.435 500.056L595.458 400.888L358.099 612.933Z" fill="black"/>
<path d="M385.549 917.293C385.353 917.035 385.23 916.728 385.193 916.397L345.287 578.321C345.214 577.658 345.484 577.007 346.024 576.614L619.064 372.528C619.592 372.135 620.305 372.049 620.919 372.307L933.864 506.309C934.478 506.579 934.908 507.144 934.982 507.808L974.888 845.883C974.961 846.546 974.679 847.197 974.151 847.59L701.111 1051.68C700.583 1052.07 699.87 1052.16 699.256 1051.9L386.311 917.895C386.004 917.76 385.746 917.551 385.549 917.293ZM349.107 578.948L388.755 914.886L699.723 1048.04L971.043 845.244L931.395 509.306L620.427 376.152L349.107 578.948Z" fill="black"/>
<path d="M350.3 904.172C350.079 903.865 349.944 903.497 349.931 903.116L338.988 541.126C338.963 540.463 339.307 539.837 339.872 539.493L648.162 348.525C648.727 348.169 649.44 348.156 650.029 348.463L969.251 519.485C969.84 519.804 970.209 520.406 970.233 521.069L981.177 883.059C981.202 883.722 980.858 884.348 980.293 884.704L672.003 1075.67C671.438 1076.03 670.725 1076.04 670.136 1075.73L350.914 904.713C350.668 904.577 350.459 904.405 350.3 904.184V904.172ZM342.746 542.084L353.628 901.924L670.959 1071.93L977.419 882.088L966.536 522.248L649.206 352.246L342.746 542.084Z" fill="black"/>
<path d="M314.164 887.016C313.906 886.672 313.771 886.243 313.796 885.8L335.757 501.15C335.794 500.487 336.187 499.897 336.776 499.59L681.202 325.793C681.791 325.498 682.504 325.535 683.056 325.891L1005.51 536.732C1006.06 537.101 1006.39 537.727 1006.34 538.403L984.383 923.053C984.346 923.716 983.953 924.306 983.363 924.613L638.938 1098.41C638.348 1098.71 637.636 1098.67 637.083 1098.31L314.631 887.471C314.447 887.348 314.287 887.201 314.152 887.029L314.164 887.016ZM339.417 502.44L317.579 884.941L638.238 1094.61L980.735 921.788L1002.57 539.287L681.914 329.613L339.417 502.44Z" fill="black"/>
<path d="M277.463 865.471C277.169 865.078 277.046 864.587 277.107 864.083L336.051 458.479C336.149 457.816 336.591 457.263 337.205 457.017L718.331 304.764C718.945 304.518 719.645 304.616 720.173 305.034L1042.36 558.385C1042.87 558.79 1043.14 559.453 1043.04 560.116L984.099 965.721C984.001 966.384 983.559 966.937 982.945 967.183L601.819 1119.44C601.205 1119.68 600.505 1119.58 599.977 1119.17L277.795 865.815C277.66 865.717 277.549 865.594 277.451 865.471H277.463ZM339.588 460.088L280.952 863.555L601.439 1115.58L980.562 964.124L1039.2 560.657L718.712 308.633L339.588 460.088Z" fill="black"/>
<path d="M240.569 839.238C240.237 838.796 240.114 838.243 240.249 837.69L340.327 413.306C340.474 412.655 340.966 412.139 341.604 411.955L759.626 285.937C760.265 285.74 760.953 285.912 761.444 286.366L1079.4 584.733C1079.89 585.187 1080.09 585.875 1079.94 586.513L979.864 1010.9C979.716 1011.55 979.225 1012.06 978.586 1012.25L560.564 1138.27C559.926 1138.46 559.238 1138.29 558.759 1137.84L240.802 839.471C240.716 839.398 240.655 839.312 240.581 839.226L240.569 839.238ZM343.705 415.21L244.131 837.506L560.515 1134.4L976.486 1009.01L1076.06 586.71L759.676 289.818L343.705 415.21Z" fill="black"/>
<path d="M203.891 808.003C203.522 807.524 203.424 806.885 203.621 806.308L349.021 365.834C349.23 365.207 349.758 364.728 350.409 364.593L805.106 269.797C805.757 269.662 806.433 269.883 806.875 270.374L1116.17 616.052C1116.61 616.544 1116.76 617.244 1116.55 617.882L971.153 1058.36C970.944 1059 970.416 1059.46 969.765 1059.6L515.068 1154.39C514.417 1154.53 513.741 1154.31 513.299 1153.82L204.001 808.126C204.001 808.126 203.928 808.04 203.903 808.003H203.891ZM352.214 368.02L207.49 806.456L515.35 1150.54L967.947 1056.18L1112.67 617.747L804.811 273.666L352.214 368.02Z" fill="black"/>
<path d="M167.915 771.512C167.522 770.984 167.436 770.271 167.694 769.657L362.629 316.335C362.887 315.721 363.464 315.303 364.115 315.217L854.788 256.912C855.452 256.839 856.103 257.121 856.496 257.649L1152.23 652.679C1152.63 653.219 1152.71 653.919 1152.45 654.533L957.519 1107.86C957.261 1108.47 956.684 1108.89 956.033 1108.97L465.36 1167.28C464.697 1167.35 464.046 1167.08 463.653 1166.54L167.915 771.512ZM365.626 318.792L171.538 770.136L465.986 1163.45L954.522 1105.4L1148.61 654.054L854.162 260.745L365.626 318.792Z" fill="black"/>
<path d="M409.968 1175.57C409.968 1175.57 409.907 1175.48 409.882 1175.43L133.097 729.37C132.74 728.805 132.728 728.092 133.035 727.503L381.657 265.153C381.977 264.564 382.578 264.195 383.242 264.171L908.649 247.884C909.313 247.86 909.927 248.191 910.295 248.768L1187.08 694.831C1187.44 695.396 1187.45 696.109 1187.14 696.698L938.52 1159.05C938.201 1159.64 937.599 1160.01 936.936 1160.03L411.528 1176.32C410.914 1176.33 410.337 1176.06 409.981 1175.57H409.968ZM136.83 728.326L412.486 1172.56L935.745 1156.33L1183.35 695.875L907.691 251.643L384.433 267.868L136.83 728.326Z" fill="black"/>
<path d="M352.238 1180.16C352.177 1180.07 352.115 1179.99 352.066 1179.89L100.091 681.491C99.784 680.902 99.8331 680.19 100.189 679.625L406.551 212.681C406.92 212.129 407.546 211.809 408.209 211.846L966.534 243.302C967.198 243.338 967.799 243.731 968.094 244.321L1220.07 742.707C1220.38 743.297 1220.33 744.009 1219.97 744.574L913.621 1211.52C913.253 1212.07 912.627 1212.39 911.963 1212.35L353.638 1180.9C353.086 1180.86 352.582 1180.59 352.25 1180.15L352.238 1180.16ZM103.899 680.767L354.904 1177.24L911.091 1208.57L1216.26 743.432L965.257 246.962L409.069 215.629L103.899 680.767Z" fill="black"/>
<path d="M290.629 1179.67C290.531 1179.55 290.457 1179.4 290.396 1179.25L69.5566 627.695C69.3109 627.081 69.4092 626.369 69.8268 625.853L437.785 159.401C438.203 158.873 438.854 158.615 439.517 158.713L1028.31 243.818C1028.98 243.917 1029.53 244.359 1029.78 244.973L1250.6 796.518C1250.85 797.132 1250.75 797.844 1250.33 798.36L882.362 1264.81C881.957 1265.34 881.294 1265.6 880.63 1265.5L291.833 1180.39C291.341 1180.32 290.899 1180.06 290.604 1179.67H290.629ZM73.4133 627.302L293.442 1176.86L880.102 1261.64L1246.73 796.886L1026.71 247.331L440.045 162.545L73.4133 627.302Z" fill="black"/>
<path d="M225.385 1173.43C225.262 1173.26 225.152 1173.06 225.09 1172.85L42.1918 567.855C41.9952 567.217 42.1549 566.529 42.6216 566.037L475.837 105.825C476.292 105.346 476.967 105.137 477.618 105.285L1093.72 250.058C1094.37 250.218 1094.89 250.697 1095.07 251.336L1277.97 856.334C1278.17 856.973 1277.99 857.66 1277.54 858.152L844.324 1318.36C843.87 1318.84 843.194 1319.05 842.543 1318.9L226.441 1174.13C226.011 1174.03 225.631 1173.77 225.373 1173.43H225.385ZM46.073 567.806L228.345 1170.74L842.359 1315.02L1274.09 856.371L1091.82 253.436L477.815 109.166L46.073 567.806Z" fill="black"/>
<path d="M156.815 1160.78C156.656 1160.57 156.545 1160.31 156.484 1160.04L18.748 501.923C18.6129 501.272 18.834 500.597 19.3253 500.154L521.114 52.5806C521.605 52.1384 522.305 51.9911 522.932 52.1999L1162.44 262.771C1163.07 262.98 1163.55 263.508 1163.68 264.159L1301.42 922.279C1301.56 922.93 1301.33 923.605 1300.84 924.047L799.067 1371.61C798.575 1372.05 797.875 1372.2 797.249 1371.99L157.724 1161.43C157.356 1161.31 157.037 1161.07 156.815 1160.78ZM22.617 502.218L159.911 1158.24L797.384 1368.12L1297.55 921.984L1160.26 265.964L522.797 56.0811L22.617 502.218Z" fill="black"/>
<path d="M85.3171 1141.02C85.1206 1140.76 84.9977 1140.45 84.9609 1140.12L0.0152264 429.887C-0.070751 429.223 0.211746 428.572 0.752175 428.167L574.025 0.368176C574.553 -0.0248638 575.265 -0.110841 575.867 0.147091L1234.09 282.595C1234.7 282.853 1235.12 283.43 1235.2 284.081L1320.15 994.316C1320.23 994.979 1319.95 995.63 1319.41 996.036L746.139 1423.83C745.611 1424.23 744.899 1424.31 744.285 1424.06L86.0786 1141.61C85.7715 1141.47 85.5136 1141.26 85.3171 1141.01V1141.02ZM3.84736 430.501L88.5351 1138.61L744.776 1420.2L1316.33 993.69L1231.64 285.592L575.388 4.00379L3.84736 430.501Z" fill="black"/>
</g>
</mask>
<g mask="url(#mask1_2_2)">
<rect width="738.02" height="689.838" fill="white" fill-opacity="0.2"/>
</g>
</g>
</svg>
