<svg width="242" height="403" viewBox="0 0 242 403" fill="none" xmlns="http://www.w3.org/2000/svg">
<g clip-path="url(#clip0_1_2)">
<mask id="mask0_1_2" style="mask-type:alpha" maskUnits="userSpaceOnUse" x="0" y="0" width="242" height="403">
<path d="M242 0H0V403H242V0Z" fill="white"/>
</mask>
<g mask="url(#mask0_1_2)">
<mask id="mask1_1_2" style="mask-type:alpha" maskUnits="userSpaceOnUse" x="0" y="-144" width="1003" height="1082">
<g style="mix-blend-mode:multiply" opacity="0.75">
<path d="M238.591 529.642C238.395 529.381 238.292 529.054 238.311 528.718L254.989 236.597C255.017 236.093 255.316 235.645 255.763 235.412L517.336 103.423C517.784 103.199 518.325 103.227 518.744 103.497L763.63 263.62C764.049 263.9 764.301 264.375 764.264 264.888L747.586 557.01C747.558 557.513 747.259 557.961 746.811 558.194L485.239 690.184C484.791 690.408 484.25 690.38 483.83 690.109L238.945 529.987C238.805 529.894 238.684 529.782 238.581 529.651L238.591 529.642ZM257.769 237.576L241.184 528.065L484.707 687.302L744.815 556.049L761.4 265.56L517.877 106.324L257.769 237.576Z" fill="black"/>
<path d="M210.718 513.279C210.494 512.98 210.401 512.607 210.447 512.225L255.212 204.19C255.286 203.686 255.622 203.266 256.089 203.08L545.533 87.4514C545.999 87.2648 546.531 87.3395 546.932 87.6566L791.612 280.063C792.004 280.371 792.209 280.874 792.134 281.378L747.37 589.413C747.295 589.917 746.959 590.336 746.493 590.523L457.049 706.151C456.582 706.338 456.051 706.263 455.649 705.946L210.97 513.54C210.867 513.465 210.783 513.372 210.708 513.279H210.718ZM257.898 205.412L213.367 511.824L456.759 703.223L744.683 588.2L789.215 281.789L545.822 90.3897L257.898 205.412Z" fill="black"/>
<path d="M182.7 493.356C182.448 493.021 182.354 492.601 182.457 492.181L258.461 169.884C258.573 169.39 258.946 168.998 259.431 168.858L576.896 73.1538C577.381 73.0045 577.904 73.1351 578.277 73.4802L819.748 300.073C820.121 300.418 820.27 300.941 820.158 301.426L744.154 623.723C744.043 624.217 743.669 624.609 743.184 624.749L425.719 720.453C425.234 720.602 424.712 720.472 424.348 720.127L182.877 493.534C182.811 493.478 182.765 493.412 182.709 493.347L182.7 493.356ZM261.026 171.33L185.405 492.041L425.682 717.515L741.589 622.287L817.21 301.575L576.933 76.1014L261.026 171.33Z" fill="black"/>
<path d="M154.845 469.635C154.565 469.271 154.491 468.786 154.64 468.347L265.063 133.831C265.222 133.355 265.623 132.991 266.117 132.888L611.436 60.8959C611.93 60.7933 612.443 60.9612 612.779 61.3343L847.674 323.858C848.01 324.231 848.122 324.763 847.963 325.248L737.539 659.765C737.381 660.25 736.98 660.604 736.485 660.707L391.167 732.7C390.673 732.802 390.16 732.634 389.824 732.261L154.929 469.728C154.929 469.728 154.873 469.663 154.854 469.635H154.845ZM267.489 135.491L157.578 468.459L391.382 729.771L735.105 658.114L845.015 325.146L611.212 63.8341L267.489 135.491Z" fill="black"/>
<path d="M127.522 441.922C127.223 441.521 127.158 440.98 127.354 440.513L275.397 96.2396C275.593 95.7732 276.031 95.4561 276.525 95.3908L649.165 51.1113C649.669 51.0554 650.163 51.2699 650.462 51.671L875.059 351.675C875.357 352.085 875.423 352.617 875.227 353.083L727.184 697.357C726.988 697.823 726.549 698.14 726.055 698.206L353.415 742.485C352.912 742.541 352.417 742.336 352.119 741.925L127.522 441.922ZM277.673 98.1052L130.274 440.877L353.891 739.575L724.908 695.491L872.307 352.719L648.69 54.0216L277.673 98.1052Z" fill="black"/>
<path d="M311.349 748.781C311.349 748.781 311.303 748.716 311.284 748.678L101.08 409.917C100.809 409.488 100.8 408.947 101.033 408.5L289.848 57.3699C290.091 56.9221 290.548 56.6423 291.052 56.6236L690.071 44.2549C690.574 44.2362 691.041 44.4881 691.321 44.9265L901.525 383.687C901.795 384.116 901.804 384.657 901.571 385.105L712.756 736.235C712.514 736.683 712.057 736.962 711.553 736.981L312.534 749.35C312.067 749.359 311.629 749.154 311.359 748.781H311.349ZM103.916 409.125L313.261 746.496L710.648 734.173L898.689 384.48L689.343 47.1092L291.957 59.4313L103.916 409.125Z" fill="black"/>
<path d="M267.505 752.269C267.459 752.203 267.412 752.138 267.375 752.063L76.0133 373.556C75.7801 373.109 75.8174 372.568 76.0879 372.139L308.753 17.5203C309.033 17.1005 309.509 16.858 310.013 16.886L734.03 40.7747C734.534 40.8027 734.991 41.1012 735.215 41.5489L926.577 420.047C926.81 420.494 926.773 421.035 926.502 421.464L693.846 776.083C693.566 776.502 693.09 776.745 692.587 776.717L268.569 752.828C268.149 752.8 267.767 752.595 267.515 752.259L267.505 752.269ZM78.9049 373.006L269.53 750.049L691.924 773.844L923.685 420.597L733.06 43.5544L310.666 19.759L78.9049 373.006Z" fill="black"/>
<path d="M220.718 751.896C220.643 751.803 220.587 751.691 220.541 751.579L52.8254 332.701C52.6389 332.235 52.7135 331.694 53.0306 331.302L332.475 -22.9435C332.793 -23.3446 333.287 -23.5405 333.791 -23.4658L780.951 41.1671C781.455 41.2417 781.874 41.5775 782.061 42.0439L949.767 460.913C949.954 461.379 949.879 461.92 949.562 462.312L670.108 816.557C669.8 816.958 669.296 817.154 668.792 817.079L221.632 752.447C221.259 752.391 220.923 752.195 220.699 751.896H220.718ZM55.7544 332.402L222.854 749.76L668.391 814.15L946.829 461.193L779.729 43.8349L334.192 -20.5555L55.7544 332.402Z" fill="black"/>
<path d="M171.168 747.157C171.075 747.026 170.991 746.877 170.945 746.719L32.043 287.255C31.8938 286.77 32.0151 286.247 32.3695 285.874L361.373 -63.6324C361.719 -63.9961 362.232 -64.1547 362.726 -64.0428L830.622 45.905C831.117 46.0263 831.508 46.3901 831.648 46.8751L970.55 506.339C970.699 506.824 970.569 507.346 970.223 507.719L641.219 857.226C640.874 857.59 640.361 857.748 639.867 857.637L171.971 747.689C171.644 747.614 171.355 747.418 171.159 747.157H171.168ZM34.9906 287.217L173.417 745.114L639.727 854.689L967.602 506.367L829.176 48.4702L362.875 -61.0952L34.9906 287.217Z" fill="black"/>
<path d="M119.093 737.55C118.972 737.392 118.888 737.196 118.842 736.991L14.2386 237.184C14.136 236.689 14.3039 236.176 14.677 235.841L395.759 -104.068C396.132 -104.403 396.663 -104.515 397.139 -104.357L882.814 55.5605C883.29 55.7191 883.654 56.1202 883.756 56.6146L988.359 556.421C988.462 556.916 988.294 557.429 987.921 557.765L606.849 897.664C606.476 897.999 605.944 898.111 605.468 897.953L119.784 738.045C119.504 737.951 119.261 737.774 119.093 737.55ZM17.1769 237.408L121.444 735.62L605.571 895.014L985.421 556.198L881.154 57.9858L397.036 -101.409L17.1769 237.408Z" fill="black"/>
<path d="M64.7937 722.542C64.6445 722.346 64.5512 722.113 64.5232 721.861L0.0115636 182.476C-0.0537316 181.972 0.16081 181.478 0.571237 181.17L435.941 -143.72C436.342 -144.019 436.883 -144.084 437.34 -143.888L937.222 70.6158C937.688 70.8117 938.005 71.2501 938.071 71.7445L1002.58 611.13C1002.65 611.633 1002.43 612.128 1002.02 612.436L566.653 937.326C566.252 937.624 565.711 937.69 565.244 937.494L65.3721 722.99C65.1389 722.887 64.943 722.728 64.7937 722.533V722.542ZM2.92186 182.942L67.2377 720.714L565.617 934.565L999.681 610.654L935.366 72.8918L436.976 -140.959L2.92186 182.942Z" fill="black"/>
</g>
</mask>
<g mask="url(#mask1_1_2)">
<path d="M242.359 -144H0V396.812H242.359V-144Z" fill="white" fill-opacity="0.3"/>
</g>
</g>
</g>
<defs>
<clipPath id="clip0_1_2">
<rect width="242" height="403" fill="white"/>
</clipPath>
</defs>
</svg>
