<svg width="597" height="1424" viewBox="0 0 597 1424" fill="none" xmlns="http://www.w3.org/2000/svg">
<mask id="mask0_1_76" style="mask-type:alpha" maskUnits="userSpaceOnUse" x="0" y="0" width="597" height="1424">
<rect width="597" height="1424" transform="matrix(-1 0 0 1 597 0)" fill="#D9D9D9"/>
</mask>
<g mask="url(#mask0_1_76)">
<mask id="mask1_1_76" style="mask-type:alpha" maskUnits="userSpaceOnUse" x="-1" y="0" width="1321" height="1425">
<g style="mix-blend-mode:multiply" opacity="0.75">
<path d="M563.796 741.94C563.464 741.51 563.354 740.945 563.477 740.405L585.991 644.245C586.138 643.594 586.629 643.078 587.268 642.882L681.843 614.448C682.482 614.251 683.17 614.423 683.661 614.878L755.722 682.603C756.201 683.046 756.41 683.733 756.263 684.384L733.749 780.544C733.601 781.195 733.11 781.711 732.471 781.907L637.896 810.341C637.258 810.538 636.57 810.366 636.091 809.911L564.029 742.186C563.956 742.112 563.882 742.026 563.808 741.94H563.796ZM589.38 646.137L567.358 740.196L637.847 806.448L730.359 778.64L752.381 684.581L681.892 618.329L589.368 646.137H589.38Z" fill="#06385F" fill-opacity="0.3"/>
<path d="M555.504 734.868C555.148 734.389 555.037 733.75 555.222 733.173L588.003 633.353C588.212 632.715 588.74 632.248 589.391 632.113L692.257 610.754C692.908 610.618 693.584 610.84 694.026 611.343L764.11 689.804C764.552 690.307 764.699 690.995 764.49 691.621L731.708 791.441C731.5 792.08 730.972 792.547 730.321 792.682L627.455 814.041C626.804 814.176 626.128 813.955 625.686 813.451L555.602 734.991C555.602 734.991 555.529 734.905 555.504 734.868ZM591.209 635.54L559.103 733.32L627.762 810.172L728.527 789.255L760.634 691.486L691.975 614.635L591.209 635.564V635.54Z" fill="#06385F" fill-opacity="0.3"/>
<path d="M614.377 816.249L547.376 726.599C546.983 726.071 546.897 725.359 547.155 724.757L591.151 622.014C591.409 621.4 591.986 620.97 592.649 620.896L703.646 607.791C704.309 607.717 704.96 607.987 705.353 608.528L772.354 698.178C772.747 698.706 772.833 699.418 772.575 700.02L728.579 802.763C728.322 803.377 727.744 803.807 727.081 803.881L616.084 816.986C615.421 817.06 614.77 816.79 614.377 816.249ZM550.999 725.236L616.711 813.154L725.57 800.307L768.719 699.541L703.007 611.623L594.148 624.471L550.999 725.236Z" fill="#06385F" fill-opacity="0.3"/>
<path d="M602.218 818.316C602.218 818.316 602.157 818.23 602.132 818.181L539.43 716.961C539.086 716.396 539.062 715.683 539.369 715.094L595.524 610.287C595.844 609.698 596.446 609.329 597.109 609.305L715.954 605.706C716.618 605.681 717.244 606.038 717.588 606.59L780.29 707.81C780.634 708.375 780.658 709.088 780.351 709.677L724.196 814.484C723.876 815.073 723.275 815.442 722.611 815.466L603.766 819.065C603.152 819.09 602.575 818.807 602.218 818.316ZM543.164 715.917L604.736 815.307L721.432 811.782L776.568 708.867L715.008 609.477L598.313 613.002L543.177 715.917H543.164Z" fill="#06385F" fill-opacity="0.3"/>
<path d="M589.147 819.371C589.085 819.285 589.024 819.199 588.975 819.088L531.91 706.003C531.615 705.414 531.652 704.701 532.021 704.149L601.245 598.274C601.613 597.721 602.24 597.389 602.915 597.438L729.204 604.648C729.867 604.685 730.457 605.066 730.764 605.668L787.828 718.753C788.123 719.342 788.086 720.055 787.717 720.607L718.493 826.482C718.125 827.035 717.498 827.367 716.823 827.317L590.534 820.108C589.982 820.071 589.478 819.801 589.147 819.358V819.371ZM535.718 705.291L591.812 816.46L715.951 823.547L783.996 719.477L727.902 608.321L603.763 601.234L535.718 705.303V705.291Z" fill="#06385F" fill-opacity="0.3"/>
<path d="M575.192 819.284C575.093 819.161 575.02 819.014 574.958 818.854L524.968 693.72C524.723 693.106 524.821 692.406 525.239 691.878L608.416 586.101C608.833 585.573 609.484 585.315 610.148 585.413L743.314 604.771C743.977 604.869 744.53 605.299 744.776 605.925L794.766 731.059C795.011 731.673 794.913 732.373 794.495 732.901L711.318 838.678C710.901 839.206 710.25 839.464 709.587 839.366L576.42 820.009C575.929 819.935 575.486 819.665 575.192 819.284ZM528.825 693.34L578.017 816.472L709.058 835.509L790.909 731.415L741.717 608.283L610.676 589.246L528.825 693.34Z" fill="#06385F" fill-opacity="0.3"/>
<path d="M560.405 817.896C560.283 817.724 560.184 817.528 560.111 817.319L518.731 680.074C518.534 679.436 518.706 678.748 519.161 678.257L617.126 573.868C617.58 573.376 618.268 573.18 618.907 573.327L758.239 606.183C758.89 606.343 759.406 606.822 759.59 607.46L800.97 744.705C801.167 745.344 800.995 746.031 800.54 746.523L702.575 850.912C702.121 851.403 701.433 851.599 700.794 851.452L561.462 818.596C561.032 818.498 560.651 818.24 560.393 817.896H560.405ZM522.612 680.025L563.366 815.219L700.61 847.583L797.101 744.766L756.348 609.573L619.103 577.209L522.612 680.025Z" fill="#06385F" fill-opacity="0.3"/>
<path d="M544.878 815.06C544.719 814.851 544.608 814.593 544.547 814.323L513.423 665.029C513.288 664.378 513.509 663.703 514 663.261L627.503 561.709C627.994 561.267 628.694 561.119 629.333 561.328L773.947 609.07C774.573 609.279 775.052 609.807 775.187 610.458L806.311 759.752C806.446 760.403 806.225 761.078 805.734 761.52L692.231 863.072C691.74 863.514 691.04 863.662 690.401 863.453L545.787 815.711C545.419 815.588 545.099 815.355 544.878 815.06ZM517.292 665.324L547.974 812.505L690.549 859.571L802.442 759.457L771.76 612.276L629.185 565.209L517.292 665.324Z" fill="#06385F" fill-opacity="0.3"/>
<path d="M528.68 810.602C528.483 810.344 528.361 810.037 528.324 809.705L509.188 648.608C509.114 647.945 509.384 647.294 509.925 646.901L639.615 549.808C640.144 549.403 640.856 549.329 641.47 549.587L790.309 613.591C790.923 613.849 791.341 614.426 791.427 615.077L810.563 776.174C810.637 776.838 810.367 777.489 809.826 777.882L680.123 874.975C679.583 875.38 678.883 875.454 678.268 875.196L529.429 811.192C529.122 811.057 528.864 810.86 528.668 810.602H528.68ZM513.008 649.235L531.898 808.195L678.76 871.351L806.731 775.548L787.84 616.588L640.979 553.431L513.008 649.235Z" fill="#06385F" fill-opacity="0.3"/>
<path d="M511.915 804.385C511.694 804.078 511.559 803.722 511.547 803.329L506.204 630.821C506.179 630.158 506.523 629.532 507.088 629.175L653.544 538.297C654.109 537.941 654.822 537.929 655.411 538.236L807.211 619.865C807.8 620.185 808.169 620.787 808.193 621.45L813.536 793.957C813.561 794.62 813.217 795.247 812.652 795.603L666.195 886.481C665.63 886.837 664.918 886.85 664.328 886.543L512.529 804.913C512.284 804.778 512.075 804.606 511.915 804.385ZM509.95 631.779L515.231 802.137L665.139 882.747L809.765 793.011L804.484 622.653L654.576 542.043L509.95 631.779Z" fill="#06385F" fill-opacity="0.3"/>
<path d="M494.73 796.231C494.472 795.887 494.337 795.457 494.362 795.015L504.691 611.699C504.728 611.035 505.121 610.446 505.711 610.139L669.35 527.404C669.94 527.109 670.652 527.146 671.217 527.515L824.527 628.096C825.08 628.452 825.399 629.091 825.362 629.754L815.033 813.07C814.996 813.733 814.603 814.323 814.013 814.63L650.374 897.352C649.784 897.647 649.072 897.61 648.507 897.242L495.197 796.661C495.013 796.538 494.853 796.39 494.73 796.218V796.231ZM508.351 612.976L498.145 794.143L649.649 893.545L811.36 811.793L821.567 630.626L670.063 531.224L508.351 612.988V612.976Z" fill="#06385F" fill-opacity="0.3"/>
<path d="M477.291 786.012C476.996 785.619 476.873 785.127 476.935 784.636L504.877 591.322C504.975 590.659 505.405 590.106 506.032 589.86L687.125 517.357C687.739 517.111 688.451 517.209 688.967 517.627L842.117 638.438C842.633 638.855 842.903 639.506 842.805 640.169L814.862 833.483C814.764 834.147 814.334 834.699 813.708 834.945L632.615 907.448C632.001 907.694 631.288 907.596 630.773 907.178L477.622 786.368C477.5 786.269 477.377 786.147 477.291 786.024V786.012ZM508.414 592.906L480.779 784.096L632.234 903.579L811.325 831.874L838.961 640.685L687.505 521.201L508.414 592.906Z" fill="#06385F" fill-opacity="0.3"/>
<path d="M459.738 773.557C459.407 773.115 459.284 772.563 459.419 772.01L506.952 569.73C507.1 569.079 507.591 568.563 508.23 568.366L706.862 508.317C707.501 508.121 708.189 508.293 708.68 508.747L859.779 650.978C860.258 651.433 860.467 652.108 860.319 652.759L812.786 855.039C812.639 855.69 812.148 856.206 811.509 856.403L612.877 916.452C612.238 916.648 611.55 916.476 611.059 916.022L459.96 773.791C459.886 773.717 459.812 773.631 459.738 773.545V773.557ZM510.33 571.633L463.288 771.826L612.827 912.583L809.396 853.16L856.438 652.968L706.899 512.211L510.318 571.633H510.33Z" fill="#06385F" fill-opacity="0.3"/>
<path d="M442.298 758.72C441.942 758.241 441.832 757.602 442.016 757.025L511.142 547.056C511.35 546.429 511.879 545.95 512.53 545.815L728.603 500.591C729.254 500.456 729.93 500.677 730.372 501.181L877.319 665.926C877.749 666.417 877.909 667.117 877.7 667.743L808.574 877.713C808.366 878.339 807.837 878.818 807.186 878.953L591.113 924.177C590.462 924.312 589.786 924.091 589.344 923.588L442.397 758.843C442.397 758.843 442.323 758.757 442.298 758.72ZM514.36 549.242L445.897 757.16L591.408 920.296L805.381 875.514L873.843 667.596L728.333 504.46L514.36 549.242Z" fill="#06385F" fill-opacity="0.3"/>
<path d="M565.638 929.617L425.175 741.401C424.782 740.872 424.696 740.16 424.954 739.546L517.687 523.436C517.945 522.821 518.522 522.404 519.173 522.318L752.356 494.424C753.019 494.351 753.67 494.621 754.063 495.161L894.514 683.378C894.907 683.906 894.993 684.619 894.735 685.233L802.002 901.343C801.744 901.957 801.167 902.375 800.516 902.461L567.333 930.354C566.67 930.428 566.019 930.158 565.626 929.617H565.638ZM428.811 740.025L567.984 926.522L799.03 898.887L890.915 684.754L751.742 498.257L520.696 525.892L428.811 740.025Z" fill="#06385F" fill-opacity="0.3"/>
<path d="M540.056 933.929C540.056 933.929 539.995 933.843 539.97 933.794L408.572 721.295C408.228 720.73 408.204 720.017 408.511 719.428L526.828 498.994C527.147 498.405 527.749 498.036 528.412 498.012L778.128 490.077C778.791 490.052 779.429 490.421 779.773 490.961L911.171 703.448C911.528 704.013 911.54 704.726 911.233 705.315L792.916 925.749C792.596 926.339 791.994 926.707 791.331 926.732L541.616 934.666C541.002 934.691 540.425 934.408 540.068 933.917L540.056 933.929ZM412.294 720.251L542.562 930.92L790.127 923.047L907.425 704.517L777.157 493.86L529.591 501.721L412.294 720.251Z" fill="#06385F" fill-opacity="0.3"/>
<path d="M512.552 936.14C512.491 936.054 512.429 935.955 512.38 935.857L392.822 698.473C392.528 697.884 392.564 697.172 392.933 696.619L538.751 473.987C539.119 473.434 539.745 473.114 540.409 473.151L805.784 487.89C806.447 487.927 807.037 488.308 807.344 488.91L926.902 726.293C927.196 726.883 927.16 727.595 926.791 728.148L780.973 950.78C780.605 951.333 779.978 951.652 779.315 951.615L513.94 936.876C513.387 936.84 512.884 936.569 512.552 936.127V936.14ZM396.642 697.761L515.23 933.216L778.455 947.845L923.094 727.006L804.507 491.55L541.281 476.922L396.63 697.761H396.642Z" fill="#06385F" fill-opacity="0.3"/>
<path d="M483.185 935.931C483.087 935.796 483.013 935.66 482.952 935.501L378.256 672.84C378.01 672.226 378.108 671.526 378.526 670.998L553.711 448.574C554.116 448.046 554.78 447.788 555.443 447.886L835.312 488.111C835.975 488.21 836.527 488.652 836.773 489.266L941.469 751.927C941.715 752.541 941.616 753.241 941.199 753.769L766.014 976.193C765.608 976.721 764.945 976.979 764.282 976.881L484.413 936.655C483.922 936.582 483.48 936.312 483.185 935.931ZM382.112 672.471L486.01 933.13L763.754 973.048L937.612 752.308L833.715 491.649L555.971 451.731L382.112 672.471Z" fill="#06385F" fill-opacity="0.3"/>
<path d="M452.086 932.983C451.963 932.811 451.853 932.615 451.791 932.406L365.2 644.345C365.016 643.706 365.175 643.018 365.63 642.539L571.914 423.063C572.368 422.584 573.044 422.376 573.695 422.523L866.571 491.108C867.222 491.256 867.738 491.747 867.934 492.386L954.526 780.447C954.71 781.086 954.55 781.773 954.096 782.252L747.811 1001.73C747.357 1002.21 746.681 1002.42 746.031 1002.27L453.155 933.683C452.725 933.585 452.344 933.327 452.086 932.983ZM369.081 644.296L455.058 930.305L745.834 998.4L950.644 780.484L864.667 494.474L573.891 426.38L369.081 644.296Z" fill="#06385F" fill-opacity="0.3"/>
<path d="M419.415 926.978C419.256 926.769 419.145 926.511 419.084 926.241L354.023 612.927C353.888 612.276 354.109 611.6 354.601 611.158L593.556 397.689C594.048 397.246 594.748 397.099 595.374 397.308L899.402 497.152C900.029 497.361 900.508 497.889 900.643 498.54L965.703 811.854C965.838 812.505 965.617 813.181 965.126 813.623L726.17 1027.09C725.679 1027.53 724.979 1027.68 724.352 1027.47L420.324 927.629C419.956 927.506 419.636 927.272 419.415 926.978ZM357.88 613.222L422.51 924.423L724.488 1023.59L961.847 811.547L897.216 500.346L595.239 401.177L357.88 613.222Z" fill="#06385F" fill-opacity="0.3"/>
<path d="M385.331 917.582C385.134 917.325 385.011 917.017 384.975 916.686L345.069 578.61C344.995 577.947 345.265 577.296 345.806 576.903L618.845 372.817C619.373 372.424 620.086 372.338 620.7 372.596L933.645 506.598C934.26 506.868 934.689 507.433 934.763 508.097L974.669 846.172C974.743 846.835 974.46 847.486 973.932 847.879L700.892 1051.97C700.364 1052.36 699.652 1052.44 699.038 1052.19L386.092 918.184C385.785 918.049 385.527 917.84 385.331 917.582ZM348.889 579.237L388.536 915.175L699.504 1048.33L970.825 845.533L931.177 509.595L620.209 376.441L348.889 579.237Z" fill="#06385F" fill-opacity="0.3"/>
<path d="M350.081 904.461C349.86 904.154 349.725 903.786 349.713 903.405L338.769 541.416C338.745 540.752 339.088 540.126 339.653 539.782L647.944 348.814C648.509 348.458 649.221 348.445 649.811 348.752L969.032 519.774C969.622 520.093 969.99 520.695 970.015 521.358L980.959 883.348C980.983 884.011 980.639 884.637 980.074 884.993L671.784 1075.96C671.219 1076.32 670.507 1076.33 669.917 1076.02L350.695 905.002C350.45 904.867 350.241 904.695 350.081 904.473V904.461ZM342.528 542.374L353.41 902.214L670.74 1072.22L977.2 882.377L966.318 522.537L648.988 352.536L342.528 542.374Z" fill="#06385F" fill-opacity="0.3"/>
<path d="M313.945 887.305C313.687 886.962 313.552 886.532 313.576 886.09L335.537 501.439C335.574 500.776 335.967 500.186 336.557 499.879L680.982 326.082C681.572 325.787 682.284 325.824 682.837 326.18L1005.29 537.021C1005.84 537.39 1006.17 538.016 1006.12 538.692L984.163 923.342C984.126 924.006 983.733 924.595 983.144 924.902L638.718 1098.7C638.129 1098.99 637.416 1098.96 636.863 1098.6L314.411 887.76C314.227 887.637 314.067 887.49 313.932 887.318L313.945 887.305ZM339.197 502.729L317.359 885.23L638.018 1094.9L980.515 922.077L1002.35 539.576L681.695 329.902L339.197 502.729Z" fill="#06385F" fill-opacity="0.3"/>
<path d="M277.244 865.76C276.949 865.367 276.826 864.876 276.888 864.372L335.831 458.768C335.93 458.105 336.372 457.552 336.986 457.306L718.112 305.053C718.726 304.807 719.426 304.905 719.954 305.323L1042.14 558.674C1042.65 559.079 1042.92 559.742 1042.82 560.405L983.88 966.01C983.782 966.673 983.339 967.226 982.725 967.472L601.6 1119.73C600.986 1119.97 600.286 1119.87 599.757 1119.46L277.576 866.104C277.44 866.006 277.33 865.883 277.232 865.76H277.244ZM339.369 460.377L280.732 863.844L601.219 1115.87L980.343 964.413L1038.98 560.946L718.492 308.922L339.369 460.377Z" fill="#06385F" fill-opacity="0.3"/>
<path d="M240.35 839.527C240.019 839.085 239.896 838.532 240.031 837.979L340.109 413.595C340.256 412.944 340.747 412.428 341.386 412.244L759.408 286.226C760.047 286.029 760.735 286.201 761.226 286.655L1079.18 585.022C1079.67 585.476 1079.87 586.164 1079.72 586.803L979.645 1011.19C979.498 1011.84 979.007 1012.35 978.368 1012.54L560.346 1138.56C559.707 1138.75 559.019 1138.58 558.54 1138.13L240.584 839.76C240.498 839.687 240.436 839.601 240.362 839.515L240.35 839.527ZM343.486 415.499L243.912 837.795L560.297 1134.69L976.268 1009.3L1075.84 586.999L759.457 290.107L343.486 415.499Z" fill="#06385F" fill-opacity="0.3"/>
<path d="M203.671 808.292C203.303 807.813 203.205 807.174 203.401 806.597L348.801 366.123C349.01 365.496 349.538 365.017 350.189 364.882L804.887 270.086C805.538 269.951 806.213 270.172 806.655 270.663L1115.95 616.341C1116.39 616.833 1116.54 617.533 1116.33 618.171L970.934 1058.65C970.725 1059.28 970.197 1059.75 969.546 1059.89L514.848 1154.68C514.197 1154.82 513.522 1154.6 513.079 1154.11L203.782 808.415C203.782 808.415 203.708 808.329 203.684 808.292H203.671ZM351.995 368.309L207.27 806.744L515.131 1150.83L967.728 1056.47L1112.45 618.036L804.592 273.955L351.995 368.309Z" fill="#06385F" fill-opacity="0.3"/>
<path d="M167.696 771.801C167.303 771.273 167.217 770.56 167.475 769.946L362.41 316.624C362.668 316.01 363.245 315.593 363.896 315.507L854.569 257.202C855.232 257.128 855.883 257.41 856.276 257.939L1152.01 652.968C1152.41 653.508 1152.49 654.208 1152.23 654.823L957.3 1108.14C957.042 1108.76 956.464 1109.18 955.813 1109.26L465.141 1167.57C464.477 1167.64 463.826 1167.37 463.433 1166.83L167.696 771.801ZM365.407 319.081L171.319 770.425L465.767 1163.73L954.303 1105.69L1148.39 654.343L853.943 261.034L365.407 319.081Z" fill="#06385F" fill-opacity="0.3"/>
<path d="M409.75 1175.86C409.75 1175.86 409.689 1175.77 409.664 1175.72L132.878 729.659C132.522 729.094 132.51 728.381 132.817 727.792L381.439 265.442C381.759 264.853 382.36 264.484 383.024 264.46L908.431 248.173C909.095 248.148 909.709 248.48 910.077 249.057L1186.86 695.12C1187.22 695.685 1187.23 696.398 1186.92 696.987L938.302 1159.34C937.983 1159.93 937.381 1160.29 936.718 1160.32L411.31 1176.61C410.696 1176.62 410.119 1176.35 409.763 1175.86H409.75ZM136.612 728.615L412.268 1172.85L935.527 1156.62L1183.13 696.164L907.473 251.931L384.215 268.157L136.612 728.615Z" fill="#06385F" fill-opacity="0.3"/>
<path d="M352.019 1180.45C351.958 1180.36 351.897 1180.28 351.848 1180.18L99.8723 681.781C99.5653 681.191 99.6144 680.479 99.9706 679.914L406.333 212.971C406.701 212.418 407.328 212.098 407.991 212.135L966.316 243.591C966.979 243.628 967.581 244.021 967.876 244.61L1219.85 742.997C1220.16 743.586 1220.11 744.299 1219.75 744.864L913.403 1211.81C913.034 1212.36 912.408 1212.68 911.745 1212.64L353.42 1181.19C352.867 1181.15 352.363 1180.88 352.032 1180.44L352.019 1180.45ZM103.68 681.056L354.685 1177.53L910.873 1208.86L1216.04 743.721L965.038 247.251L408.851 215.918L103.68 681.056Z" fill="#06385F" fill-opacity="0.3"/>
<path d="M290.411 1179.96C290.313 1179.84 290.239 1179.69 290.178 1179.54L69.3386 627.984C69.0929 627.37 69.1912 626.658 69.6088 626.142L437.567 159.69C437.985 159.162 438.636 158.904 439.299 159.002L1028.1 244.107C1028.76 244.206 1029.31 244.648 1029.56 245.262L1250.39 796.807C1250.63 797.421 1250.53 798.133 1250.12 798.649L882.144 1265.1C881.739 1265.63 881.076 1265.89 880.412 1265.79L291.615 1180.68C291.123 1180.61 290.681 1180.35 290.386 1179.96H290.411ZM73.1952 627.591L293.224 1177.15L879.884 1261.93L1246.52 797.175L1026.49 247.62L439.827 162.834L73.1952 627.591Z" fill="#06385F" fill-opacity="0.3"/>
<path d="M225.167 1173.72C225.044 1173.55 224.934 1173.35 224.872 1173.14L41.974 568.144C41.7774 567.505 41.9371 566.818 42.4038 566.326L475.619 106.114C476.074 105.635 476.749 105.426 477.4 105.574L1093.5 250.347C1094.15 250.507 1094.67 250.986 1094.85 251.625L1277.75 856.623C1277.95 857.262 1277.78 857.949 1277.32 858.441L844.106 1318.65C843.652 1319.13 842.976 1319.34 842.325 1319.19L226.224 1174.42C225.794 1174.32 225.413 1174.06 225.155 1173.72H225.167ZM45.8552 568.095L228.127 1171.03L842.141 1315.31L1273.87 856.66L1091.6 253.725L477.597 109.455L45.8552 568.095Z" fill="#06385F" fill-opacity="0.3"/>
<path d="M156.596 1161.07C156.437 1160.86 156.326 1160.6 156.265 1160.33L18.5288 502.212C18.3937 501.561 18.6148 500.886 19.1061 500.443L520.895 52.8697C521.386 52.4275 522.086 52.2801 522.712 52.4889L1162.22 263.06C1162.85 263.269 1163.33 263.797 1163.47 264.448L1301.2 922.568C1301.34 923.219 1301.11 923.894 1300.62 924.337L798.847 1371.9C798.356 1372.34 797.656 1372.49 797.029 1372.28L157.505 1161.72C157.137 1161.6 156.817 1161.36 156.596 1161.07ZM22.3978 502.507L159.691 1158.53L797.165 1368.41L1297.33 922.273L1160.04 266.253L522.577 56.3702L22.3978 502.507Z" fill="#06385F" fill-opacity="0.3"/>
<path d="M85.0983 1141.31C84.9018 1141.05 84.779 1140.74 84.7421 1140.41L-0.203524 430.176C-0.289501 429.512 -0.00700385 428.862 0.533425 428.456L573.806 0.657238C574.334 0.264199 575.047 0.178221 575.649 0.436153L1233.87 282.884C1234.48 283.142 1234.9 283.719 1234.98 284.37L1319.93 994.605C1320.02 995.268 1319.73 995.919 1319.19 996.325L745.921 1424.12C745.392 1424.52 744.68 1424.6 744.066 1424.34L85.8598 1141.9C85.5528 1141.76 85.2949 1141.55 85.0983 1141.29V1141.31ZM3.62861 430.79L88.3163 1138.9L744.557 1420.49L1316.11 993.979L1231.42 285.881L575.169 4.29285L3.62861 430.79Z" fill="#06385F" fill-opacity="0.3"/>
</g>
</mask>
<g mask="url(#mask1_1_76)">
<rect x="-0.21875" y="0.288635" width="1320.16" height="1424.2" fill="#06385F" fill-opacity="0.3"/>
</g>
</g>
</svg>
