<svg width="881" height="390" viewBox="0 0 881 390" fill="none" xmlns="http://www.w3.org/2000/svg">
<mask id="mask0_1_73" style="mask-type:alpha" maskUnits="userSpaceOnUse" x="0" y="0" width="881" height="390">
<path d="M0 0H881V390H0V0Z" fill="#D9D9D9"/>
</mask>
<g mask="url(#mask0_1_73)">
<mask id="mask1_1_73" style="mask-type:alpha" maskUnits="userSpaceOnUse" x="0" y="-1" width="881" height="951">
<g style="mix-blend-mode:multiply" opacity="0.75">
<path d="M383.979 545.858C383.913 545.776 383.864 545.678 383.823 545.572L350.483 462.115C350.319 461.705 350.385 461.239 350.663 460.886L406.137 390.34C406.416 389.987 406.85 389.815 407.292 389.881L496.106 402.791C496.549 402.856 496.917 403.143 497.081 403.561L530.421 487.018C530.585 487.427 530.52 487.894 530.241 488.246L474.767 558.793C474.489 559.145 474.054 559.317 473.612 559.252L384.798 546.342C384.47 546.293 384.175 546.112 383.979 545.858ZM353.055 461.861L385.863 543.983L473.26 556.68L527.849 487.255L495.041 405.134L407.645 392.437L353.055 461.861Z" fill="#06385F" fill-opacity="0.3"/>
<path d="M374.117 544.933C374.036 544.819 373.97 544.688 373.921 544.548L346.323 453.015C346.192 452.589 346.307 452.13 346.61 451.802L411.947 382.181C412.25 381.854 412.708 381.723 413.134 381.821L506.061 403.734C506.495 403.84 506.839 404.16 506.962 404.586L534.559 496.119C534.69 496.545 534.576 497.004 534.273 497.332L468.936 566.953C468.633 567.28 468.174 567.411 467.748 567.313L374.822 545.4C374.535 545.335 374.281 545.163 374.109 544.933H374.117ZM348.912 452.982L376.092 543.148L467.625 564.733L531.979 496.16L504.799 405.995L413.265 384.41L348.912 452.982Z" fill="#06385F" fill-opacity="0.3"/>
<path d="M363.763 543.042C363.656 542.902 363.582 542.73 363.542 542.55L342.784 442.98C342.694 442.546 342.841 442.096 343.169 441.801L418.868 374.072C419.196 373.777 419.663 373.679 420.089 373.818L516.537 405.659C516.955 405.798 517.275 406.151 517.365 406.585L538.122 506.155C538.212 506.589 538.065 507.039 537.737 507.334L462.038 575.063C461.71 575.358 461.244 575.456 460.818 575.317L364.369 543.476C364.123 543.394 363.91 543.238 363.763 543.042ZM345.364 443.177L365.827 541.338L460.916 572.728L535.542 505.958L515.079 407.797L419.99 376.407L345.364 443.177Z" fill="#06385F" fill-opacity="0.3"/>
<path d="M352.957 540.068C352.826 539.896 352.744 539.691 352.72 539.47L339.957 432.028C339.908 431.586 340.088 431.152 340.449 430.89L426.944 366.135C427.297 365.864 427.772 365.815 428.181 365.987L527.448 408.674C527.858 408.846 528.136 409.231 528.194 409.665L540.956 517.107C541.005 517.549 540.825 517.983 540.465 518.246L453.961 583.001C453.6 583.271 453.133 583.32 452.724 583.148L353.457 540.461C353.252 540.371 353.08 540.24 352.949 540.068H352.957ZM342.505 432.446L355.104 538.463L453.051 580.584L538.4 516.689L525.802 410.673L427.854 368.551L342.505 432.446Z" fill="#06385F" fill-opacity="0.3"/>
<path d="M341.777 535.923C341.629 535.718 341.539 535.48 341.531 535.218L337.968 420.166C337.951 419.724 338.181 419.306 338.557 419.069L436.235 358.458C436.612 358.221 437.087 358.213 437.48 358.417L538.721 412.859C539.114 413.072 539.36 413.474 539.376 413.916L542.94 528.968C542.956 529.41 542.727 529.828 542.35 530.066L444.672 590.676C444.295 590.913 443.82 590.921 443.427 590.717L342.186 536.275C342.022 536.185 341.883 536.07 341.777 535.923ZM340.466 420.805L343.988 534.424L443.968 588.185L540.425 528.337L536.902 414.719L436.923 360.957L340.466 420.805Z" fill="#06385F" fill-opacity="0.3"/>
<path d="M330.316 530.483C330.144 530.253 330.054 529.967 330.07 529.672L336.959 407.411C336.984 406.969 337.246 406.576 337.639 406.371L446.777 351.192C447.17 350.995 447.645 351.02 448.022 351.266L550.27 418.347C550.639 418.585 550.852 419.011 550.827 419.453L543.938 541.714C543.914 542.156 543.651 542.549 543.258 542.754L434.121 597.925C433.727 598.121 433.252 598.097 432.876 597.851L330.627 530.77C330.504 530.688 330.398 530.589 330.316 530.475V530.483ZM339.4 408.263L332.593 529.09L433.637 595.385L541.489 540.862L548.296 420.035L447.252 353.739L339.4 408.271V408.263Z" fill="#06385F" fill-opacity="0.3"/>
<path d="M318.685 523.667C318.489 523.405 318.407 523.077 318.448 522.75L337.084 393.821C337.149 393.379 337.436 393.01 337.854 392.846L458.632 344.491C459.041 344.327 459.516 344.393 459.86 344.671L562.002 425.244C562.346 425.523 562.527 425.957 562.461 426.399L543.825 555.328C543.76 555.77 543.473 556.139 543.055 556.303L422.277 604.658C421.868 604.822 421.392 604.756 421.048 604.478L318.907 523.905C318.825 523.839 318.743 523.757 318.685 523.675V523.667ZM339.443 394.878L321.012 522.389L422.023 602.078L541.466 554.255L559.897 426.743L458.886 347.055L339.443 394.878Z" fill="#06385F" fill-opacity="0.3"/>
<path d="M306.978 515.361C306.756 515.066 306.674 514.697 306.765 514.329L338.466 379.42C338.565 378.986 338.892 378.642 339.318 378.511L471.794 338.462C472.22 338.331 472.679 338.445 473.006 338.748L573.78 433.608C574.1 433.911 574.239 434.362 574.141 434.796L542.439 569.704C542.34 570.138 542.013 570.483 541.587 570.614L409.111 610.663C408.685 610.794 408.227 610.679 407.899 610.376L307.125 515.516C307.076 515.467 307.027 515.41 306.978 515.353V515.361ZM340.719 380.69L309.345 514.206L409.078 608.082L540.178 568.451L571.552 434.935L471.818 341.059L340.711 380.69H340.719Z" fill="#06385F" fill-opacity="0.3"/>
<path d="M295.347 505.465C295.109 505.146 295.035 504.72 295.158 504.335L341.261 364.298C341.4 363.881 341.752 363.561 342.187 363.471L486.294 333.309C486.728 333.219 487.179 333.367 487.474 333.703L585.479 443.577C585.766 443.905 585.872 444.372 585.733 444.79L539.63 584.826C539.491 585.244 539.139 585.563 538.705 585.654L394.597 615.815C394.163 615.905 393.712 615.758 393.417 615.422L295.412 505.547C295.412 505.547 295.363 505.49 295.347 505.465ZM343.407 365.757L297.747 504.425L394.793 613.227L537.5 583.36L583.161 444.691L486.114 335.89L343.407 365.757Z" fill="#06385F" fill-opacity="0.3"/>
<path d="M377.607 619.445L283.927 493.915C283.665 493.563 283.608 493.088 283.78 492.679L345.627 348.546C345.799 348.137 346.184 347.858 346.618 347.801L502.137 329.197C502.579 329.148 503.013 329.328 503.275 329.689L596.947 455.218C597.209 455.57 597.267 456.045 597.095 456.455L535.247 600.587C535.075 600.997 534.69 601.275 534.256 601.333L378.738 619.936C378.295 619.985 377.861 619.805 377.599 619.445H377.607ZM286.352 492.998L379.172 617.38L533.265 598.949L594.547 456.135L501.727 331.753L347.634 350.184L286.352 492.998Z" fill="#06385F" fill-opacity="0.3"/>
<path d="M360.546 622.32C360.546 622.32 360.505 622.262 360.488 622.23L272.854 480.506C272.624 480.129 272.608 479.654 272.813 479.261L351.723 332.245C351.936 331.851 352.338 331.606 352.78 331.589L519.325 326.298C519.767 326.281 520.193 326.527 520.422 326.887L608.057 468.603C608.294 468.98 608.303 469.455 608.098 469.848L529.187 616.864C528.974 617.257 528.573 617.503 528.131 617.52L361.586 622.811C361.176 622.828 360.791 622.639 360.554 622.312L360.546 622.32ZM275.336 479.809L362.217 620.313L527.328 615.062L605.558 469.316L518.678 328.821L353.566 334.063L275.336 479.809Z" fill="#06385F" fill-opacity="0.3"/>
<path d="M342.2 623.795C342.159 623.737 342.118 623.672 342.086 623.606L262.348 465.286C262.151 464.893 262.176 464.418 262.422 464.049L359.673 315.567C359.919 315.198 360.337 314.985 360.779 315.01L537.768 324.84C538.21 324.864 538.604 325.118 538.808 325.52L618.546 483.84C618.743 484.233 618.718 484.708 618.472 485.077L521.221 633.559C520.975 633.928 520.557 634.141 520.115 634.116L343.126 624.286C342.757 624.262 342.421 624.081 342.2 623.786V623.795ZM264.895 464.811L343.986 621.845L519.542 631.601L616.007 484.315L536.916 327.281L361.361 317.525L264.887 464.811H264.895Z" fill="#06385F" fill-opacity="0.3"/>
<path d="M322.615 623.654C322.549 623.564 322.5 623.474 322.459 623.367L252.633 448.189C252.47 447.779 252.535 447.312 252.814 446.96L369.651 298.617C369.922 298.265 370.364 298.093 370.806 298.158L557.462 324.986C557.904 325.051 558.273 325.346 558.437 325.756L628.262 500.935C628.426 501.344 628.361 501.811 628.082 502.164L511.244 650.506C510.974 650.859 510.532 651.031 510.089 650.965L323.434 624.137C323.106 624.088 322.811 623.908 322.615 623.654ZM255.206 447.943L324.499 621.786L509.737 648.409L625.69 501.189L556.397 327.345L371.159 300.722L255.206 447.943Z" fill="#06385F" fill-opacity="0.3"/>
<path d="M301.875 621.69C301.793 621.575 301.719 621.444 301.678 621.305L243.927 429.185C243.804 428.759 243.911 428.301 244.214 427.981L381.793 281.604C382.096 281.285 382.546 281.146 382.981 281.244L578.311 326.986C578.745 327.084 579.089 327.412 579.22 327.838L636.971 519.957C637.094 520.383 636.988 520.842 636.685 521.161L499.106 667.538C498.802 667.858 498.352 667.997 497.918 667.899L302.587 622.157C302.301 622.091 302.047 621.919 301.875 621.69ZM246.516 429.153L303.857 619.904L497.787 665.318L634.383 519.982L577.041 329.231L383.112 283.816L246.516 429.153Z" fill="#06385F" fill-opacity="0.3"/>
<path d="M280.086 617.683C279.979 617.544 279.906 617.372 279.865 617.192L236.473 408.23C236.383 407.796 236.531 407.346 236.858 407.051L396.227 264.68C396.555 264.385 397.022 264.286 397.44 264.426L600.208 331.016C600.626 331.155 600.945 331.507 601.035 331.941L644.426 540.903C644.517 541.337 644.369 541.787 644.042 542.082L484.673 684.453C484.345 684.748 483.878 684.846 483.46 684.707L280.692 618.117C280.446 618.035 280.233 617.88 280.086 617.683ZM239.045 408.427L282.15 615.979L483.55 682.119L641.854 540.698L598.75 333.145L397.349 267.006L239.045 408.427Z" fill="#06385F" fill-opacity="0.3"/>
<path d="M257.352 611.418C257.221 611.246 257.139 611.041 257.115 610.82L230.5 385.345C230.451 384.902 230.631 384.468 230.992 384.206L413.092 248.093C413.445 247.831 413.92 247.774 414.329 247.946L623.045 337.317C623.454 337.497 623.741 337.874 623.79 338.316L650.405 563.792C650.454 564.234 650.266 564.668 649.913 564.931L467.813 701.043C467.46 701.305 466.985 701.363 466.576 701.191L257.86 611.82C257.656 611.729 257.483 611.59 257.352 611.418ZM233.048 385.762L259.49 609.813L466.887 698.619L647.841 563.366L621.398 339.316L414.002 250.51L233.048 385.762Z" fill="#06385F" fill-opacity="0.3"/>
<path d="M233.844 602.666C233.697 602.461 233.607 602.216 233.598 601.962L226.3 360.537C226.283 360.095 226.513 359.677 226.889 359.447L432.5 232.083C432.877 231.846 433.352 231.838 433.745 232.042L646.647 346.103C647.04 346.316 647.286 346.718 647.302 347.16L654.601 588.585C654.617 589.027 654.388 589.445 654.011 589.682L448.4 717.046C448.023 717.284 447.548 717.292 447.155 717.087L234.254 603.027C234.09 602.936 233.951 602.822 233.844 602.674V602.666ZM228.806 361.176L236.064 601.167L447.704 714.548L652.094 587.938L644.836 347.946L433.197 234.565L228.806 361.176Z" fill="#06385F" fill-opacity="0.3"/>
<path d="M209.744 591.225C209.572 590.995 209.482 590.709 209.498 590.414L224.145 333.875C224.169 333.433 224.431 333.04 224.825 332.835L454.535 216.923C454.929 216.726 455.404 216.751 455.772 216.988L670.828 357.606C671.197 357.852 671.418 358.27 671.385 358.721L656.739 615.259C656.714 615.701 656.452 616.095 656.059 616.299L426.348 732.211C425.955 732.408 425.48 732.383 425.111 732.146L210.055 591.528C209.932 591.446 209.826 591.348 209.736 591.233L209.744 591.225ZM226.586 334.735L212.021 589.84L425.881 729.68L654.306 614.415L668.87 359.31L455.01 219.47L226.586 334.735Z" fill="#06385F" fill-opacity="0.3"/>
<path d="M185.265 576.855C185.069 576.593 184.987 576.265 185.028 575.929L224.34 305.416C224.405 304.973 224.7 304.605 225.11 304.441L479.297 202.897C479.707 202.733 480.174 202.799 480.526 203.077L695.401 372.047C695.746 372.317 695.926 372.76 695.86 373.202L656.548 643.715C656.483 644.158 656.188 644.526 655.778 644.69L401.591 746.234C401.181 746.398 400.714 746.332 400.362 746.054L185.487 577.084C185.396 577.019 185.323 576.937 185.257 576.855H185.265ZM226.699 306.489L187.592 575.577L401.337 743.662L654.189 642.65L693.296 373.562L479.551 205.477L226.699 306.489Z" fill="#06385F" fill-opacity="0.3"/>
<path d="M160.659 559.359C160.438 559.064 160.356 558.695 160.446 558.327L227.192 275.288C227.29 274.854 227.618 274.51 228.044 274.387L506.839 190.341C507.265 190.21 507.724 190.324 508.051 190.627L720.109 389.619C720.437 389.922 720.568 390.381 720.469 390.807L653.724 673.846C653.625 674.28 653.298 674.624 652.872 674.747L374.077 758.793C373.651 758.924 373.192 758.81 372.872 758.506L160.815 559.514C160.757 559.465 160.716 559.408 160.667 559.351L160.659 559.359ZM229.445 276.558L163.035 558.204L374.044 756.213L651.471 672.584L717.881 390.938L506.872 192.929L229.445 276.558Z" fill="#06385F" fill-opacity="0.3"/>
<path d="M136.198 538.527C135.952 538.208 135.886 537.782 136.017 537.397L232.99 243.627C233.13 243.21 233.482 242.89 233.916 242.8L537.171 179.577C537.606 179.487 538.056 179.634 538.351 179.962L744.634 410.508C744.928 410.836 745.027 411.303 744.888 411.729L647.915 705.498C647.775 705.924 647.423 706.235 646.989 706.325L343.733 769.549C343.299 769.639 342.849 769.491 342.554 769.164L136.271 538.609C136.271 538.609 136.222 538.552 136.206 538.527H136.198ZM235.12 245.085L138.598 537.495L343.922 766.976L645.777 704.048L742.299 411.638L536.975 182.157L235.12 245.085Z" fill="#06385F" fill-opacity="0.3"/>
<path d="M112.205 514.191C111.942 513.838 111.885 513.363 112.057 512.954L242.067 210.616C242.239 210.206 242.624 209.927 243.058 209.87L570.307 170.984C570.749 170.935 571.184 171.124 571.446 171.476L768.685 434.936C768.947 435.297 769.004 435.764 768.832 436.173L638.822 738.511C638.65 738.921 638.265 739.199 637.831 739.257L310.582 778.142C310.14 778.192 309.706 778.011 309.443 777.651L112.205 514.191ZM244.066 212.254L114.621 513.273L311 775.587L636.823 736.873L766.268 435.854L569.889 173.54L244.066 212.254Z" fill="#06385F" fill-opacity="0.3"/>
<path d="M273.638 783.67C273.638 783.67 273.597 783.613 273.581 783.58L88.9818 486.083C88.7442 485.707 88.736 485.231 88.9408 484.838L254.757 176.479C254.97 176.086 255.371 175.84 255.813 175.824L606.228 164.962C606.671 164.945 607.08 165.167 607.326 165.552L791.925 463.048C792.163 463.425 792.171 463.9 791.966 464.293L626.15 772.652C625.937 773.046 625.536 773.291 625.094 773.308L274.679 784.17C274.269 784.178 273.884 783.998 273.647 783.67H273.638ZM91.4721 485.387L275.318 781.663L624.299 770.842L789.435 463.745L605.589 167.468L256.608 178.29L91.4721 485.387Z" fill="#06385F" fill-opacity="0.3"/>
<path d="M235.136 786.734C235.095 786.677 235.054 786.619 235.021 786.554L66.9691 454.152C66.7643 453.759 66.7971 453.284 67.0347 452.907L271.359 141.485C271.605 141.116 272.023 140.903 272.465 140.928L644.834 161.907C645.276 161.931 645.678 162.193 645.874 162.586L813.926 494.98C814.131 495.373 814.098 495.848 813.861 496.225L609.544 807.647C609.298 808.016 608.881 808.229 608.438 808.204L236.07 787.226C235.701 787.201 235.365 787.021 235.144 786.726L235.136 786.734ZM69.5086 453.669L236.913 784.784L607.857 805.681L811.387 495.463L643.982 164.348L273.039 143.451L69.5086 453.669Z" fill="#06385F" fill-opacity="0.3"/>
<path d="M194.046 786.406C193.98 786.324 193.931 786.226 193.89 786.128L46.6042 418.273C46.4403 417.863 46.5059 417.388 46.7844 417.044L292.19 105.949C292.469 105.597 292.903 105.425 293.345 105.49L686.037 162.25C686.48 162.316 686.848 162.611 687.012 163.02L834.29 530.867C834.454 531.277 834.388 531.752 834.11 532.096L588.696 843.191C588.426 843.543 587.983 843.715 587.541 843.65L194.849 786.889C194.521 786.84 194.226 786.668 194.03 786.406H194.046ZM49.1763 418.011L195.922 784.53L587.189 841.077L831.71 531.113L684.964 164.593L293.698 108.046L49.1763 418.011Z" fill="#06385F" fill-opacity="0.3"/>
<path d="M150.532 782.245C150.451 782.131 150.377 782 150.336 781.86L28.3538 378.364C28.2227 377.938 28.3292 377.479 28.6405 377.151L317.569 70.2176C317.872 69.8982 318.322 69.7589 318.757 69.8572L729.659 166.412C730.093 166.519 730.437 166.838 730.56 167.264L852.542 570.761C852.673 571.187 852.558 571.646 852.255 571.974L563.327 878.907C563.024 879.227 562.573 879.366 562.139 879.268L151.237 782.712C150.95 782.647 150.696 782.475 150.524 782.245H150.532ZM30.9423 378.331L152.507 780.451L562.016 876.679L849.953 570.786L728.389 168.665L318.888 72.4458L30.9423 378.331Z" fill="#06385F" fill-opacity="0.3"/>
<path d="M104.802 773.808C104.695 773.669 104.622 773.497 104.581 773.317L12.7194 334.391C12.6293 333.957 12.7767 333.506 13.1044 333.211L347.767 34.7069C348.094 34.412 348.561 34.3137 348.979 34.4529L775.495 174.891C775.912 175.03 776.232 175.382 776.322 175.817L868.183 614.742C868.273 615.177 868.126 615.627 867.798 615.922L533.144 914.418C532.816 914.713 532.35 914.811 531.932 914.672L105.408 774.242C105.162 774.16 104.949 774.005 104.802 773.808ZM15.2998 334.587L106.866 772.113L532.022 912.092L865.603 614.546L774.036 177.021L348.889 37.0415L15.2998 334.587Z" fill="#06385F" fill-opacity="0.3"/>
<path d="M57.1161 760.628C56.9851 760.456 56.9031 760.251 56.8786 760.03L0.224999 286.347C0.167657 285.904 0.356065 285.47 0.716499 285.2L383.054 -0.115777C383.407 -0.377911 383.882 -0.435252 384.283 -0.263227L823.274 188.112C823.684 188.284 823.963 188.669 824.02 189.104L880.674 662.787C880.731 663.229 880.542 663.663 880.182 663.933L497.844 949.249C497.492 949.511 497.017 949.569 496.607 949.397L57.624 761.021C57.4192 760.931 57.2472 760.792 57.1161 760.62V760.628ZM2.7808 286.756L59.2623 759.022L496.935 946.825L878.126 662.369L821.644 190.111L383.964 2.30896L2.7808 286.756Z" fill="#06385F" fill-opacity="0.3"/>
</g>
</mask>
<g mask="url(#mask1_1_73)">
<rect x="0.214844" y="-0.361328" width="880.468" height="949.857" fill="white" fill-opacity="0.3"/>
</g>
</g>
</svg>
