<svg width="252" height="1425" viewBox="0 0 252 1425" fill="none" xmlns="http://www.w3.org/2000/svg">
<mask id="mask0_1_110" style="mask-type:alpha" maskUnits="userSpaceOnUse" x="0" y="0" width="252" height="1425">
<path d="M0 0H252V1425H0V0Z" fill="#D9D9D9"/>
</mask>
<g mask="url(#mask0_1_110)">
<mask id="mask1_1_110" style="mask-type:alpha" maskUnits="userSpaceOnUse" x="0" y="0" width="1321" height="1425">
<g style="mix-blend-mode:multiply" opacity="0.75">
<path d="M240.569 839.238C240.237 838.796 240.115 838.243 240.25 837.69L340.327 413.306C340.475 412.655 340.966 412.139 341.605 411.955L759.627 285.937C760.265 285.74 760.953 285.912 761.445 286.366L1079.4 584.733C1079.89 585.187 1080.09 585.875 1079.94 586.513L979.864 1010.9C979.717 1011.55 979.225 1012.06 978.587 1012.25L560.565 1138.27C559.926 1138.46 559.238 1138.29 558.759 1137.84L240.802 839.471C240.716 839.398 240.655 839.312 240.581 839.226L240.569 839.238ZM343.705 415.21L244.131 837.506L560.515 1134.4L976.486 1009.01L1076.06 586.71L759.676 289.818L343.705 415.21Z" fill="#06385F" fill-opacity="0.3"/>
<path d="M203.89 808.003C203.522 807.524 203.423 806.885 203.62 806.308L349.02 365.834C349.229 365.207 349.757 364.728 350.408 364.593L805.105 269.797C805.756 269.662 806.432 269.883 806.874 270.374L1116.17 616.052C1116.61 616.544 1116.76 617.244 1116.55 617.882L971.152 1058.36C970.943 1059 970.415 1059.46 969.764 1059.6L515.067 1154.39C514.416 1154.53 513.74 1154.31 513.298 1153.82L204.001 808.126C204.001 808.126 203.927 808.04 203.902 808.003H203.89ZM352.213 368.02L207.489 806.455L515.349 1150.54L967.947 1056.18L1112.67 617.747L804.811 273.666L352.213 368.02Z" fill="#06385F" fill-opacity="0.3"/>
<path d="M167.914 771.512C167.521 770.984 167.435 770.271 167.693 769.657L362.629 316.335C362.887 315.721 363.464 315.303 364.115 315.218L854.788 256.913C855.451 256.839 856.102 257.121 856.495 257.649L1152.23 652.679C1152.63 653.219 1152.71 653.919 1152.45 654.533L957.518 1107.86C957.261 1108.47 956.683 1108.89 956.032 1108.97L465.359 1167.28C464.696 1167.35 464.045 1167.08 463.652 1166.54L167.914 771.512ZM365.626 318.792L171.538 770.136L465.986 1163.45L954.522 1105.4L1148.61 654.054L854.161 260.745L365.626 318.792Z" fill="#06385F" fill-opacity="0.3"/>
<path d="M409.969 1175.57C409.969 1175.57 409.908 1175.48 409.883 1175.43L133.097 729.37C132.741 728.805 132.729 728.092 133.036 727.503L381.658 265.153C381.977 264.564 382.579 264.195 383.242 264.171L908.65 247.884C909.313 247.859 909.928 248.191 910.296 248.768L1187.08 694.831C1187.44 695.396 1187.45 696.109 1187.14 696.698L938.521 1159.05C938.202 1159.64 937.6 1160.01 936.937 1160.03L411.529 1176.32C410.915 1176.33 410.337 1176.06 409.981 1175.57H409.969ZM136.831 728.326L412.487 1172.56L935.745 1156.33L1183.35 695.875L907.692 251.642L384.434 267.868L136.831 728.326Z" fill="#06385F" fill-opacity="0.3"/>
<path d="M352.238 1180.16C352.177 1180.07 352.115 1179.99 352.066 1179.89L100.091 681.492C99.784 680.902 99.8331 680.19 100.189 679.625L406.551 212.681C406.92 212.129 407.546 211.809 408.209 211.846L966.534 243.302C967.198 243.339 967.799 243.732 968.094 244.321L1220.07 742.708C1220.38 743.297 1220.33 744.01 1219.97 744.574L913.621 1211.52C913.253 1212.07 912.627 1212.39 911.963 1212.35L353.638 1180.9C353.086 1180.86 352.582 1180.59 352.25 1180.15L352.238 1180.16ZM103.899 680.767L354.904 1177.24L911.091 1208.57L1216.26 743.432L965.257 246.962L409.069 215.629L103.899 680.767Z" fill="#06385F" fill-opacity="0.3"/>
<path d="M290.63 1179.67C290.531 1179.55 290.458 1179.4 290.396 1179.25L69.5573 627.695C69.3117 627.081 69.4099 626.369 69.8275 625.853L437.786 159.401C438.204 158.873 438.855 158.615 439.518 158.713L1028.32 243.818C1028.98 243.917 1029.53 244.359 1029.78 244.973L1250.6 796.518C1250.85 797.132 1250.75 797.844 1250.33 798.36L882.363 1264.81C881.958 1265.34 881.294 1265.6 880.631 1265.5L291.833 1180.39C291.342 1180.32 290.9 1180.06 290.605 1179.67H290.63ZM73.414 627.302L293.442 1176.86L880.103 1261.64L1246.74 796.886L1026.71 247.331L440.046 162.545L73.414 627.302Z" fill="#06385F" fill-opacity="0.3"/>
<path d="M225.386 1173.43C225.263 1173.26 225.153 1173.06 225.091 1172.85L42.1927 567.855C41.9962 567.216 42.1558 566.529 42.6226 566.037L475.838 105.825C476.293 105.346 476.968 105.137 477.619 105.284L1093.72 250.058C1094.37 250.218 1094.89 250.697 1095.07 251.335L1277.97 856.334C1278.17 856.973 1277.99 857.66 1277.54 858.152L844.325 1318.36C843.87 1318.84 843.195 1319.05 842.544 1318.9L226.442 1174.13C226.012 1174.03 225.632 1173.77 225.374 1173.43H225.386ZM46.0739 567.806L228.346 1170.74L842.36 1315.02L1274.09 856.371L1091.82 253.436L477.816 109.166L46.0739 567.806Z" fill="#06385F" fill-opacity="0.3"/>
<path d="M156.815 1160.78C156.655 1160.57 156.545 1160.31 156.483 1160.04L18.7475 501.923C18.6124 501.272 18.8335 500.597 19.3248 500.154L521.113 52.5806C521.605 52.1384 522.305 51.9911 522.931 52.1999L1162.44 262.771C1163.07 262.98 1163.55 263.508 1163.68 264.159L1301.42 922.279C1301.55 922.93 1301.33 923.605 1300.84 924.047L799.066 1371.61C798.575 1372.05 797.875 1372.2 797.248 1371.99L157.724 1161.43C157.355 1161.31 157.036 1161.07 156.815 1160.78ZM22.6165 502.218L159.91 1158.24L797.383 1368.12L1297.55 921.984L1160.26 265.964L522.796 56.0811L22.6165 502.218Z" fill="#06385F" fill-opacity="0.3"/>
<path d="M85.3171 1141.02C85.1206 1140.76 84.9977 1140.45 84.9609 1140.12L0.0152264 429.887C-0.070751 429.223 0.211746 428.572 0.752175 428.167L574.025 0.368176C574.553 -0.0248638 575.265 -0.110841 575.867 0.147091L1234.09 282.595C1234.7 282.853 1235.12 283.43 1235.2 284.081L1320.15 994.316C1320.23 994.979 1319.95 995.63 1319.41 996.036L746.139 1423.83C745.611 1424.23 744.899 1424.31 744.285 1424.06L86.0786 1141.61C85.7715 1141.47 85.5136 1141.26 85.3171 1141.01V1141.02ZM3.84736 430.501L88.5351 1138.61L744.776 1420.2L1316.33 993.69L1231.64 285.592L575.388 4.00379L3.84736 430.501Z" fill="#06385F" fill-opacity="0.3"/>
</g>
</mask>
<g mask="url(#mask1_1_110)">
<rect y="-0.000427246" width="1320.16" height="1424.2" fill="#06385F" fill-opacity="0.3"/>
</g>
</g>
</svg>
