<svg width="678" height="266" viewBox="0 0 678 266" fill="none" xmlns="http://www.w3.org/2000/svg">
<mask id="mask0_1_33" style="mask-type:alpha" maskUnits="userSpaceOnUse" x="0" y="0" width="678" height="266">
<path d="M677.327 0.467712H0.671387V265.425H677.327V0.467712Z" fill="white" fill-opacity="0.4"/>
</mask>
<g mask="url(#mask0_1_33)">
<mask id="mask1_1_33" style="mask-type:alpha" maskUnits="userSpaceOnUse" x="0" y="0" width="678" height="731">
<g style="mix-blend-mode:multiply" opacity="0.75">
<path d="M245.421 403.193C245.27 402.992 245.207 402.74 245.238 402.488L259.56 303.404C259.611 303.064 259.831 302.781 260.152 302.655L352.972 265.493C353.287 265.367 353.652 265.417 353.917 265.631L432.414 327.553C432.679 327.767 432.817 328.101 432.767 328.441L418.445 427.525C418.394 427.865 418.174 428.148 417.853 428.274L325.033 465.436C324.718 465.562 324.353 465.512 324.089 465.298L245.591 403.376C245.528 403.325 245.465 403.262 245.421 403.199V403.193ZM261.373 304.216L247.209 402.211L324.838 463.453L416.632 426.7L430.797 328.706L353.167 267.463L261.373 304.216Z" fill="white" fill-opacity="0.3"/>
<path d="M236.424 396.81C236.254 396.584 236.191 396.3 236.26 396.017L260.624 292.337C260.699 292.004 260.951 291.739 261.279 291.638L363.088 260.86C363.416 260.759 363.768 260.847 364.02 261.08L441.467 333.982C441.712 334.215 441.819 334.561 441.744 334.894L417.38 438.574C417.305 438.908 417.053 439.172 416.726 439.273L314.916 470.051C314.588 470.152 314.236 470.064 313.984 469.831L236.537 396.93C236.5 396.892 236.462 396.848 236.424 396.804V396.81ZM262.355 293.313L238.243 395.922L314.891 468.068L415.643 437.611L439.754 335.001L363.107 262.856L262.349 293.313H262.355Z" fill="white" fill-opacity="0.3"/>
<path d="M227.487 389.204C227.305 388.958 227.248 388.631 227.342 388.335L262.773 280.715C262.88 280.393 263.151 280.148 263.485 280.079L374.234 256.899C374.568 256.83 374.914 256.943 375.141 257.201L450.459 341.642C450.68 341.894 450.762 342.253 450.655 342.574L415.224 450.194C415.117 450.515 414.846 450.761 414.512 450.83L303.763 474.01C303.429 474.079 303.083 473.966 302.856 473.708L227.538 389.267C227.538 389.267 227.5 389.223 227.487 389.204ZM264.423 281.835L229.332 388.404L303.914 472.02L413.587 449.067L448.678 342.498L374.096 258.882L264.423 281.835Z" fill="white" fill-opacity="0.3"/>
<path d="M290.705 476.8L218.71 380.328C218.509 380.057 218.464 379.692 218.597 379.378L266.127 268.609C266.259 268.294 266.555 268.08 266.889 268.036L386.408 253.739C386.748 253.702 387.082 253.84 387.283 254.117L459.272 350.588C459.473 350.859 459.517 351.224 459.385 351.539L411.854 462.307C411.722 462.622 411.426 462.836 411.092 462.88L291.573 477.177C291.233 477.215 290.9 477.077 290.698 476.8H290.705ZM220.573 379.623L291.907 475.213L410.331 461.048L457.427 351.294L386.093 255.704L267.67 269.868L220.573 379.623Z" fill="white" fill-opacity="0.3"/>
<path d="M277.594 479.009C277.594 479.009 277.563 478.965 277.55 478.94L210.201 370.022C210.025 369.733 210.013 369.367 210.17 369.065L270.814 256.081C270.978 255.779 271.286 255.59 271.626 255.577L399.619 251.51C399.959 251.498 400.286 251.687 400.462 251.964L467.811 360.875C467.994 361.164 468 361.53 467.843 361.832L407.199 474.816C407.035 475.118 406.726 475.307 406.386 475.32L278.394 479.387C278.079 479.399 277.783 479.254 277.6 479.003L277.594 479.009ZM212.109 369.487L278.878 477.466L405.769 473.431L465.891 361.423L399.121 253.449L272.23 257.478L212.109 369.487Z" fill="white" fill-opacity="0.3"/>
<path d="M263.493 480.142C263.462 480.098 263.43 480.048 263.405 479.997L202.125 358.325C201.974 358.023 201.993 357.658 202.182 357.375L276.921 243.264C277.11 242.98 277.431 242.817 277.771 242.835L413.791 250.39C414.131 250.409 414.433 250.604 414.59 250.913L475.87 372.585C476.021 372.887 476.002 373.252 475.813 373.535L401.074 487.646C400.885 487.93 400.564 488.093 400.224 488.074L264.205 480.52C263.921 480.501 263.663 480.363 263.493 480.136V480.142ZM204.083 357.96L264.866 478.644L399.783 486.142L473.918 372.95L413.136 252.266L278.218 244.768L204.077 357.96H204.083Z" fill="white" fill-opacity="0.3"/>
<path d="M248.441 480.034C248.391 479.965 248.353 479.895 248.321 479.814L194.659 345.186C194.533 344.871 194.584 344.512 194.798 344.241L284.589 230.237C284.797 229.966 285.137 229.834 285.477 229.884L428.925 250.502C429.265 250.552 429.548 250.779 429.674 251.094L483.337 385.722C483.463 386.037 483.412 386.396 483.198 386.666L393.406 500.67C393.199 500.941 392.859 501.073 392.519 501.023L249.071 480.405C248.819 480.368 248.592 480.229 248.441 480.034ZM196.636 344.997L249.889 478.599L392.248 499.059L481.36 385.917L428.107 252.315L285.748 231.855L196.636 344.997Z" fill="white" fill-opacity="0.3"/>
<path d="M232.502 478.524C232.439 478.436 232.382 478.336 232.351 478.229L187.968 330.582C187.873 330.254 187.955 329.902 188.188 329.656L293.92 217.163C294.153 216.917 294.499 216.81 294.833 216.886L444.948 252.04C445.281 252.115 445.546 252.367 445.647 252.694L490.029 400.341C490.124 400.669 490.042 401.021 489.809 401.267L384.077 513.76C383.844 514.006 383.498 514.113 383.164 514.037L233.049 478.883C232.829 478.833 232.634 478.701 232.502 478.524ZM189.957 330.556L234.025 477.152L383.064 512.054L488.04 400.36L443.972 253.765L294.934 218.863L189.957 330.556Z" fill="white" fill-opacity="0.3"/>
<path d="M215.756 475.447C215.674 475.34 215.618 475.207 215.586 475.069L182.239 314.478C182.17 314.145 182.283 313.799 182.535 313.572L305.013 204.157C305.265 203.93 305.624 203.855 305.945 203.962L461.776 255.138C462.097 255.245 462.343 255.515 462.412 255.849L495.759 416.439C495.828 416.773 495.715 417.119 495.463 417.346L372.985 526.761C372.733 526.988 372.374 527.063 372.053 526.956L216.222 475.78C216.033 475.717 215.87 475.598 215.756 475.447ZM184.216 314.63L217.343 474.137L372.123 524.967L493.782 416.282L460.655 256.774L305.876 205.945L184.216 314.63Z" fill="white" fill-opacity="0.3"/>
<path d="M198.287 470.631C198.186 470.499 198.123 470.341 198.104 470.171L177.65 296.889C177.613 296.549 177.751 296.216 178.028 296.014L317.976 191.409C318.247 191.208 318.612 191.164 318.927 191.296L479.328 259.979C479.643 260.118 479.863 260.407 479.901 260.747L500.355 434.029C500.393 434.369 500.248 434.703 499.977 434.904L360.03 539.51C359.759 539.711 359.394 539.755 359.079 539.623L198.677 470.94C198.52 470.87 198.388 470.763 198.287 470.631ZM179.608 297.21L199.93 469.397L359.318 537.646L498.385 433.702L478.063 261.515L318.675 193.266L179.608 297.21Z" fill="white" fill-opacity="0.3"/>
<path d="M180.218 463.904C180.104 463.747 180.035 463.558 180.029 463.363L174.42 277.824C174.407 277.484 174.583 277.163 174.873 276.986L332.889 179.105C333.178 178.922 333.543 178.916 333.846 179.073L497.464 266.731C497.766 266.895 497.955 267.203 497.968 267.543L503.577 453.083C503.59 453.423 503.413 453.744 503.124 453.926L345.108 551.808C344.818 551.99 344.453 551.997 344.151 551.839L180.533 464.181C180.407 464.112 180.3 464.024 180.218 463.911V463.904ZM176.346 278.315L181.924 462.752L344.573 549.888L501.651 452.585L496.073 268.148L333.424 181.012L176.346 278.315Z" fill="white" fill-opacity="0.3"/>
<path d="M161.698 455.112C161.566 454.935 161.496 454.715 161.509 454.488L172.765 257.334C172.784 256.994 172.986 256.692 173.288 256.534L349.825 167.454C350.127 167.303 350.492 167.322 350.775 167.504L516.05 275.572C516.333 275.761 516.503 276.082 516.478 276.428L505.221 473.582C505.202 473.922 505.001 474.225 504.699 474.382L328.162 563.462C327.86 563.614 327.495 563.595 327.211 563.412L161.937 455.344C161.843 455.282 161.761 455.206 161.691 455.118L161.698 455.112ZM174.641 257.995L163.448 454.048L327.803 561.517L503.352 472.934L514.545 276.881L350.19 169.412L174.641 257.995Z" fill="white" fill-opacity="0.3"/>
<path d="M142.886 444.069C142.735 443.867 142.672 443.615 142.703 443.357L172.915 235.463C172.966 235.123 173.192 234.84 173.507 234.714L368.855 156.675C369.169 156.549 369.528 156.6 369.799 156.814L534.935 286.67C535.199 286.878 535.338 287.218 535.287 287.558L505.075 495.452C505.025 495.792 504.799 496.075 504.484 496.201L309.136 574.24C308.821 574.365 308.462 574.315 308.192 574.101L143.056 444.245C142.987 444.195 142.93 444.132 142.88 444.069H142.886ZM174.728 236.288L144.674 443.087L308.941 572.263L503.262 494.634L533.317 287.835L369.05 158.658L174.728 236.288Z" fill="white" fill-opacity="0.3"/>
<path d="M123.975 430.623C123.805 430.397 123.742 430.113 123.811 429.83L175.106 212.31C175.182 211.976 175.433 211.712 175.761 211.617L390.02 147.026C390.347 146.925 390.7 147.014 390.952 147.247L553.922 300.175C554.174 300.408 554.275 300.761 554.199 301.088L502.904 518.609C502.828 518.942 502.576 519.207 502.249 519.301L287.99 583.892C287.662 583.993 287.31 583.905 287.064 583.672L124.094 430.743C124.05 430.705 124.019 430.661 123.981 430.617L123.975 430.623ZM176.837 213.286L125.8 429.736L287.965 581.909L501.172 517.639L552.21 301.189L390.045 149.016L176.837 213.286Z" fill="white" fill-opacity="0.3"/>
<path d="M105.174 414.613C104.986 414.368 104.935 414.04 105.036 413.744L179.561 187.977C179.668 187.656 179.939 187.411 180.273 187.341L413.33 138.753C413.664 138.684 414.01 138.797 414.237 139.049L572.768 316.228C572.995 316.48 573.071 316.839 572.964 317.166L498.438 542.933C498.331 543.261 498.06 543.5 497.727 543.569L264.669 592.157C264.336 592.227 263.99 592.113 263.763 591.862L105.231 414.676C105.231 414.676 105.193 414.632 105.181 414.613H105.174ZM181.198 189.098L107.019 413.82L264.814 590.181L496.795 541.819L570.974 317.097L413.179 140.736L181.198 189.098Z" fill="white" fill-opacity="0.3"/>
<path d="M86.7355 395.909C86.5341 395.638 86.49 395.273 86.6222 394.958L186.537 162.606C186.669 162.291 186.965 162.077 187.299 162.033L438.796 132.148C439.136 132.111 439.469 132.255 439.671 132.526L591.252 335C591.454 335.277 591.498 335.636 591.366 335.951L491.451 568.303C491.319 568.618 491.023 568.832 490.689 568.876L239.192 598.76C238.852 598.798 238.519 598.66 238.317 598.383L86.7355 395.909ZM188.073 163.865L88.5927 395.203L239.513 596.796L489.915 567.044L589.395 335.705L438.475 134.112L188.073 163.865Z" fill="white" fill-opacity="0.3"/>
<path d="M210.804 603.01C210.804 603.01 210.773 602.966 210.76 602.941L68.8925 374.309C68.7099 374.02 68.7036 373.654 68.861 373.352L196.293 136.373C196.457 136.071 196.766 135.882 197.105 135.869L466.406 127.521C466.746 127.509 467.06 127.679 467.249 127.975L609.117 356.606C609.3 356.896 609.306 357.261 609.149 357.563L481.716 594.543C481.553 594.845 481.244 595.034 480.904 595.046L211.604 603.394C211.289 603.4 210.993 603.262 210.811 603.01H210.804ZM70.8063 373.774L212.095 601.468L480.293 593.151L607.203 357.141L465.915 129.448L197.716 137.764L70.8063 373.774Z" fill="white" fill-opacity="0.3"/>
<path d="M181.214 605.365C181.183 605.321 181.151 605.277 181.126 605.227L51.9752 349.77C51.8178 349.468 51.843 349.103 52.0256 348.813L209.053 109.479C209.242 109.196 209.563 109.032 209.903 109.051L496.075 125.174C496.415 125.193 496.723 125.394 496.874 125.696L626.025 381.146C626.183 381.449 626.158 381.814 625.975 382.103L468.954 621.437C468.765 621.721 468.444 621.884 468.104 621.865L181.932 605.743C181.649 605.724 181.391 605.585 181.221 605.359L181.214 605.365ZM53.9268 349.399L182.581 603.867L467.657 619.926L624.074 381.518L495.42 127.05L210.343 110.99L53.9268 349.399Z" fill="white" fill-opacity="0.3"/>
<path d="M149.633 605.113C149.583 605.05 149.545 604.974 149.514 604.899L36.3216 322.195C36.1957 321.881 36.246 321.515 36.4601 321.251L225.059 82.1689C225.273 81.8982 225.607 81.766 225.947 81.8164L527.738 125.438C528.078 125.488 528.361 125.715 528.487 126.029L641.673 408.726C641.799 409.041 641.748 409.406 641.534 409.671L452.929 648.753C452.721 649.023 452.381 649.156 452.041 649.105L150.25 605.484C149.998 605.446 149.772 605.314 149.621 605.113H149.633ZM38.2983 321.994L151.075 603.671L451.771 647.128L639.69 408.915L526.913 127.238L226.217 83.7806L38.2983 321.994Z" fill="white" fill-opacity="0.3"/>
<path d="M116.194 601.915C116.131 601.827 116.074 601.726 116.043 601.619L22.2975 291.525C22.1968 291.197 22.2786 290.845 22.5179 290.593L244.565 54.7089C244.797 54.4634 245.144 54.3564 245.477 54.4319L561.263 128.636C561.597 128.718 561.861 128.964 561.956 129.291L655.701 439.386C655.802 439.713 655.714 440.066 655.481 440.318L433.434 676.202C433.201 676.447 432.855 676.554 432.521 676.479L116.736 602.274C116.515 602.224 116.32 602.092 116.188 601.915H116.194ZM24.2869 291.499L117.711 600.537L432.427 674.489L653.712 439.405L560.287 130.368L245.578 56.4213L24.2869 291.499Z" fill="white" fill-opacity="0.3"/>
<path d="M81.0479 595.431C80.966 595.324 80.9094 595.191 80.8779 595.053L10.2808 257.73C10.2115 257.397 10.3249 257.05 10.5767 256.824L267.771 27.4177C268.023 27.1911 268.381 27.1155 268.703 27.2226L596.487 135.152C596.809 135.259 597.054 135.529 597.123 135.863L667.72 473.186C667.79 473.519 667.676 473.866 667.424 474.092L410.237 703.492C409.985 703.718 409.626 703.794 409.305 703.687L81.5137 595.764C81.3249 595.701 81.1612 595.582 81.0479 595.431ZM12.2638 257.881L82.6343 594.127L409.374 701.704L665.737 473.035L595.367 136.788L268.633 29.2119L12.2638 257.881Z" fill="white" fill-opacity="0.3"/>
<path d="M44.4011 585.301C44.3003 585.169 44.2374 585.012 44.2185 584.842L0.679191 220.808C0.635123 220.468 0.779918 220.134 1.05692 219.926L294.891 0.655995C295.161 0.454541 295.526 0.410473 295.835 0.542677L633.208 145.313C633.522 145.445 633.737 145.741 633.781 146.074L677.32 510.109C677.364 510.449 677.219 510.782 676.942 510.99L383.109 730.26C382.838 730.462 382.473 730.506 382.158 730.374L44.7914 585.604C44.634 585.534 44.5018 585.427 44.4011 585.295V585.301ZM2.64337 221.122L46.0505 584.068L382.41 728.397L675.362 509.788L631.955 146.849L295.589 2.51945L2.64337 221.122Z" fill="white" fill-opacity="0.3"/>
</g>
</mask>
<g mask="url(#mask1_1_33)">
<path d="M677.327 0.467712H0.671387V265.425H677.327V0.467712Z" fill="white" fill-opacity="0.62"/>
</g>
</g>
</svg>
