<svg width="293" height="493" viewBox="0 0 293 493" fill="none" xmlns="http://www.w3.org/2000/svg">
<mask id="mask0_2_49" style="mask-type:alpha" maskUnits="userSpaceOnUse" x="0" y="0" width="293" height="493">
<rect width="293" height="493" fill="#D9D9D9"/>
</mask>
<g mask="url(#mask0_2_49)">
<mask id="mask1_2_49" style="mask-type:alpha" maskUnits="userSpaceOnUse" x="-798" y="-684" width="1091" height="1177">
<g style="mix-blend-mode:multiply" opacity="0.75">
<path d="M-451.002 81.9615C-451.134 81.7891 -451.226 81.576 -451.276 81.3529L-505.013 -177.428C-505.124 -177.966 -504.942 -178.524 -504.536 -178.889L-307.171 -355.204C-306.765 -355.569 -306.187 -355.691 -305.669 -355.518L-54.5578 -273.052C-54.0404 -272.88 -53.6448 -272.443 -53.5332 -271.906L0.203215 -13.1247C0.314807 -12.587 0.132232 -12.0291 -0.273556 -11.6639L-197.639 164.651C-198.044 165.016 -198.623 165.138 -199.14 164.965L-450.252 82.4992C-450.556 82.3978 -450.82 82.205 -451.002 81.9615ZM-501.827 -177.185L-448.446 79.8515L-199.028 161.76L-2.98217 -13.3783L-56.3636 -270.414L-305.781 -352.323L-501.827 -177.185Z" fill="black"/>
<path d="M-479.154 74.2011C-479.316 73.9881 -479.418 73.7344 -479.448 73.4605L-512.408 -205.772C-512.469 -206.32 -512.246 -206.858 -511.8 -207.182L-286.283 -375.747C-285.847 -376.071 -285.258 -376.142 -284.751 -375.929L-26.2745 -265.25C-25.7673 -265.027 -25.4122 -264.561 -25.3514 -264.013L7.60874 15.2199C7.6696 15.7677 7.4363 16.3054 7.00008 16.63L-218.516 185.194C-218.953 185.519 -219.541 185.59 -220.048 185.377L-478.525 74.6982C-478.779 74.5866 -478.992 74.4142 -479.154 74.2011ZM-509.253 -205.255L-476.506 72.2127L-219.663 182.191L4.4335 14.6923L-28.3136 -262.775L-285.157 -372.754L-509.253 -205.255Z" fill="black"/>
<path d="M-508.269 63.3641C-508.452 63.1105 -508.563 62.8061 -508.573 62.4916L-517.612 -236.493C-517.633 -237.041 -517.348 -237.558 -516.882 -237.842L-262.25 -395.572C-261.783 -395.866 -261.195 -395.876 -260.708 -395.622L2.95254 -254.368C3.43949 -254.104 3.74382 -253.607 3.76411 -253.059L12.8031 45.9254C12.8234 46.4732 12.5393 46.9905 12.0726 47.2847L-242.559 205.014C-243.026 205.309 -243.614 205.319 -244.101 205.065L-507.762 63.8105C-507.965 63.6989 -508.137 63.5568 -508.269 63.3742V63.3641ZM-514.508 -235.701L-505.52 61.5076L-243.421 201.92L9.69879 45.1239L0.710576 -252.085L-261.388 -392.498L-514.508 -235.701Z" fill="black"/>
<path d="M-538.115 49.1943C-538.328 48.9103 -538.44 48.5552 -538.42 48.19L-520.281 -269.511C-520.25 -270.059 -519.926 -270.546 -519.439 -270.8L-234.961 -414.347C-234.474 -414.591 -233.886 -414.56 -233.429 -414.266L32.8993 -240.122C33.3558 -239.818 33.6297 -239.3 33.5891 -238.743L15.4504 78.9589C15.42 79.5067 15.0953 79.9936 14.6084 80.2472L-269.869 223.795C-270.356 224.038 -270.944 224.008 -271.401 223.714L-537.73 49.5697C-537.882 49.4682 -538.014 49.3465 -538.125 49.2045L-538.115 49.1943ZM-517.258 -268.446L-535.295 47.4799L-270.447 220.66L12.4374 77.914L30.4747 -238.012L-234.373 -411.192L-517.258 -268.446Z" fill="black"/>
<path d="M-568.427 31.3988C-568.671 31.0741 -568.772 30.6683 -568.722 30.2524L-520.037 -304.756C-519.956 -305.304 -519.591 -305.76 -519.084 -305.963L-204.294 -431.717C-203.786 -431.92 -203.208 -431.838 -202.772 -431.493L63.3335 -222.239C63.7596 -221.904 63.9827 -221.356 63.9016 -220.808L15.2171 114.2C15.136 114.748 14.7708 115.204 14.2636 115.407L-300.526 241.161C-301.033 241.363 -301.612 241.282 -302.048 240.937L-568.153 31.6828C-568.265 31.6016 -568.356 31.5002 -568.437 31.3988H-568.427ZM-517.115 -303.427L-565.546 29.8162L-300.841 237.975L12.2955 112.881L60.7263 -220.362L-203.979 -428.521L-517.115 -303.427Z" fill="black"/>
<path d="M-598.9 9.73155C-599.174 9.36634 -599.276 8.90982 -599.164 8.45331L-516.505 -342.066C-516.384 -342.604 -515.978 -343.03 -515.45 -343.182L-170.186 -447.267C-169.658 -447.429 -169.09 -447.287 -168.684 -446.912L93.9314 -200.477C94.3372 -200.101 94.4995 -199.533 94.3778 -199.006L11.7189 151.514C11.5971 152.051 11.1913 152.478 10.6638 152.63L-334.601 256.714C-335.128 256.877 -335.696 256.735 -336.092 256.359L-598.708 9.92424C-598.779 9.86337 -598.829 9.79241 -598.89 9.72139L-598.9 9.73155ZM-513.715 -340.494L-595.958 8.30111L-334.641 253.519L8.92906 149.951L91.1721 -198.843L-170.145 -444.061L-513.715 -340.494Z" fill="black"/>
<path d="M-629.195 -16.0671C-629.499 -16.4627 -629.58 -16.9902 -629.418 -17.467L-509.325 -381.276C-509.153 -381.793 -508.717 -382.189 -508.179 -382.301L-132.622 -460.597C-132.085 -460.709 -131.527 -460.526 -131.162 -460.121L124.302 -174.608C124.667 -174.203 124.789 -173.624 124.617 -173.097L4.52379 190.712C4.35133 191.24 3.9151 191.625 3.37743 191.737L-372.179 270.034C-372.717 270.145 -373.275 269.963 -373.64 269.557L-629.104 -15.9656C-629.104 -15.9656 -629.164 -16.0366 -629.185 -16.0671H-629.195ZM-506.688 -379.47L-626.223 -17.3452L-371.946 266.848L1.87604 188.917L121.411 -173.208L-132.866 -457.402L-506.688 -379.47Z" fill="black"/>
<path d="M-658.909 -46.2065C-659.233 -46.6428 -659.304 -47.2312 -659.091 -47.7384L-498.085 -422.159C-497.872 -422.666 -497.395 -423.011 -496.857 -423.082L-91.5871 -471.239C-91.0392 -471.3 -90.5016 -471.066 -90.1769 -470.63L154.087 -144.356C154.412 -143.91 154.483 -143.332 154.27 -142.825L-6.73682 231.596C-6.94986 232.103 -7.42668 232.448 -7.96435 232.519L-413.235 280.676C-413.783 280.737 -414.32 280.513 -414.645 280.067L-658.909 -46.2065ZM-495.61 -420.13L-655.916 -47.3427L-412.717 277.511L-9.21213 229.567L151.094 -143.22L-92.1044 -468.074L-495.61 -420.13Z" fill="black"/>
<path d="M-458.985 287.522C-458.985 287.522 -459.036 287.451 -459.056 287.411L-687.667 -81.014C-687.961 -81.4807 -687.971 -82.0691 -687.717 -82.556L-482.369 -464.433C-482.105 -464.92 -481.608 -465.224 -481.06 -465.244L-47.1004 -478.696C-46.5526 -478.716 -46.0453 -478.443 -45.741 -477.966L182.87 -109.541C183.164 -109.074 183.174 -108.486 182.92 -107.999L-22.4285 273.878C-22.6923 274.365 -23.1893 274.669 -23.7371 274.689L-457.697 288.141C-458.204 288.151 -458.681 287.928 -458.975 287.522H-458.985ZM-684.583 -81.8763L-456.905 285.037L-24.7212 271.636L179.786 -108.679L-47.8917 -475.592L-480.076 -462.191L-684.583 -81.8763Z" fill="black"/>
<path d="M-506.668 291.316C-506.719 291.245 -506.769 291.174 -506.81 291.093L-714.928 -120.559C-715.182 -121.046 -715.141 -121.634 -714.847 -122.101L-461.808 -507.771C-461.504 -508.228 -460.986 -508.492 -460.439 -508.461L0.708793 -482.481C1.25661 -482.45 1.75372 -482.126 1.99719 -481.639L210.116 -69.9974C210.369 -69.5105 210.329 -68.9221 210.034 -68.4554L-42.9945 317.215C-43.2988 317.672 -43.8163 317.936 -44.3641 317.905L-505.511 291.925C-505.968 291.894 -506.384 291.671 -506.658 291.306L-506.668 291.316ZM-711.783 -121.157L-504.466 288.902L-45.0843 314.781L206.971 -69.3989L-0.346233 -479.458L-459.728 -505.337L-711.783 -121.157Z" fill="black"/>
<path d="M-557.554 290.911C-557.635 290.809 -557.696 290.687 -557.747 290.566L-740.148 -164.992C-740.351 -165.499 -740.27 -166.088 -739.925 -166.514L-436.01 -551.779C-435.665 -552.215 -435.128 -552.428 -434.58 -552.347L51.7365 -482.054C52.2843 -481.973 52.7408 -481.608 52.9437 -481.101L235.335 -25.5532C235.538 -25.046 235.457 -24.4576 235.112 -24.0315L-68.8129 361.234C-69.1477 361.67 -69.6955 361.883 -70.2433 361.802L-556.56 291.509C-556.965 291.448 -557.331 291.235 -557.574 290.911H-557.554ZM-736.963 -165.317L-555.231 288.587L-70.6795 358.616L232.14 -25.2489L50.4075 -479.153L-434.144 -549.182L-736.963 -165.317Z" fill="black"/>
<path d="M-611.442 285.758C-611.544 285.616 -611.635 285.453 -611.686 285.281L-762.75 -214.416C-762.913 -214.944 -762.781 -215.512 -762.395 -215.918L-404.582 -596.029C-404.206 -596.425 -403.648 -596.597 -403.111 -596.476L105.757 -476.9C106.295 -476.768 106.721 -476.373 106.873 -475.845L257.938 23.852C258.1 24.3795 257.958 24.9476 257.583 25.3534L-100.231 405.465C-100.606 405.861 -101.164 406.033 -101.702 405.911L-610.57 286.336C-610.925 286.255 -611.239 286.042 -611.452 285.758H-611.442ZM-759.545 -214.457L-608.997 283.536L-101.854 402.706L254.732 23.8824L104.185 -474.11L-402.948 -593.27L-759.545 -214.457Z" fill="black"/>
<path d="M-668.076 275.308C-668.208 275.136 -668.299 274.923 -668.35 274.7L-782.112 -268.873C-782.224 -269.411 -782.041 -269.969 -781.635 -270.334L-367.184 -640.007C-366.778 -640.372 -366.2 -640.494 -365.683 -640.321L162.521 -466.401C163.038 -466.228 163.434 -465.792 163.546 -465.254L277.308 78.3188C277.42 78.8565 277.237 79.4144 276.831 79.7797L-137.61 449.442C-138.016 449.807 -138.594 449.929 -139.111 449.757L-667.325 275.846C-667.629 275.745 -667.893 275.552 -668.076 275.308ZM-778.917 -268.63L-665.519 273.209L-139 446.561L274.113 78.0754L160.715 -463.763L-365.794 -637.115L-778.917 -268.63Z" fill="black"/>
<path d="M-727.13 258.986C-727.292 258.773 -727.394 258.519 -727.424 258.245L-797.585 -328.372C-797.656 -328.919 -797.423 -329.457 -796.976 -329.792L-323.483 -683.131C-323.047 -683.456 -322.458 -683.527 -321.961 -683.314L221.693 -450.027C222.2 -449.814 222.545 -449.337 222.616 -448.799L292.777 137.818C292.848 138.366 292.614 138.903 292.168 139.238L-181.325 492.578C-181.762 492.902 -182.35 492.973 -182.857 492.76L-726.501 259.473C-726.755 259.361 -726.968 259.189 -727.13 258.976V258.986ZM-794.42 -327.864L-724.472 256.998L-182.451 489.575L289.622 137.3L219.674 -447.551L-322.357 -680.129L-794.42 -327.864Z" fill="black"/>
</g>
</mask>
<g mask="url(#mask1_2_49)">
<rect x="-797.598" y="-683.436" width="1090.39" height="1176.32" fill="white" fill-opacity="0.2"/>
</g>
</g>
</svg>
