<svg width="403" height="400" viewBox="0 0 403 400" fill="none" xmlns="http://www.w3.org/2000/svg">
<mask id="mask0_1_44" style="mask-type:alpha" maskUnits="userSpaceOnUse" x="0" y="0" width="403" height="400">
<path d="M403 0H0V400H403V0Z" fill="#D9D9D9"/>
</mask>
<g mask="url(#mask0_1_44)">
<mask id="mask1_1_44" style="mask-type:alpha" maskUnits="userSpaceOnUse" x="-226" y="0" width="881" height="781">
<g style="mix-blend-mode:multiply" opacity="0.75">
<path d="M150.163 406.272C149.942 406.036 149.868 405.726 149.95 405.431L164.966 352.755C165.064 352.398 165.392 352.116 165.817 352.008L228.893 336.432C229.319 336.324 229.778 336.419 230.106 336.668L278.166 373.767C278.486 374.01 278.625 374.386 278.527 374.742L263.511 427.418C263.413 427.775 263.085 428.057 262.659 428.165L199.584 443.741C199.158 443.849 198.699 443.754 198.379 443.505L150.319 406.406C150.27 406.365 150.221 406.318 150.171 406.272H150.163ZM167.226 353.791L152.539 405.316L199.551 441.608L261.25 426.375L275.938 374.851L228.926 338.558L167.218 353.791H167.226Z" fill="#06385F" fill-opacity="0.3"/>
<path d="M144.632 402.399C144.394 402.136 144.321 401.787 144.443 401.47L166.307 346.789C166.446 346.44 166.798 346.184 167.233 346.109L235.838 334.409C236.272 334.335 236.723 334.457 237.017 334.732L283.759 377.713C284.054 377.989 284.152 378.365 284.013 378.708L262.149 433.389C262.01 433.739 261.658 433.995 261.224 434.068L192.619 445.769C192.184 445.843 191.734 445.722 191.439 445.446L144.697 402.466C144.697 402.466 144.648 402.419 144.632 402.399ZM168.445 347.987L147.032 401.551L192.823 443.65L260.028 432.192L281.441 378.634L235.649 336.536L168.445 348V347.987Z" fill="#06385F" fill-opacity="0.3"/>
<path d="M183.898 446.978L139.212 397.868C138.95 397.579 138.893 397.189 139.065 396.859L168.407 340.577C168.579 340.241 168.964 340.006 169.407 339.965L243.435 332.786C243.877 332.746 244.311 332.893 244.574 333.19L289.259 382.3C289.521 382.589 289.579 382.979 289.407 383.308L260.064 439.591C259.892 439.927 259.507 440.162 259.065 440.202L185.037 447.382C184.594 447.422 184.16 447.274 183.898 446.978ZM141.629 397.122L185.454 445.283L258.057 438.244L286.834 383.046L243.009 334.885L170.406 341.923L141.629 397.122Z" fill="#06385F" fill-opacity="0.3"/>
<path d="M175.788 448.111C175.788 448.111 175.747 448.064 175.731 448.037L133.913 392.589C133.683 392.279 133.667 391.889 133.872 391.566L171.324 334.154C171.537 333.83 171.938 333.629 172.381 333.615L251.643 331.644C252.086 331.631 252.503 331.826 252.733 332.129L294.551 387.576C294.78 387.886 294.797 388.276 294.592 388.599L257.14 446.011C256.927 446.334 256.525 446.536 256.083 446.549L176.82 448.521C176.411 448.535 176.026 448.38 175.788 448.111ZM136.403 392.017L177.468 446.462L255.297 444.531L292.069 388.155L251.012 333.71L173.183 335.641L136.411 392.017H136.403Z" fill="#06385F" fill-opacity="0.3"/>
<path d="M167.07 448.688C167.029 448.641 166.988 448.594 166.955 448.534L128.897 386.586C128.7 386.264 128.725 385.874 128.97 385.57L175.139 327.573C175.384 327.27 175.802 327.089 176.253 327.116L260.479 331.065C260.922 331.085 261.315 331.294 261.52 331.623L299.578 393.57C299.775 393.893 299.75 394.283 299.505 394.586L253.336 452.584C253.091 452.887 252.673 453.068 252.222 453.041L167.996 449.092C167.627 449.072 167.291 448.924 167.07 448.681V448.688ZM131.436 386.196L168.847 447.094L251.641 450.976L297.022 393.967L259.611 333.077L176.818 329.194L131.436 386.203V386.196Z" fill="#06385F" fill-opacity="0.3"/>
<path d="M157.764 448.64C157.698 448.573 157.649 448.492 157.608 448.404L124.268 379.856C124.104 379.52 124.17 379.137 124.448 378.848L179.922 320.903C180.201 320.614 180.635 320.473 181.077 320.526L269.891 331.13C270.334 331.184 270.702 331.42 270.866 331.763L304.206 400.311C304.37 400.647 304.305 401.03 304.026 401.32L248.552 459.263C248.274 459.553 247.84 459.695 247.397 459.64L158.583 449.037C158.255 448.996 157.961 448.849 157.764 448.64ZM126.84 379.648L159.648 447.099L247.045 457.528L301.634 400.506L268.827 333.055L181.43 322.626L126.84 379.648Z" fill="#06385F" fill-opacity="0.3"/>
<path d="M147.903 447.882C147.821 447.787 147.755 447.68 147.706 447.565L120.108 372.383C119.977 372.033 120.092 371.656 120.395 371.388L185.732 314.204C186.035 313.935 186.494 313.827 186.919 313.908L279.846 331.906C280.28 331.994 280.624 332.256 280.747 332.606L308.345 407.788C308.476 408.138 308.361 408.514 308.058 408.783L242.721 465.967C242.418 466.237 241.959 466.344 241.533 466.263L148.607 448.265C148.32 448.211 148.066 448.07 147.894 447.882H147.903ZM122.697 372.356L149.877 446.415L241.41 464.144L305.764 407.822L278.584 333.763L187.051 316.034L122.697 372.356Z" fill="#06385F" fill-opacity="0.3"/>
<path d="M137.548 446.325C137.441 446.211 137.368 446.07 137.327 445.921L116.569 364.14C116.479 363.784 116.626 363.413 116.954 363.171L192.653 307.542C192.981 307.3 193.448 307.219 193.874 307.333L290.322 333.486C290.74 333.601 291.06 333.89 291.15 334.246L311.907 416.028C311.998 416.385 311.85 416.755 311.522 416.997L235.823 472.626C235.496 472.868 235.029 472.949 234.603 472.835L138.154 446.682C137.908 446.615 137.695 446.487 137.548 446.325ZM119.149 364.301L139.612 444.926L234.701 470.709L309.327 415.866L288.864 335.242L193.775 309.459L119.149 364.301Z" fill="#06385F" fill-opacity="0.3"/>
<path d="M126.743 443.884C126.611 443.743 126.53 443.575 126.505 443.394L113.742 355.146C113.693 354.782 113.873 354.426 114.234 354.211L200.73 301.024C201.082 300.802 201.557 300.761 201.967 300.902L301.233 335.963C301.643 336.105 301.921 336.421 301.979 336.777L314.741 425.025C314.79 425.389 314.61 425.745 314.25 425.961L227.746 479.147C227.385 479.369 226.918 479.41 226.509 479.268L127.242 444.208C127.037 444.134 126.865 444.026 126.734 443.884H126.743ZM116.29 355.489L128.889 442.566L226.836 477.162L312.185 424.682L299.587 337.605L201.639 303.008L116.29 355.489Z" fill="#06385F" fill-opacity="0.3"/>
<path d="M115.562 440.479C115.414 440.311 115.324 440.116 115.316 439.9L111.753 345.401C111.736 345.038 111.966 344.695 112.343 344.5L210.02 294.718C210.397 294.523 210.872 294.516 211.265 294.684L312.506 339.401C312.899 339.576 313.145 339.905 313.161 340.268L316.725 434.767C316.741 435.13 316.512 435.473 316.135 435.668L218.457 485.451C218.081 485.646 217.605 485.653 217.212 485.484L115.971 440.768C115.808 440.694 115.668 440.6 115.562 440.479ZM114.251 345.926L117.774 439.248L217.753 483.406L314.21 434.248L310.687 340.927L210.708 296.77L114.251 345.926Z" fill="#06385F" fill-opacity="0.3"/>
<path d="M104.101 436.011C103.929 435.823 103.839 435.587 103.855 435.345L110.744 334.925C110.769 334.562 111.031 334.239 111.424 334.07L220.562 288.749C220.955 288.588 221.43 288.608 221.807 288.81L324.055 343.907C324.424 344.103 324.637 344.452 324.612 344.815L317.723 445.235C317.699 445.598 317.437 445.921 317.043 446.09L207.906 491.405C207.513 491.566 207.038 491.546 206.661 491.344L104.412 436.246C104.289 436.179 104.183 436.099 104.101 436.004V436.011ZM113.186 335.624L106.378 434.867L207.423 489.319L315.274 444.536L322.081 345.293L221.037 290.842L113.186 335.632V335.624Z" fill="#06385F" fill-opacity="0.3"/>
<path d="M92.4705 430.413C92.2739 430.197 92.192 429.929 92.2329 429.659L110.869 323.763C110.935 323.4 111.221 323.097 111.639 322.963L232.417 283.245C232.826 283.111 233.302 283.165 233.646 283.393L335.788 349.573C336.132 349.801 336.312 350.158 336.246 350.522L317.61 456.417C317.545 456.781 317.258 457.083 316.84 457.218L196.062 496.936C195.653 497.069 195.178 497.016 194.834 496.787L92.6917 430.608C92.6098 430.554 92.5278 430.487 92.4705 430.42V430.413ZM113.228 324.631L94.7969 429.363L195.808 494.816L315.251 455.536L333.682 350.804L232.671 285.351L113.228 324.631Z" fill="#06385F" fill-opacity="0.3"/>
<path d="M80.7627 423.592C80.5415 423.349 80.4596 423.047 80.5497 422.744L112.251 311.936C112.35 311.579 112.677 311.297 113.103 311.189L245.579 278.295C246.005 278.187 246.464 278.282 246.791 278.53L347.565 356.443C347.885 356.692 348.024 357.063 347.926 357.419L316.224 468.227C316.126 468.584 315.798 468.866 315.372 468.974L182.896 501.868C182.47 501.976 182.012 501.882 181.684 501.633L80.9101 423.72C80.861 423.68 80.8118 423.632 80.7627 423.585V423.592ZM114.504 312.979L83.1301 422.643L182.864 499.749L313.963 467.197L345.337 357.533L245.604 280.428L114.496 312.979H114.504Z" fill="#06385F" fill-opacity="0.3"/>
<path d="M69.1317 415.464C68.8942 415.202 68.8204 414.852 68.9433 414.535L115.046 299.516C115.185 299.173 115.538 298.91 115.972 298.836L260.079 274.063C260.514 273.989 260.964 274.11 261.259 274.386L359.264 364.632C359.551 364.901 359.657 365.284 359.518 365.628L313.415 480.648C313.276 480.99 312.924 481.253 312.49 481.327L168.382 506.101C167.948 506.175 167.497 506.053 167.202 505.777L69.1973 415.532C69.1973 415.532 69.1481 415.484 69.1317 415.464ZM117.192 300.714L71.5319 414.609L168.579 503.974L311.286 479.443L356.946 365.547L259.899 276.182L117.192 300.714Z" fill="#06385F" fill-opacity="0.3"/>
<path d="M151.392 509.081L57.7123 405.977C57.4502 405.688 57.3929 405.297 57.5649 404.961L119.412 286.577C119.584 286.241 119.969 286.011 120.403 285.965L275.922 270.685C276.364 270.645 276.798 270.793 277.061 271.088L370.732 374.192C370.994 374.482 371.052 374.872 370.88 375.208L309.033 493.593C308.861 493.929 308.476 494.158 308.041 494.205L152.523 509.484C152.08 509.524 151.646 509.377 151.384 509.081H151.392ZM60.1371 405.223L152.957 507.386L307.05 492.246L368.332 374.946L275.512 272.784L121.419 287.923L60.1371 405.223Z" fill="#06385F" fill-opacity="0.3"/>
<path d="M134.331 511.444C134.331 511.444 134.29 511.397 134.273 511.37L46.639 394.964C46.4096 394.654 46.3932 394.264 46.598 393.941L125.508 273.189C125.721 272.866 126.123 272.664 126.565 272.651L293.11 268.304C293.552 268.29 293.978 268.492 294.208 268.789L381.842 385.187C382.08 385.497 382.088 385.887 381.883 386.211L302.973 506.962C302.76 507.286 302.358 507.487 301.916 507.501L135.371 511.848C134.962 511.861 134.577 511.706 134.339 511.437L134.331 511.444ZM49.121 394.392L136.002 509.795L301.113 505.482L379.344 385.773L292.463 270.376L127.351 274.683L49.121 394.392Z" fill="#06385F" fill-opacity="0.3"/>
<path d="M115.985 512.654C115.944 512.607 115.903 512.553 115.871 512.499L36.133 382.461C35.9364 382.138 35.961 381.748 36.2067 381.445L133.458 259.488C133.704 259.185 134.122 259.01 134.564 259.031L311.553 267.105C311.996 267.125 312.389 267.334 312.594 267.663L392.331 397.701C392.528 398.024 392.503 398.414 392.258 398.717L295.006 520.673C294.76 520.977 294.343 521.151 293.9 521.131L116.911 513.057C116.542 513.037 116.207 512.889 115.985 512.647V512.654ZM38.6806 382.071L117.771 511.052L293.327 519.066L389.792 398.091L310.701 269.11L135.146 261.097L38.6724 382.071H38.6806Z" fill="#06385F" fill-opacity="0.3"/>
<path d="M96.4 512.538C96.3345 512.464 96.2853 512.39 96.2444 512.303L26.4186 368.419C26.2548 368.082 26.3203 367.699 26.5988 367.409L143.437 245.567C143.707 245.278 144.149 245.137 144.592 245.191L331.247 267.226C331.689 267.28 332.058 267.522 332.222 267.858L402.047 411.742C402.211 412.079 402.146 412.462 401.867 412.751L285.03 534.593C284.759 534.882 284.317 535.024 283.874 534.969L97.2192 512.935C96.8915 512.895 96.5966 512.746 96.4 512.538ZM28.9908 368.217L98.2841 511.004L283.522 532.871L399.475 411.951L330.182 269.163L144.944 247.297L28.9908 368.217Z" fill="#06385F" fill-opacity="0.3"/>
<path d="M75.66 510.925C75.5781 510.831 75.5043 510.723 75.4634 510.609L17.7121 352.811C17.5893 352.461 17.6957 352.084 17.9988 351.822L155.578 231.594C155.881 231.331 156.332 231.217 156.766 231.297L352.096 268.869C352.53 268.949 352.874 269.218 353.005 269.568L410.756 427.367C410.879 427.717 410.773 428.093 410.47 428.356L272.891 548.584C272.588 548.846 272.137 548.96 271.703 548.879L76.3726 511.309C76.0859 511.255 75.832 511.113 75.66 510.925ZM20.3007 352.784L77.6424 509.458L271.572 546.76L408.168 427.387L350.826 270.712L156.897 233.41L20.3007 352.784Z" fill="#06385F" fill-opacity="0.3"/>
<path d="M53.8709 507.634C53.7644 507.52 53.6907 507.379 53.6497 507.231L10.2585 335.6C10.1684 335.242 10.3158 334.873 10.6435 334.63L170.012 217.693C170.34 217.451 170.807 217.37 171.225 217.484L373.993 272.179C374.411 272.293 374.73 272.582 374.82 272.939L418.212 444.571C418.302 444.927 418.154 445.298 417.827 445.539L258.458 562.477C258.13 562.72 257.663 562.8 257.245 562.686L54.4771 507.992C54.2313 507.924 54.0183 507.796 53.8709 507.634ZM12.8306 335.761L55.9352 506.235L257.336 560.559L415.639 444.402L372.535 273.928L171.135 219.604L12.8306 335.761Z" fill="#06385F" fill-opacity="0.3"/>
<path d="M31.1376 502.488C31.0065 502.347 30.9246 502.179 30.9 501.997L4.2853 316.801C4.23615 316.438 4.41638 316.081 4.77681 315.866L186.878 204.069C187.23 203.853 187.705 203.807 188.114 203.948L396.83 277.353C397.24 277.501 397.526 277.811 397.575 278.175L424.19 463.37C424.239 463.733 424.051 464.09 423.699 464.305L241.598 576.102C241.246 576.317 240.771 576.364 240.361 576.223L31.6455 502.818C31.4407 502.744 31.2687 502.63 31.1376 502.488ZM6.83293 317.145L33.2756 501.169L240.672 574.11L421.626 463.02L395.183 278.995L187.787 206.054L6.83293 317.145Z" fill="#06385F" fill-opacity="0.3"/>
<path d="M7.62935 495.3C7.4819 495.132 7.39178 494.93 7.38358 494.721L0.0848072 296.426C0.0684239 296.063 0.297792 295.719 0.674608 295.531L206.285 190.92C206.662 190.725 207.137 190.718 207.531 190.886L420.432 284.57C420.825 284.745 421.071 285.075 421.087 285.438L428.386 483.734C428.402 484.097 428.173 484.441 427.796 484.636L222.185 589.247C221.809 589.442 221.334 589.448 220.94 589.281L8.03893 495.596C7.8751 495.522 7.73584 495.428 7.62935 495.307V495.3ZM2.59145 296.951L9.84928 494.069L221.489 587.195L425.879 483.203L418.622 286.085L206.982 192.959L2.59145 296.951Z" fill="#06385F" fill-opacity="0.3"/>
<path d="M-16.4711 485.903C-16.6431 485.715 -16.7332 485.479 -16.7168 485.237L-2.07013 274.528C-2.04556 274.164 -1.78341 273.841 -1.39021 273.673L228.321 178.468C228.714 178.307 229.189 178.327 229.557 178.522L444.613 294.019C444.982 294.222 445.203 294.564 445.17 294.934L430.524 505.643C430.499 506.007 430.237 506.33 429.844 506.498L200.133 601.703C199.74 601.864 199.265 601.845 198.896 601.649L-16.1598 486.152C-16.2827 486.084 -16.3892 486.004 -16.4793 485.91L-16.4711 485.903ZM0.370989 275.234L-14.1938 484.766L199.666 599.625L428.091 504.951L442.656 295.419L228.796 180.561L0.370989 275.234Z" fill="#06385F" fill-opacity="0.3"/>
<path d="M-40.9494 474.099C-41.146 473.884 -41.2279 473.614 -41.187 473.339L-1.87519 251.151C-1.80965 250.788 -1.51475 250.485 -1.10517 250.35L253.082 166.947C253.492 166.813 253.959 166.866 254.311 167.095L469.187 305.879C469.531 306.101 469.711 306.464 469.645 306.827L430.333 529.015C430.268 529.378 429.973 529.682 429.564 529.815L175.376 613.219C174.967 613.354 174.5 613.3 174.147 613.071L-40.7283 474.288C-40.8184 474.234 -40.8921 474.166 -40.9576 474.099H-40.9494ZM0.484016 252.032L-38.623 473.049L175.122 611.107L427.974 528.141L467.081 307.124L253.336 169.067L0.484016 252.032Z" fill="#06385F" fill-opacity="0.3"/>
<path d="M-65.5557 459.728C-65.7769 459.486 -65.8588 459.184 -65.7687 458.881L0.976997 226.406C1.0753 226.049 1.40297 225.766 1.82894 225.665L280.624 156.634C281.05 156.526 281.509 156.621 281.837 156.869L493.894 320.312C494.222 320.561 494.353 320.937 494.255 321.287L427.509 553.763C427.411 554.119 427.083 554.402 426.657 554.503L147.862 623.534C147.436 623.643 146.977 623.548 146.658 623.299L-65.4001 459.856C-65.4574 459.816 -65.4984 459.768 -65.5475 459.722L-65.5557 459.728ZM3.22971 227.448L-63.1801 458.78L147.829 621.415L425.256 552.726L491.666 321.396L280.657 158.76L3.22971 227.448Z" fill="#06385F" fill-opacity="0.3"/>
<path d="M-90.0172 442.619C-90.263 442.356 -90.3285 442.006 -90.1975 441.69L6.77548 200.402C6.91474 200.058 7.26699 199.795 7.70114 199.721L310.957 147.793C311.391 147.719 311.841 147.84 312.136 148.109L518.419 337.469C518.714 337.739 518.812 338.122 518.673 338.472L421.7 579.761C421.56 580.111 421.208 580.367 420.774 580.441L117.519 632.369C117.084 632.443 116.634 632.323 116.339 632.053L-89.9435 442.687C-89.9435 442.687 -89.9927 442.639 -90.0091 442.619H-90.0172ZM8.90532 201.599L-87.6171 441.772L117.707 630.257L419.562 578.57L516.084 338.398L310.76 149.912L8.90532 201.599Z" fill="#06385F" fill-opacity="0.3"/>
<path d="M-114.01 422.63C-114.272 422.341 -114.33 421.951 -114.158 421.614L15.8522 173.287C16.0242 172.95 16.4092 172.722 16.8434 172.674L344.092 140.736C344.535 140.695 344.969 140.85 345.231 141.139L542.47 357.534C542.732 357.83 542.789 358.214 542.617 358.55L412.607 606.876C412.435 607.213 412.05 607.442 411.616 607.489L84.3673 639.428C83.9249 639.469 83.4908 639.321 83.2286 639.024L-114.01 422.63ZM17.8509 174.633L-111.594 421.876L84.7851 637.329L410.609 605.531L540.053 358.288L343.675 142.835L17.8509 174.633Z" fill="#06385F" fill-opacity="0.3"/>
<path d="M47.4235 643.967C47.4235 643.967 47.3825 643.92 47.3662 643.893L-137.233 399.544C-137.471 399.234 -137.479 398.844 -137.274 398.52L28.5417 145.249C28.7547 144.925 29.1561 144.724 29.5984 144.71L380.013 135.789C380.456 135.775 380.865 135.957 381.111 136.273L565.71 380.624C565.948 380.933 565.956 381.323 565.751 381.646L399.935 634.918C399.722 635.241 399.321 635.443 398.879 635.456L48.4638 644.378C48.0543 644.384 47.6693 644.236 47.4317 643.967H47.4235ZM-134.743 398.971L49.1028 642.319L398.084 633.431L563.22 381.195L379.374 137.848L30.393 146.736L-134.743 398.971Z" fill="#06385F" fill-opacity="0.3"/>
<path d="M8.92101 646.485C8.88005 646.439 8.8391 646.392 8.80634 646.338L-159.246 373.318C-159.45 372.995 -159.418 372.604 -159.18 372.295L45.1446 116.506C45.3903 116.203 45.8081 116.028 46.2504 116.049L418.619 133.28C419.061 133.3 419.463 133.516 419.659 133.838L587.711 406.851C587.916 407.174 587.883 407.564 587.646 407.874L383.329 663.663C383.084 663.965 382.666 664.14 382.223 664.121L9.85486 646.889C9.48623 646.869 9.15037 646.721 8.9292 646.479L8.92101 646.485ZM-156.706 372.92L10.6986 644.885L381.642 662.048L585.172 407.248L417.767 135.285L46.8238 118.121L-156.706 372.92Z" fill="#06385F" fill-opacity="0.3"/>
<path d="M-32.1689 646.214C-32.2344 646.147 -32.2836 646.066 -32.3245 645.985L-179.611 343.846C-179.775 343.51 -179.709 343.12 -179.43 342.837L65.9754 87.3184C66.254 87.0293 66.6881 86.888 67.1305 86.9423L459.823 133.562C460.265 133.616 460.634 133.858 460.797 134.195L608.075 436.326C608.239 436.663 608.174 437.053 607.895 437.335L362.481 692.854C362.211 693.143 361.768 693.284 361.326 693.231L-31.3661 646.611C-31.6938 646.571 -31.9887 646.429 -32.1853 646.214H-32.1689ZM-177.039 343.631L-30.293 644.673L360.974 691.118L605.495 436.528L458.749 135.486L67.4827 89.0408L-177.039 343.631Z" fill="#06385F" fill-opacity="0.3"/>
<path d="M-75.6824 642.798C-75.7643 642.703 -75.838 642.596 -75.879 642.481L-197.861 311.068C-197.992 310.718 -197.886 310.341 -197.574 310.071L91.3539 57.9705C91.657 57.7081 92.1075 57.5937 92.5417 57.6744L503.444 136.981C503.878 137.068 504.222 137.331 504.345 137.68L626.327 469.094C626.458 469.443 626.343 469.821 626.04 470.09L337.112 722.191C336.809 722.453 336.358 722.568 335.924 722.487L-74.9779 643.181C-75.2646 643.127 -75.5185 642.986 -75.6906 642.798H-75.6824ZM-195.273 311.04L-73.7082 641.324L335.801 720.361L623.738 469.114L502.174 138.83L92.6728 59.8006L-195.273 311.04Z" fill="#06385F" fill-opacity="0.3"/>
<path d="M-121.413 635.869C-121.519 635.754 -121.593 635.613 -121.634 635.465L-213.495 274.951C-213.586 274.594 -213.438 274.224 -213.11 273.982L121.552 28.8035C121.88 28.5613 122.346 28.4805 122.764 28.595L549.28 143.944C549.697 144.058 550.017 144.348 550.107 144.705L641.968 505.219C642.058 505.576 641.911 505.946 641.583 506.188L306.929 751.359C306.602 751.602 306.135 751.683 305.717 751.568L-120.807 636.226C-121.052 636.158 -121.265 636.03 -121.413 635.869ZM-210.915 275.112L-119.349 634.476L305.807 749.449L639.388 505.058L547.822 145.694L122.674 30.721L-210.915 275.112Z" fill="#06385F" fill-opacity="0.3"/>
<path d="M-169.099 625.041C-169.23 624.9 -169.312 624.732 -169.336 624.55L-225.99 235.489C-226.047 235.126 -225.859 234.769 -225.498 234.547L156.84 0.201684C157.192 -0.0136202 157.667 -0.060718 158.068 0.0805754L597.06 154.804C597.469 154.945 597.748 155.261 597.805 155.618L654.459 544.679C654.516 545.042 654.328 545.399 653.967 545.621L271.629 779.967C271.277 780.182 270.802 780.229 270.392 780.087L-168.591 625.364C-168.796 625.29 -168.968 625.176 -169.099 625.035V625.041ZM-223.434 235.825L-166.953 623.723L270.72 777.975L651.911 544.336L595.43 156.445L157.749 2.19324L-223.434 235.825Z" fill="#06385F" fill-opacity="0.3"/>
</g>
</mask>
<g mask="url(#mask1_1_44)">
<path d="M654.468 0H-226V780.169H654.468V0Z" fill="white" fill-opacity="0.3"/>
</g>
</g>
</svg>
