<svg width="56" height="56" viewBox="0 0 56 56" fill="none" xmlns="http://www.w3.org/2000/svg">
<rect x="4" y="4" width="48" height="48" rx="24" fill="white"/>
<path d="M43.3739 40.0443L39.3299 33.9412C39.8623 33.3347 40.2701 32.6067 40.506 31.7811C41.3013 29.011 39.8725 26.1229 37.2877 25.0243V23.1911H38.0021C38.1504 23.1911 38.2852 23.1068 38.3526 22.9754C38.42 22.844 38.4032 22.6822 38.3122 22.5642L34.8411 18.0047C34.767 17.907 34.6524 17.8497 34.5311 17.8497C34.4097 17.8497 34.2952 17.907 34.221 18.0047L30.75 22.5642C30.659 22.6822 30.6455 22.8406 30.7095 22.9754C30.7769 23.1068 30.9117 23.1911 31.06 23.1911H31.7744V25.6377C30.7432 26.3757 29.9985 27.4305 29.6412 28.6673C29.2267 30.1197 29.3986 31.6429 30.1299 32.964C30.541 33.7054 31.1004 34.3355 31.7711 34.8141V38.8378L28.5797 38.8547V17.8935H29.2941C29.4424 17.8935 29.5772 17.8092 29.6446 17.6778C29.712 17.5464 29.6952 17.3846 29.6042 17.2667L26.1398 12.7037C26.0657 12.606 25.9511 12.5487 25.8298 12.5487C25.7085 12.5487 25.5939 12.606 25.5198 12.7037L22.0487 17.2633C21.9577 17.3812 21.9442 17.5396 22.0083 17.6744C22.0757 17.8059 22.2105 17.8901 22.3587 17.8901H23.0732V38.885L19.8818 38.9018V28.4853H20.5963C20.7445 28.4853 20.8793 28.401 20.9467 28.2696C21.0141 28.1382 20.9973 27.9764 20.9063 27.8585L17.4352 23.2989C17.3611 23.2012 17.2465 23.1439 17.1252 23.1439C17.0039 23.1439 16.8893 23.2012 16.8152 23.2989L13.3407 27.8585C13.2497 27.9764 13.2363 28.1348 13.3003 28.2696C13.3677 28.401 13.5025 28.4853 13.6508 28.4853H14.3652V38.9322L12.7004 38.9389C12.4848 38.9389 12.3095 39.1175 12.3129 39.3332C12.3129 39.5489 12.4881 39.7207 12.7038 39.7207C12.7038 39.7207 12.7038 39.7207 12.7072 39.7207L38.0729 39.5859L39.3029 42.2988C39.5254 42.7874 39.9432 43.1547 40.479 43.3333C40.7149 43.4108 40.9643 43.4513 41.2171 43.4513C41.6349 43.4513 42.0596 43.3468 42.4303 43.1413C43.0234 42.811 43.4716 42.2347 43.6266 41.5911C43.7614 41.0418 43.6704 40.4925 43.3739 40.0443ZM37.0788 35.5049C37.6955 35.2724 38.265 34.932 38.7637 34.5007L39.6197 35.7914L37.6921 36.8596L37.0788 35.5049ZM34.5344 18.8809L37.2169 22.4059H36.9001C36.6845 22.4059 36.5092 22.5811 36.5092 22.7968V24.7547C35.1747 24.4042 33.7863 24.5492 32.5563 25.1625V22.881C32.563 22.8541 32.5664 22.8271 32.5664 22.7968C32.5664 22.5811 32.3911 22.4059 32.1755 22.4059H31.8519L34.5344 18.8809ZM30.8174 32.5832C30.1872 31.4441 30.0355 30.1298 30.3961 28.8796C30.7533 27.6293 31.579 26.5947 32.7147 25.9612C33.4459 25.5534 34.2547 25.3478 35.0703 25.3478C35.5218 25.3478 35.9734 25.4119 36.4182 25.5399C38.9996 26.2813 40.4993 28.9807 39.7579 31.5621C39.0165 34.1434 36.3171 35.6397 33.7357 34.9017C32.4821 34.5445 31.4475 33.7222 30.8174 32.5832ZM32.5563 35.2791C32.8629 35.4308 33.1831 35.5555 33.5167 35.6532C34.0357 35.8015 34.558 35.8722 35.0703 35.8722C35.4949 35.8722 35.9127 35.8217 36.3205 35.7307L36.5059 36.1418C36.5059 36.1519 36.5059 36.1587 36.5059 36.1688V38.8108L32.5529 38.8311V35.2791H32.5563ZM23.4607 17.1116C23.4203 17.1116 23.3832 17.1184 23.3461 17.1285V17.1116H23.144L25.8264 13.5867L28.5089 17.1116H28.1854C27.9731 17.115 27.8046 17.2903 27.8046 17.5026V38.8614L23.8516 38.8816V17.5026C23.8516 17.2869 23.6764 17.1116 23.4607 17.1116ZM15.147 28.1786C15.1538 28.1516 15.1571 28.1247 15.1571 28.0944C15.1571 27.8787 14.9819 27.7034 14.7662 27.7034H14.4393L17.1218 24.1785L19.8043 27.7034H19.6021C19.5819 27.7034 19.565 27.7068 19.5448 27.7068C19.528 27.7034 19.5078 27.7034 19.4875 27.7034C19.2719 27.7034 19.0966 27.8787 19.0966 28.0944V38.9052L15.1437 38.9254V28.1786H15.147ZM37.2911 38.8075V37.8605L37.719 38.8041L37.2911 38.8075ZM42.8684 41.4023C42.7639 41.8371 42.4572 42.228 42.0495 42.4538C41.6417 42.6796 41.1463 42.7301 40.7217 42.5886C40.4892 42.5111 40.1791 42.3426 40.014 41.9719L38.6862 39.0434C38.6829 39.0333 38.6761 39.0232 38.6727 39.013L38.0156 37.564L40.0511 36.435L42.7201 40.4655C42.9459 40.8126 42.9256 41.1665 42.8684 41.4023ZM35.0837 34.4029C35.7847 34.4029 36.4755 34.2243 37.1057 33.8772C38.083 33.3347 38.7907 32.445 39.0974 31.3733C39.7309 29.1559 38.447 26.8374 36.2295 26.2038C34.0155 25.5703 31.6936 26.8542 31.06 29.0716C30.7533 30.1433 30.8814 31.2722 31.424 32.2495C31.9665 33.2268 32.8562 33.9345 33.9278 34.2412C34.3053 34.349 34.6962 34.4029 35.0837 34.4029ZM31.8081 29.284C32.2361 27.7944 33.5976 26.8205 35.077 26.8205C35.387 26.8205 35.7004 26.8643 36.0138 26.9519C37.8168 27.4675 38.8615 29.3547 38.3459 31.1577C38.0965 32.0305 37.5202 32.755 36.7249 33.1931C35.9296 33.6346 35.013 33.739 34.1401 33.4863C32.3372 32.9741 31.2925 31.0869 31.8081 29.284ZM34.649 31.9496C34.1637 31.8013 33.8099 31.3767 33.8099 30.8813C33.8099 30.6656 33.9851 30.4904 34.2008 30.4904C34.4165 30.4904 34.5917 30.6656 34.5917 30.8813C34.5917 31.0667 34.7973 31.2251 35.0399 31.2251C35.2826 31.2251 35.4881 31.0667 35.4881 30.8813C35.4881 30.787 35.3399 30.7061 35.0062 30.5578C34.9624 30.5376 34.922 30.5207 34.8782 30.5005C34.8377 30.4837 34.7973 30.4634 34.7569 30.4466C34.3558 30.2714 33.8099 30.0287 33.8099 29.4086C33.8099 28.9133 34.1604 28.492 34.649 28.3404V27.9225C34.649 27.7068 34.8242 27.5316 35.0399 27.5316C35.2556 27.5316 35.4308 27.7068 35.4308 27.9225V28.3404C35.9161 28.4886 36.27 28.9133 36.27 29.4086C36.27 29.6243 36.0947 29.7996 35.879 29.7996C35.6634 29.7996 35.4881 29.6243 35.4881 29.4086C35.4881 29.2233 35.2826 29.0649 35.0399 29.0649C34.7973 29.0649 34.5917 29.2233 34.5917 29.4086C34.5917 29.503 34.74 29.5839 35.0736 29.7322C35.1174 29.7524 35.1579 29.7692 35.2017 29.7895C35.2421 29.8063 35.2826 29.8265 35.323 29.8434C35.724 30.0186 36.27 30.2612 36.27 30.8813C36.27 31.3767 35.9195 31.7979 35.4308 31.9496V32.3675C35.4308 32.5832 35.2556 32.7584 35.0399 32.7584C34.8242 32.7584 34.649 32.5832 34.649 32.3675V31.9496Z" fill="#06385F"/>
<rect x="4" y="4" width="48" height="48" rx="24" stroke="#06385F" stroke-opacity="0.05" stroke-width="8"/>
</svg>
