<svg width="57" height="57" viewBox="0 0 57 57" fill="none" xmlns="http://www.w3.org/2000/svg">
<g id="Featured icon">
<rect x="4.9375" y="4.99268" width="48" height="48" rx="24" fill="white"/>
<path id="Vector" d="M23.8167 22.932C23.8167 22.7019 24.0031 22.5155 24.2332 22.5155H30.9942C31.2243 22.5155 31.4107 22.7019 31.4107 22.932C31.4107 23.1621 31.2243 23.3485 30.9942 23.3485H24.2332C24.0031 23.3485 23.8167 23.1621 23.8167 22.932ZM24.2332 25.2712H30.9942C31.2243 25.2712 31.4107 25.0847 31.4107 24.8546C31.4107 24.6245 31.2243 24.4381 30.9942 24.4381H24.2332C24.0031 24.4381 23.8167 24.6245 23.8167 24.8546C23.8167 25.0847 24.0031 25.2712 24.2332 25.2712ZM21.8764 22.5023L20.0313 24.4493L19.0453 23.7495C18.8578 23.6165 18.5976 23.6605 18.4647 23.848C18.3317 24.0354 18.3757 24.2956 18.5631 24.4286L19.8439 25.3375C19.9166 25.3893 20.0009 25.4143 20.0848 25.4143C20.1958 25.4143 20.3061 25.37 20.3873 25.2844L22.4808 23.0751C22.6391 22.908 22.632 22.6444 22.4649 22.4864C22.2984 22.3284 22.0348 22.3351 21.8764 22.5023ZM24.2332 28.7757H30.9942C31.2243 28.7757 31.4107 28.5892 31.4107 28.3591C31.4107 28.129 31.2243 27.9426 30.9942 27.9426H24.2332C24.0031 27.9426 23.8167 28.129 23.8167 28.3591C23.8167 28.5889 24.0031 28.7757 24.2332 28.7757ZM24.2332 30.698H30.9942C31.2243 30.698 31.4107 30.5115 31.4107 30.2814C31.4107 30.0513 31.2243 29.8649 30.9942 29.8649H24.2332C24.0031 29.8649 23.8167 30.0513 23.8167 30.2814C23.8167 30.5115 24.0031 30.698 24.2332 30.698ZM21.8764 27.9291L20.0313 29.8761L19.0453 29.1763C18.8578 29.0433 18.5976 29.0873 18.4647 29.2748C18.3317 29.4622 18.3757 29.7224 18.5631 29.8554L19.8439 30.7643C19.9166 30.816 20.0009 30.8411 20.0848 30.8411C20.1958 30.8411 20.3061 30.7968 20.3873 30.7111L22.4808 28.5019C22.6391 28.3348 22.632 28.0712 22.4649 27.9132C22.2977 27.7551 22.0348 27.7623 21.8764 27.9291ZM21.8764 33.3562L20.0313 35.3032L19.0453 34.6034C18.8578 34.4704 18.5976 34.5144 18.4647 34.7019C18.3317 34.8893 18.3757 35.1496 18.5631 35.2825L19.8439 36.1914C19.9166 36.2432 20.0009 36.2682 20.0848 36.2682C20.1958 36.2682 20.3061 36.2239 20.3873 36.1383L22.4808 33.9291C22.6391 33.7619 22.632 33.4983 22.4649 33.3403C22.2984 33.1819 22.0348 33.189 21.8764 33.3562ZM40.924 25.1988L38.1094 28.6941V42.6455C38.1094 43.2217 37.6404 43.6907 37.0642 43.6907H20.3589C19.7826 43.6907 19.3136 43.2217 19.3136 42.6455V40.5009H17.1531C16.5769 40.5009 16.1079 40.0319 16.1079 39.4557V19.8921C16.1079 19.6089 16.2138 19.3534 16.4141 19.1531L20.9669 14.6007C21.1672 14.4003 21.4227 14.2944 21.7059 14.2944H33.8592C34.4354 14.2944 34.9044 14.7634 34.9044 15.3397V17.4843H37.0649C37.6411 17.4843 38.1101 17.9532 38.1101 18.5295V22.4346L38.4217 22.0479C38.8718 21.4892 39.6923 21.4009 40.251 21.8506L41.2823 22.6809C41.841 23.131 41.9296 23.9515 41.4796 24.5102L40.924 25.1988ZM38.7764 22.9347L40.5366 24.3522L40.8299 23.9877C40.9917 23.7867 40.9599 23.4917 40.7589 23.3299L39.7279 22.4992C39.5269 22.3375 39.2318 22.3693 39.0701 22.5703L38.7764 22.9347ZM40.0141 25.0008L38.2539 23.5837L31.4493 32.0338L33.2095 33.4513L40.0141 25.0008ZM30.5705 34.9266L32.5067 33.9551L31.1069 32.8277L30.5705 34.9266ZM34.904 18.3173V26.4152L37.2764 23.469V18.5295C37.2764 18.4124 37.1813 18.3173 37.0642 18.3173H34.904ZM17.5308 19.215H20.817C20.9341 19.215 21.0292 19.1199 21.0292 19.0029V15.7169L17.5308 19.215ZM17.1535 39.6678H33.8588C33.9759 39.6678 34.071 39.5727 34.071 39.4557V33.7094L33.5969 34.2982L33.5962 34.2975C33.5594 34.3432 33.5133 34.3818 33.4592 34.4092L30.1276 36.0807C30.1252 36.0821 30.1225 36.0828 30.1202 36.0841C30.11 36.0889 30.0995 36.0936 30.089 36.0977C30.085 36.0994 30.0806 36.1007 30.0765 36.1024C30.066 36.1061 30.0552 36.1092 30.0444 36.1119C30.0403 36.1129 30.0363 36.1143 30.0319 36.1149C30.0207 36.1173 30.0092 36.1193 29.9977 36.121C29.994 36.1217 29.9902 36.1224 29.9865 36.1227C29.9716 36.1244 29.9567 36.1254 29.9412 36.1254H24.2332C24.0031 36.1254 23.8167 35.939 23.8167 35.7089C23.8167 35.4788 24.0031 35.2923 24.2332 35.2923H29.6173L29.8958 34.2028H24.2332C24.0031 34.2028 23.8167 34.0164 23.8167 33.7863C23.8167 33.5562 24.0031 33.3697 24.2332 33.3697H30.1087L30.4599 31.9939C30.4748 31.9354 30.5029 31.8819 30.5397 31.8362L30.5391 31.8359L34.071 27.4496V15.3397C34.071 15.2226 33.9759 15.1275 33.8588 15.1275H21.8619V19.0029C21.8619 19.5791 21.3929 20.0481 20.8167 20.0481H16.9417V39.4557C16.9417 39.5724 17.0367 39.6678 17.1535 39.6678ZM37.2767 29.7289L34.9044 32.6751V39.456C34.9044 40.0322 34.4354 40.5012 33.8592 40.5012H20.147V42.6458C20.147 42.7629 20.2421 42.858 20.3592 42.858H37.0645C37.1816 42.858 37.2767 42.7629 37.2767 42.6458V29.7289Z" fill="#06385F"/>
<rect x="4.9375" y="4.99268" width="48" height="48" rx="24" stroke="#06385F" stroke-opacity="0.05" stroke-width="8"/>
</g>
</svg>
