<svg width="57" height="57" viewBox="0 0 57 57" fill="none" xmlns="http://www.w3.org/2000/svg">
<g id="Featured icon">
<rect x="4.9375" y="4.99268" width="48" height="48" rx="24" fill="white"/>
<g id="Group 50">
<path id="Vector" d="M42.762 14.4307H21.0727C20.8747 14.4307 20.7146 14.591 20.7146 14.7887V16.8666L14.7886 17.6012C14.6946 17.6127 14.6085 17.6615 14.5501 17.7363C14.4918 17.8112 14.4655 17.9063 14.4774 18.0005L17.5504 42.788C17.5619 42.8826 17.6109 42.9686 17.6864 43.027C17.7493 43.076 17.8266 43.102 17.9056 43.102C17.921 43.102 17.9364 43.101 17.9518 43.099L31.6378 41.3171C31.6544 41.3149 31.6677 41.3058 31.6834 41.3015H42.762C42.9599 41.3015 43.1201 41.1412 43.1201 40.9435V14.7887C43.1201 14.591 42.9599 14.4307 42.762 14.4307ZM18.2165 42.3423L15.232 18.2677L20.7146 17.588V40.9435C20.7146 41.1412 20.8747 41.3015 21.0727 41.3015H26.2104L18.2165 42.3423ZM42.404 40.5854H21.4307V15.1468H42.404V40.5854Z" fill="#06385F"/>
<path id="Vector_2" d="M25.9064 36.0384H37.9279C38.1258 36.0384 38.286 35.8781 38.286 35.6803C38.286 35.4826 38.1258 35.3223 37.9279 35.3223H25.9064C25.7085 35.3223 25.5483 35.4826 25.5483 35.6803C25.5483 35.8781 25.7085 36.0384 25.9064 36.0384Z" fill="#06385F"/>
<path id="Vector_3" d="M25.9064 32.1312H37.9279C38.1258 32.1312 38.286 31.9708 38.286 31.7731C38.286 31.5754 38.1258 31.415 37.9279 31.415H25.9064C25.7085 31.415 25.5483 31.5754 25.5483 31.7731C25.5483 31.9708 25.7085 32.1312 25.9064 32.1312Z" fill="#06385F"/>
<path id="Vector_4" d="M25.9064 28.2239H37.9279C38.1258 28.2239 38.286 28.0636 38.286 27.8659C38.286 27.6681 38.1258 27.5078 37.9279 27.5078H25.9064C25.7085 27.5078 25.5483 27.6681 25.5483 27.8659C25.5483 28.0636 25.7085 28.2239 25.9064 28.2239Z" fill="#06385F"/>
<path id="Vector_5" d="M25.9064 24.3172H37.9279C38.1258 24.3172 38.286 24.1569 38.286 23.9591C38.286 23.7614 38.1258 23.6011 37.9279 23.6011H25.9064C25.7085 23.6011 25.5483 23.7614 25.5483 23.9591C25.5483 24.1569 25.7085 24.3172 25.9064 24.3172Z" fill="#06385F"/>
<path id="Vector_6" d="M25.9064 20.41H37.9279C38.1258 20.41 38.286 20.2497 38.286 20.0519C38.286 19.8542 38.1258 19.6938 37.9279 19.6938H25.9064C25.7085 19.6938 25.5483 19.8542 25.5483 20.0519C25.5483 20.2497 25.7085 20.41 25.9064 20.41Z" fill="#06385F"/>
</g>
<rect x="4.9375" y="4.99268" width="48" height="48" rx="24" stroke="#06385F" stroke-opacity="0.05" stroke-width="8"/>
</g>
</svg>
