<svg width="57" height="57" viewBox="0 0 57 57" fill="none" xmlns="http://www.w3.org/2000/svg">
<g id="Featured icon">
<rect x="4.9375" y="4.99268" width="48" height="48" rx="24" fill="white"/>
<path id="Vector" d="M43.5555 27.8594L40.1419 24.4459C40.1419 24.4459 40.0777 24.3449 40.0777 24.2807V19.454C40.0777 18.5731 39.3527 17.8481 38.4718 17.8481H33.6451C33.5809 17.8481 33.5258 17.8206 33.4799 17.7839L30.0664 14.3703C29.4424 13.7463 28.4238 13.7463 27.7998 14.3703L24.3863 17.7839C24.3863 17.7839 24.2853 17.8481 24.2211 17.8481H19.3944C18.5135 17.8481 17.7886 18.5731 17.7886 19.454V24.2807C17.7886 24.3449 17.761 24.4 17.7243 24.4459L14.3108 27.8594C13.6868 28.4834 13.6868 29.502 14.3108 30.1259L17.7243 33.5395C17.7243 33.5395 17.7886 33.6404 17.7886 33.7047V38.5314C17.7886 39.4123 18.5135 40.1372 19.3944 40.1372H24.2211C24.2853 40.1372 24.3404 40.1648 24.3863 40.2015L27.7998 43.615C28.1118 43.927 28.5248 44.083 28.9377 44.083C29.3506 44.083 29.7636 43.927 30.0756 43.615L33.4891 40.2015C33.4891 40.2015 33.5901 40.1372 33.6543 40.1372H38.481C39.3619 40.1372 40.0868 39.4123 40.0868 38.5314V33.7047C40.0868 33.6404 40.1144 33.5854 40.1511 33.5395L43.5646 30.1259C44.1886 29.502 44.1886 28.4834 43.5646 27.8594H43.5555ZM42.5828 29.1533L39.1692 32.5668C38.8664 32.8696 38.7012 33.2826 38.7012 33.7047V38.5314C38.7012 38.6599 38.6003 38.7608 38.4718 38.7608H33.6451C33.2138 38.7608 32.8101 38.926 32.5073 39.2288L29.0937 42.6423C29.0019 42.7341 28.8551 42.7341 28.7725 42.6423L25.359 39.2288C25.0561 38.926 24.6524 38.7608 24.2211 38.7608H19.3944C19.2659 38.7608 19.165 38.6599 19.165 38.5314V33.7047C19.165 33.2826 18.9906 32.8696 18.697 32.5668L15.2834 29.1533C15.1917 29.0615 15.1917 28.9147 15.2834 28.8321L18.697 25.4185C18.9998 25.1157 19.165 24.7028 19.165 24.2807V19.454C19.165 19.3255 19.2659 19.2246 19.3944 19.2246H24.2211C24.6524 19.2246 25.0561 19.0594 25.359 18.7566L28.7725 15.343C28.8643 15.2513 29.0111 15.2513 29.0937 15.343L32.5073 18.7566C32.8101 19.0594 33.2138 19.2246 33.6451 19.2246H38.4718C38.6003 19.2246 38.7012 19.3255 38.7012 19.454V24.2807C38.7012 24.7028 38.8756 25.1157 39.1692 25.4185L42.5828 28.8321C42.6745 28.9239 42.6745 29.0707 42.5828 29.1533ZM33.6268 25.5837C33.8929 25.8498 33.8929 26.2903 33.6268 26.5564L27.7907 32.3925C27.653 32.5301 27.4787 32.5944 27.3043 32.5944C27.13 32.5944 26.9556 32.5301 26.818 32.3925L24.2211 29.7956C23.955 29.5295 23.955 29.089 24.2211 28.8229C24.4872 28.5568 24.9277 28.5568 25.1938 28.8229L27.3043 30.9335L32.6541 25.5837C32.9202 25.3176 33.3606 25.3176 33.6268 25.5837Z" fill="#06385F"/>
<rect x="4.9375" y="4.99268" width="48" height="48" rx="24" stroke="#06385F" stroke-opacity="0.05" stroke-width="8"/>
</g>
</svg>
