<svg width="56" height="56" viewBox="0 0 56 56" fill="none" xmlns="http://www.w3.org/2000/svg">
<rect x="4" y="4" width="48" height="48" rx="24" fill="white"/>
<path d="M44.3535 29.114C44.1692 28.8345 43.9295 28.5958 43.6493 28.4127C43.3691 28.2295 43.0542 28.1059 42.7243 28.0493C42.3736 27.9857 42.0137 27.9936 41.6662 28.0727C41.3186 28.1518 40.9907 28.3004 40.7021 28.5095L34.3914 33.1175C34.0624 32.7095 33.6094 32.4197 33.101 32.2921L26.7317 30.6953C23.4065 27.9865 19.7892 28.3648 15.9738 31.8181L15.6457 31.2646C15.5654 31.1289 15.4592 31.0103 15.333 30.9158C15.2068 30.8212 15.0632 30.7525 14.9104 30.7136C14.7576 30.6746 14.5986 30.6663 14.4426 30.6889C14.2865 30.7116 14.1365 30.7648 14.0011 30.8455L10.3901 32.9993C10.1184 33.162 9.92201 33.4256 9.8438 33.7325C9.7656 34.0394 9.8119 34.3647 9.97261 34.6376L15.6429 44.2253C15.7221 44.3619 15.828 44.4812 15.9544 44.5759C16.0807 44.6706 16.2249 44.7388 16.3782 44.7764C16.4769 44.8021 16.5784 44.8154 16.6803 44.8159C16.8945 44.8153 17.1044 44.7563 17.2875 44.6452L20.8985 42.4894C21.1701 42.3266 21.3663 42.063 21.4444 41.7561C21.5226 41.4493 21.4762 41.124 21.3156 40.8511L21.0764 40.4467L22.5937 39.5457L33.4797 41.1053C33.4996 41.1082 33.5197 41.1096 33.5398 41.1097C33.6392 41.1095 33.7354 41.0747 33.8118 41.0112L43.7755 32.7179C44.3037 32.2973 44.6558 31.6946 44.7627 31.0279C44.8696 30.3612 44.7237 29.6786 44.3535 29.114ZM20.4637 41.7592L16.8527 43.9138C16.8134 43.9372 16.7699 43.9527 16.7246 43.9593C16.6793 43.9659 16.6332 43.9635 16.5889 43.9522C16.5445 43.9409 16.5029 43.921 16.4662 43.8936C16.4296 43.8662 16.3988 43.8318 16.3755 43.7924L10.7048 34.2047C10.6585 34.1256 10.6452 34.0315 10.6678 33.9427C10.6905 33.8539 10.7472 33.7776 10.8257 33.7303L14.4368 31.5757C14.4881 31.5433 14.5475 31.5257 14.6083 31.5251C14.6394 31.5253 14.6704 31.5294 14.7004 31.5374C14.7452 31.5471 14.7873 31.5663 14.8241 31.5935C14.8609 31.6208 14.8915 31.6556 14.9139 31.6955L20.5823 41.2844C20.6291 41.3632 20.6429 41.4573 20.6207 41.5462C20.5985 41.6352 20.5421 41.7117 20.4637 41.7592ZM43.2315 32.0652L33.4133 40.2364L22.5657 38.6823C22.4698 38.669 22.3723 38.6885 22.2889 38.7376L20.6435 39.7153L16.4162 32.566C19.9944 29.261 23.218 28.8843 26.264 31.4117C26.3129 31.4524 26.3703 31.4816 26.4321 31.4971L32.8942 33.1179C33.0977 33.1698 33.2888 33.2616 33.4563 33.388C33.6239 33.5145 33.7647 33.673 33.8703 33.8545C34.0951 34.2294 34.1623 34.6781 34.0573 35.1025C33.9505 35.5154 33.6849 35.8693 33.3182 36.0871C32.9515 36.3049 32.5137 36.369 32.1 36.2652L29.1302 35.5085C29.021 35.4807 28.9051 35.4974 28.8082 35.555C28.7113 35.6125 28.6412 35.7063 28.6133 35.8155C28.5855 35.9248 28.6022 36.0406 28.6598 36.1375C28.7173 36.2345 28.8111 36.3046 28.9203 36.3324L31.8889 37.0883C32.5212 37.2481 33.191 37.1509 33.7518 36.8179C34.3125 36.4849 34.7185 35.9433 34.8808 35.3117C35.0006 34.8329 34.9759 34.3294 34.8096 33.8647L41.2038 29.1962C41.3992 29.0549 41.6211 28.9546 41.8562 28.9013C42.0914 28.8481 42.3349 28.8429 42.5721 28.8863C42.7885 28.9226 42.9951 29.0029 43.1792 29.1223C43.3633 29.2417 43.5209 29.3977 43.6422 29.5805C43.8958 29.9713 43.9943 30.4427 43.9183 30.9024C43.8423 31.362 43.5974 31.7767 43.2315 32.0652ZM39.3362 14.2857H36.7333C36.6775 14.2857 36.6222 14.2967 36.5706 14.3181C36.519 14.3395 36.4722 14.3708 36.4327 14.4103C36.3932 14.4498 36.3619 14.4967 36.3406 14.5483C36.3193 14.5999 36.3083 14.6552 36.3084 14.7111V27.5433C36.3084 27.656 36.3531 27.7641 36.4328 27.8438C36.5125 27.9235 36.6206 27.9683 36.7333 27.9683H39.3362C39.3921 27.9683 39.4474 27.9574 39.499 27.936C39.5506 27.9147 39.5975 27.8834 39.637 27.8439C39.6765 27.8045 39.7078 27.7576 39.7292 27.706C39.7506 27.6544 39.7616 27.5991 39.7616 27.5433V14.7111C39.7616 14.5982 39.7168 14.49 39.637 14.4103C39.5573 14.3305 39.4491 14.2857 39.3362 14.2857ZM38.9112 27.1179H37.1587V15.1361H38.9112V27.1179ZM34.4333 19.2843H31.8304C31.7744 19.2843 31.7189 19.2953 31.6672 19.3167C31.6154 19.3382 31.5684 19.3697 31.5289 19.4094C31.4894 19.449 31.4581 19.4961 31.4368 19.5479C31.4155 19.5998 31.4047 19.6553 31.405 19.7113V27.5433C31.405 27.5991 31.416 27.6544 31.4374 27.706C31.4588 27.7576 31.4901 27.8045 31.5296 27.8439C31.5691 27.8834 31.616 27.9147 31.6676 27.936C31.7192 27.9574 31.7745 27.9683 31.8304 27.9683H34.4333C34.4891 27.9683 34.5444 27.9574 34.596 27.936C34.6476 27.9147 34.6945 27.8834 34.734 27.8439C34.7735 27.8045 34.8049 27.7576 34.8263 27.706C34.8476 27.6544 34.8587 27.5991 34.8587 27.5433V19.7113C34.8589 19.6553 34.8481 19.5998 34.8268 19.5479C34.8056 19.4961 34.7743 19.449 34.7347 19.4094C34.6952 19.3697 34.6482 19.3382 34.5965 19.3167C34.5448 19.2953 34.4893 19.2843 34.4333 19.2843ZM34.0079 27.1179H32.2554V20.1347H34.0079V27.1179ZM26.927 16.3837C26.8142 16.3837 26.706 16.4286 26.6262 16.5083C26.5465 16.5881 26.5016 16.6963 26.5016 16.8091V27.5433C26.5016 27.5991 26.5126 27.6544 26.534 27.706C26.5554 27.7576 26.5867 27.8045 26.6262 27.8439C26.6658 27.8834 26.7127 27.9147 26.7643 27.936C26.8159 27.9574 26.8712 27.9683 26.927 27.9683H29.5299C29.5858 27.9683 29.6411 27.9574 29.6927 27.936C29.7443 27.9147 29.7912 27.8834 29.8307 27.8439C29.8702 27.8045 29.9015 27.7576 29.9229 27.706C29.9443 27.6544 29.9553 27.5991 29.9553 27.5433V16.8091C29.9553 16.6963 29.9105 16.5881 29.8307 16.5083C29.7509 16.4286 29.6427 16.3837 29.5299 16.3837H26.927ZM29.1045 27.1179H27.3524V17.2345H29.1045V27.1179ZM22.0241 27.9683H24.6269C24.6828 27.9683 24.738 27.9573 24.7896 27.9359C24.8411 27.9146 24.888 27.8833 24.9275 27.8438C24.9669 27.8043 24.9982 27.7575 25.0196 27.7059C25.0409 27.6544 25.0519 27.5991 25.0519 27.5433V20.7787C25.052 20.7228 25.041 20.6675 25.0197 20.6159C24.9984 20.5643 24.9671 20.5174 24.9276 20.4779C24.8881 20.4384 24.8413 20.4071 24.7897 20.3857C24.7381 20.3643 24.6828 20.3533 24.6269 20.3533H22.0241C21.9112 20.3533 21.803 20.3981 21.7233 20.4779C21.6435 20.5577 21.5987 20.6659 21.5987 20.7787V27.5433C21.5987 27.5991 21.6097 27.6544 21.6311 27.706C21.6524 27.7576 21.6838 27.8045 21.7233 27.8439C21.7628 27.8834 21.8097 27.9147 21.8613 27.936C21.9129 27.9574 21.9682 27.9683 22.0241 27.9683ZM22.449 21.2033H24.2016V27.1179H22.449V21.2033ZM23.3255 18.7451C23.6142 18.7451 23.8982 18.6726 24.1515 18.5341C24.4047 18.3956 24.6191 18.1956 24.7748 17.9525C24.9305 17.7095 25.0226 17.4312 25.0426 17.1432C25.0625 16.8552 25.0097 16.5669 24.8891 16.3047L27.2002 14.4343C27.5318 14.6819 27.9416 14.8015 28.3543 14.7712C28.767 14.741 29.155 14.5628 29.4469 14.2695L31.4797 15.4717C31.3992 15.7465 31.3886 16.0371 31.4487 16.3171C31.5088 16.597 31.6379 16.8576 31.8241 17.0751C32.0104 17.2926 32.248 17.4602 32.5154 17.5628C32.7827 17.6653 33.0715 17.6995 33.3554 17.6622C33.6394 17.625 33.9095 17.5175 34.1414 17.3495C34.3733 17.1815 34.5597 16.9583 34.6835 16.7001C34.8074 16.4419 34.8649 16.1569 34.8508 15.8709C34.8367 15.5849 34.7515 15.3069 34.6029 15.0621L37.1726 12.4446C37.5351 12.6548 37.962 12.7253 38.3729 12.6431C38.7838 12.5608 39.1506 12.3314 39.4043 11.9978C39.658 11.6643 39.7812 11.2495 39.7508 10.8316C39.7204 10.4136 39.5384 10.0211 39.239 9.72781C38.9397 9.43451 38.5436 9.26058 38.1251 9.23868C37.7066 9.21678 37.2945 9.34842 36.9662 9.60887C36.6379 9.86933 36.4159 10.2407 36.342 10.6532C36.2682 11.0657 36.3474 11.491 36.5649 11.8492L33.9952 14.4667C33.6668 14.2755 33.2843 14.1986 32.9075 14.2481C32.5307 14.2975 32.181 14.4705 31.913 14.7399L29.8806 13.5377C29.9586 13.2709 29.9707 12.9891 29.9161 12.7165C29.8614 12.4439 29.7416 12.1886 29.5667 11.9725C29.3919 11.7563 29.1673 11.5857 28.9122 11.4753C28.6571 11.3648 28.379 11.3178 28.1018 11.3383C27.8245 11.3587 27.5563 11.446 27.3202 11.5927C27.084 11.7394 26.8869 11.9411 26.7457 12.1806C26.6045 12.42 26.5234 12.6902 26.5093 12.9678C26.4952 13.2455 26.5486 13.5224 26.6649 13.7749L24.3538 15.6437C24.1352 15.4808 23.8811 15.3721 23.6124 15.3266C23.3437 15.2811 23.068 15.3001 22.808 15.382C22.548 15.4639 22.3112 15.6063 22.1171 15.7976C21.9229 15.9889 21.777 16.2236 21.6912 16.4823C21.6055 16.741 21.5824 17.0164 21.6239 17.2858C21.6654 17.5551 21.7702 17.8108 21.9298 18.0318C22.0894 18.2527 22.2992 18.4326 22.5419 18.5566C22.7846 18.6806 23.0529 18.7452 23.3255 18.7451ZM38.0348 10.0872C38.2068 10.0872 38.375 10.1382 38.518 10.2338C38.661 10.3294 38.7725 10.4652 38.8383 10.6241C38.9042 10.783 38.9214 10.9579 38.8878 11.1266C38.8543 11.2953 38.7714 11.4503 38.6498 11.5719C38.5282 11.6936 38.3732 11.7764 38.2045 11.81C38.0358 11.8435 37.8609 11.8263 37.702 11.7605C37.543 11.6947 37.4072 11.5832 37.3116 11.4402C37.2161 11.2971 37.165 11.129 37.165 10.9569C37.1652 10.7262 37.2568 10.5048 37.4198 10.3415C37.5828 10.1782 37.804 10.0861 38.0348 10.0856V10.0872ZM33.1318 15.0858C33.3038 15.0858 33.472 15.1369 33.615 15.2324C33.7581 15.328 33.8695 15.4638 33.9354 15.6227C34.0012 15.7817 34.0184 15.9565 33.9849 16.1253C33.9513 16.294 33.8685 16.4489 33.7468 16.5706C33.6252 16.6922 33.4702 16.7751 33.3015 16.8086C33.1328 16.8422 32.9579 16.8249 32.799 16.7591C32.6401 16.6933 32.5042 16.5818 32.4087 16.4388C32.3131 16.2958 32.2621 16.1276 32.2621 15.9556C32.2626 15.7251 32.3544 15.5042 32.5174 15.3412C32.6804 15.1782 32.9013 15.0864 33.1318 15.0858ZM28.2297 12.1857C28.4017 12.1857 28.5698 12.2367 28.7129 12.3322C28.8559 12.4278 28.9674 12.5636 29.0332 12.7226C29.099 12.8815 29.1162 13.0564 29.0827 13.2251C29.0491 13.3938 28.9663 13.5488 28.8447 13.6704C28.723 13.792 28.568 13.8749 28.3993 13.9084C28.2306 13.942 28.0557 13.9248 27.8968 13.8589C27.7379 13.7931 27.6021 13.6816 27.5065 13.5386C27.4109 13.3956 27.3599 13.2274 27.3599 13.0554C27.3599 12.8247 27.4513 12.6035 27.6141 12.4401C27.7769 12.2767 27.9978 12.1845 28.2285 12.1837L28.2297 12.1857ZM23.3255 16.1533C23.4975 16.1533 23.6657 16.2043 23.8087 16.2998C23.9517 16.3954 24.0632 16.5312 24.129 16.6902C24.1949 16.8491 24.2121 17.024 24.1785 17.1927C24.145 17.3614 24.0621 17.5164 23.9405 17.638C23.8189 17.7596 23.6639 17.8425 23.4952 17.876C23.3265 17.9096 23.1516 17.8924 22.9927 17.8265C22.8337 17.7607 22.6979 17.6492 22.6023 17.5062C22.5068 17.3632 22.4558 17.195 22.4558 17.023C22.4564 16.7925 22.5482 16.5717 22.7112 16.4087C22.8742 16.2457 23.095 16.1539 23.3255 16.1533Z" fill="#06385F"/>
<rect x="4" y="4" width="48" height="48" rx="24" stroke="#06385F" stroke-opacity="0.05" stroke-width="8"/>
</svg>
