<svg width="57" height="57" viewBox="0 0 57 57" fill="none" xmlns="http://www.w3.org/2000/svg">
<g id="Featured icon">
<rect x="4.9375" y="4.99268" width="48" height="48" rx="24" fill="white"/>
<path id="Vector" d="M38.7809 15.4819H21.8223C20.3612 15.4819 19.1726 16.6706 19.1726 18.1317V20.2515H18.6426C17.7661 20.2515 17.0527 20.9648 17.0527 21.8414C17.0527 22.7179 17.7661 23.4313 18.6426 23.4313H19.1726V27.1409H18.6426C17.7661 27.1409 17.0527 27.8543 17.0527 28.7308C17.0527 29.6074 17.7661 30.3207 18.6426 30.3207H19.1726V34.0304H18.6426C17.7661 34.0304 17.0527 34.7437 17.0527 35.6202C17.0527 36.4968 17.7661 37.2101 18.6426 37.2101H19.1726V39.3299C19.1726 40.791 20.3612 41.9797 21.8223 41.9797H38.7809C40.242 41.9797 41.4307 40.791 41.4307 39.3299V18.1317C41.4307 16.6706 40.242 15.4819 38.7809 15.4819ZM18.1126 21.8414C18.1126 21.5494 18.3506 21.3114 18.6426 21.3114H21.2924C21.5844 21.3114 21.8223 21.5494 21.8223 21.8414C21.8223 22.1334 21.5844 22.3713 21.2924 22.3713H18.6426C18.3506 22.3713 18.1126 22.1334 18.1126 21.8414ZM18.1126 28.7308C18.1126 28.4388 18.3506 28.2009 18.6426 28.2009H21.2924C21.5844 28.2009 21.8223 28.4388 21.8223 28.7308C21.8223 29.0228 21.5844 29.2608 21.2924 29.2608H18.6426C18.3506 29.2608 18.1126 29.0228 18.1126 28.7308ZM18.1126 35.6202C18.1126 35.3282 18.3506 35.0903 18.6426 35.0903H21.2924C21.5844 35.0903 21.8223 35.3282 21.8223 35.6202C21.8223 35.9122 21.5844 36.1502 21.2924 36.1502H18.6426C18.3506 36.1502 18.1126 35.9122 18.1126 35.6202ZM40.3708 39.3299C40.3708 40.2065 39.6574 40.9198 38.7809 40.9198H21.8223C20.9458 40.9198 20.2325 40.2065 20.2325 39.3299V37.2101H21.2924C22.1689 37.2101 22.8822 36.4968 22.8822 35.6202C22.8822 34.7437 22.1689 34.0304 21.2924 34.0304H20.2325V30.3207H21.2924C22.1689 30.3207 22.8822 29.6074 22.8822 28.7308C22.8822 27.8543 22.1689 27.1409 21.2924 27.1409H20.2325V23.4313H21.2924C22.1689 23.4313 22.8822 22.7179 22.8822 21.8414C22.8822 20.9648 22.1689 20.2515 21.2924 20.2515H20.2325V18.1317C20.2325 17.2552 20.9458 16.5418 21.8223 16.5418H38.7809C39.6574 16.5418 40.3708 17.2552 40.3708 18.1317V39.3299ZM35.6012 20.2515H25.0021C24.7095 20.2515 24.4721 20.4889 24.4721 20.7815V25.5511C24.4721 25.8436 24.7095 26.081 25.0021 26.081H35.6012C35.8937 26.081 36.1311 25.8436 36.1311 25.5511V20.7815C36.1311 20.4889 35.8937 20.2515 35.6012 20.2515ZM35.0712 25.0211H25.532V21.3114H35.0712V25.0211Z" fill="#06385F"/>
<rect x="4.9375" y="4.99268" width="48" height="48" rx="24" stroke="#06385F" stroke-opacity="0.05" stroke-width="8"/>
</g>
</svg>
