<svg width="56" height="56" viewBox="0 0 56 56" fill="none" xmlns="http://www.w3.org/2000/svg">
<rect x="4" y="4" width="48" height="48" rx="24" fill="white"/>
<path fill-rule="evenodd" clip-rule="evenodd" d="M29.9429 29.7054C30.7285 28.5193 31.7867 27.5386 33.029 26.8453L31.2143 25.0683C30.9189 24.7692 30.5633 24.5361 30.1711 24.3846C29.7789 24.2331 29.359 24.1665 28.9392 24.1893L26.9811 24.2623C26.7779 24.2672 26.5816 24.3366 26.4203 24.4603C26.2591 24.5841 26.1413 24.7558 26.0839 24.9508L25.8239 25.7836C25.7601 25.976 25.7591 26.1836 25.8211 26.3766C25.883 26.5695 26.0047 26.7378 26.1686 26.857L29.9429 29.7054ZM36.9232 28.6077C36.9214 28.5505 36.9312 28.4935 36.9518 28.4401C36.9725 28.3868 37.0037 28.3381 37.0435 28.297C37.0834 28.256 37.131 28.2233 37.1837 28.201C37.2364 28.1787 37.2931 28.1672 37.3503 28.1672C37.4075 28.1672 37.4642 28.1787 37.5169 28.201C37.5696 28.2233 37.6173 28.256 37.6571 28.297C37.6969 28.3381 37.7281 28.3868 37.7488 28.4401C37.7694 28.4935 37.7792 28.5505 37.7774 28.6077V28.9175C38.5104 29.0207 39.1815 29.3851 39.6672 29.9437C40.1528 30.5024 40.4203 31.2176 40.4204 31.9579C40.4204 32.0712 40.3754 32.1799 40.2952 32.26C40.2151 32.3402 40.1064 32.3852 39.9931 32.3852C39.8797 32.3852 39.771 32.3402 39.6909 32.26C39.6108 32.1799 39.5657 32.0712 39.5657 31.9579C39.5579 31.3755 39.321 30.8196 38.9064 30.4106C38.4918 30.0015 37.9327 29.7722 37.3503 29.7722C36.7679 29.7722 36.2089 30.0015 35.7942 30.4106C35.3796 30.8196 35.1427 31.3755 35.1349 31.9579C35.1349 33.634 36.2921 33.9094 37.4489 34.1857C38.9347 34.5393 40.4204 34.8933 40.4204 37.2438C40.4203 37.9841 40.1528 38.6993 39.6672 39.258C39.1815 39.8166 38.5104 40.181 37.7774 40.2842V40.5944C37.774 40.7054 37.7275 40.8107 37.6478 40.8881C37.5681 40.9654 37.4614 41.0086 37.3503 41.0086C37.2392 41.0086 37.1325 40.9654 37.0528 40.8881C36.9731 40.8107 36.9266 40.7054 36.9232 40.5944V40.2842C36.1902 40.181 35.5192 39.8165 35.0337 39.2579C34.5481 38.6992 34.2807 37.984 34.2806 37.2438C34.2788 37.1866 34.2886 37.1297 34.3093 37.0763C34.3299 37.0229 34.3611 36.9743 34.4009 36.9332C34.4408 36.8921 34.4885 36.8594 34.5412 36.8371C34.5939 36.8148 34.6505 36.8033 34.7077 36.8033C34.765 36.8033 34.8216 36.8148 34.8743 36.8371C34.927 36.8594 34.9747 36.8921 35.0145 36.9332C35.0544 36.9743 35.0855 37.0229 35.1062 37.0763C35.1269 37.1297 35.1366 37.1866 35.1349 37.2438C35.1427 37.8262 35.3796 38.3821 35.7942 38.7911C36.2089 39.2002 36.7679 39.4295 37.3503 39.4295C37.9327 39.4295 38.4918 39.2002 38.9064 38.7911C39.321 38.3821 39.5579 37.8262 39.5657 37.2438C39.5657 35.5677 38.4089 35.2923 37.2521 35.016C35.7663 34.662 34.2806 34.3084 34.2806 31.9575C34.2807 31.2173 34.5481 30.5021 35.0337 29.9434C35.5192 29.3848 36.1902 29.0203 36.9232 28.9171V28.6077ZM19.0105 14.703L16.4805 13.4101C16.3896 13.3646 16.2844 13.3567 16.1877 13.388C16.091 13.4193 16.0104 13.4873 15.9633 13.5773L10.6652 23.9439C10.6199 24.0349 10.6121 24.14 10.6434 24.2367C10.6748 24.3335 10.7428 24.414 10.8329 24.4611L13.3628 25.7541C13.4538 25.7995 13.5589 25.8074 13.6556 25.7761C13.7524 25.7449 13.833 25.6769 13.8801 25.5868L19.1778 15.2202C19.2232 15.1293 19.2311 15.0242 19.1998 14.9274C19.1686 14.8307 19.1006 14.7501 19.0105 14.703ZM16.8678 12.6522L19.3977 13.9455C19.6795 14.0896 19.8954 14.3361 20.0009 14.6345C20.1064 14.9329 20.0935 15.2604 19.9648 15.5496L22.2813 16.4127L31.9135 18.195C32.8537 18.3565 33.6993 18.8645 34.2834 19.6187L39.3061 25.944C40.9153 26.3077 42.3912 27.1126 43.5684 28.2684C44.7457 29.4242 45.5775 30.8851 45.9707 32.4873C46.3639 34.0895 46.3029 35.7696 45.7945 37.339C45.2861 38.9085 44.3504 40.3052 43.0925 41.3725C41.8345 42.4398 40.304 43.1355 38.6727 43.3815C37.0414 43.6275 35.3738 43.4141 33.8571 42.7652C32.3403 42.1162 31.0344 41.0575 30.0858 39.7078C29.1372 38.358 28.5835 36.7707 28.4867 35.1238L17.1525 28.8576C16.8967 28.718 16.6644 28.5393 16.4639 28.3278L14.4593 26.2341C14.2772 26.4376 14.0329 26.5752 13.7645 26.6255C13.4961 26.6757 13.2186 26.6358 12.9752 26.5119L10.4456 25.2186C10.1545 25.0692 9.93443 24.8106 9.83361 24.4993C9.73279 24.1881 9.75944 23.8495 9.90772 23.5579L15.2058 13.1913C15.3552 12.9002 15.6138 12.6801 15.9251 12.5793C16.2363 12.4785 16.5749 12.5051 16.8665 12.6534L16.8678 12.6522ZM19.5735 16.3131L22.0038 17.2172C22.0316 17.2286 22.0605 17.2372 22.0901 17.2427L31.7579 19.0306C32.4955 19.1546 33.1587 19.5535 33.6139 20.1469L38.0683 25.7537C37.9625 25.7452 37.8568 25.7383 37.7499 25.7334C36.4088 25.6706 35.0711 25.9143 33.8383 26.4459L31.813 24.4611C31.4347 24.0808 30.9807 23.7844 30.4803 23.5911C29.9799 23.3977 29.4445 23.3119 28.9088 23.3391L26.9508 23.4121C26.5712 23.4226 26.2046 23.5523 25.9028 23.7827C25.6011 24.0132 25.3795 24.3327 25.2694 24.6961L25.0093 25.5293C24.894 25.8893 24.8941 26.2765 25.0098 26.6364C25.1254 26.9964 25.3507 27.3112 25.6542 27.5367L31.1269 31.6683C31.584 32.488 31.8182 33.4132 31.8061 34.3517C31.7952 34.5992 31.7087 34.8374 31.5582 35.0343C31.4965 35.1029 31.4218 35.1586 31.3383 35.1981C31.2549 35.2376 31.1644 35.2601 31.0722 35.2643C30.623 35.2648 30.1838 35.1321 29.81 34.8832L29.8027 34.8791L17.5632 28.1099C17.4736 28.0613 17.3879 28.0059 17.3068 27.9442C17.2256 27.881 17.1492 27.8119 17.0784 27.7372L14.8996 25.4616L19.5735 16.3131ZM29.3867 35.6216L29.3944 35.6256C29.9147 35.9613 30.5241 36.1322 31.1431 36.1162C31.3454 36.1034 31.5432 36.0505 31.7249 35.9606C31.9066 35.8707 32.0686 35.7455 32.2015 35.5924C32.4691 35.2624 32.6268 34.8569 32.6527 34.4328C32.7337 33.6206 32.4963 32.5181 31.8547 31.2191C31.8254 31.152 31.7794 31.0936 31.7211 31.0493L30.6226 30.2202C31.3537 29.1014 32.3512 28.1817 33.5256 27.5436C35.032 26.7282 36.7599 26.4164 38.4563 26.6537C40.1527 26.891 41.7287 27.6651 42.9535 28.8625C44.1784 30.06 44.9878 31.618 45.2635 33.3086C45.5391 34.9993 45.2664 36.7337 44.4853 38.2582C43.7042 39.7827 42.4557 41.0172 40.9225 41.781C39.3893 42.5449 37.6519 42.798 35.9645 42.5033C34.2771 42.2087 32.7283 41.3817 31.5447 40.1434C30.3611 38.9051 29.6049 37.3206 29.3867 35.6216Z" fill="#06385F"/>
<rect x="4" y="4" width="48" height="48" rx="24" stroke="#06385F" stroke-opacity="0.05" stroke-width="8"/>
</svg>
