<svg width="24" height="25" viewBox="0 0 24 25" fill="none" xmlns="http://www.w3.org/2000/svg">
<g id="uil:instagram">
<path id="Vector" d="M17.34 6.38432C17.1027 6.38432 16.8707 6.4547 16.6733 6.58655C16.476 6.71841 16.3222 6.90582 16.2313 7.1251C16.1405 7.34437 16.1168 7.58565 16.1631 7.81842C16.2094 8.0512 16.3236 8.26502 16.4915 8.43284C16.6593 8.60067 16.8731 8.71496 17.1059 8.76126C17.3387 8.80756 17.5799 8.7838 17.7992 8.69297C18.0185 8.60215 18.2059 8.44834 18.3378 8.251C18.4696 8.05366 18.54 7.82165 18.54 7.58432C18.54 7.26606 18.4136 6.96083 18.1885 6.73579C17.9635 6.51074 17.6583 6.38432 17.34 6.38432ZM21.94 8.80432C21.9206 7.97461 21.7652 7.15372 21.48 6.37432C21.2257 5.70745 20.83 5.1036 20.32 4.60432C19.8248 4.09174 19.2196 3.69849 18.55 3.45432C17.7727 3.16048 16.9508 3.00153 16.12 2.98432C15.06 2.92432 14.72 2.92432 12 2.92432C9.28 2.92432 8.94 2.92432 7.88 2.98432C7.04915 3.00153 6.22734 3.16048 5.45 3.45432C4.78168 3.70096 4.17693 4.09388 3.68 4.60432C3.16743 5.09949 2.77418 5.70476 2.53 6.37432C2.23616 7.15166 2.07721 7.97347 2.06 8.80432C2 9.86432 2 10.2043 2 12.9243C2 15.6443 2 15.9843 2.06 17.0443C2.07721 17.8752 2.23616 18.697 2.53 19.4743C2.77418 20.1439 3.16743 20.7491 3.68 21.2443C4.17693 21.7548 4.78168 22.1477 5.45 22.3943C6.22734 22.6882 7.04915 22.8471 7.88 22.8643C8.94 22.9243 9.28 22.9243 12 22.9243C14.72 22.9243 15.06 22.9243 16.12 22.8643C16.9508 22.8471 17.7727 22.6882 18.55 22.3943C19.2196 22.1501 19.8248 21.7569 20.32 21.2443C20.8322 20.7469 21.2283 20.1425 21.48 19.4743C21.7652 18.6949 21.9206 17.874 21.94 17.0443C21.94 15.9843 22 15.6443 22 12.9243C22 10.2043 22 9.86432 21.94 8.80432ZM20.14 16.9243C20.1327 17.5591 20.0178 18.188 19.8 18.7843C19.6403 19.2195 19.3839 19.6127 19.05 19.9343C18.7256 20.2648 18.3332 20.5208 17.9 20.6843C17.3037 20.9021 16.6748 21.017 16.04 21.0243C15.04 21.0743 14.67 21.0843 12.04 21.0843C9.41 21.0843 9.04 21.0843 8.04 21.0243C7.38089 21.0367 6.72459 20.9352 6.1 20.7243C5.68578 20.5524 5.31136 20.2971 5 19.9743C4.66809 19.6531 4.41484 19.2595 4.26 18.8243C4.01586 18.2195 3.88044 17.5763 3.86 16.9243C3.86 15.9243 3.8 15.5543 3.8 12.9243C3.8 10.2943 3.8 9.92432 3.86 8.92432C3.86448 8.27537 3.98295 7.63226 4.21 7.02432C4.38605 6.60223 4.65627 6.22597 5 5.92432C5.30381 5.58048 5.67929 5.30741 6.1 5.12432C6.70955 4.90436 7.352 4.7894 8 4.78432C9 4.78432 9.37 4.72432 12 4.72432C14.63 4.72432 15 4.72432 16 4.78432C16.6348 4.7916 17.2637 4.90656 17.86 5.12432C18.3144 5.29297 18.7223 5.56716 19.05 5.92432C19.3777 6.23149 19.6338 6.60705 19.8 7.02432C20.0223 7.63325 20.1373 8.2761 20.14 8.92432C20.19 9.92432 20.2 10.2943 20.2 12.9243C20.2 15.5543 20.19 15.9243 20.14 16.9243ZM12 7.79432C10.9858 7.79629 9.99496 8.09884 9.15265 8.66373C8.31035 9.22863 7.65438 10.0305 7.26763 10.9681C6.88089 11.9056 6.78072 12.9368 6.97979 13.9312C7.17886 14.9257 7.66824 15.8389 8.38608 16.5553C9.10392 17.2717 10.018 17.7593 11.0129 17.9565C12.0077 18.1536 13.0387 18.0514 13.9755 17.6629C14.9123 17.2743 15.7129 16.6168 16.2761 15.7733C16.8394 14.9299 17.14 13.9385 17.14 12.9243C17.1413 12.2494 17.0092 11.5809 16.7512 10.9573C16.4933 10.3336 16.1146 9.76713 15.6369 9.29037C15.1592 8.81361 14.5919 8.43599 13.9678 8.17925C13.3436 7.9225 12.6749 7.79168 12 7.79432ZM12 16.2543C11.3414 16.2543 10.6976 16.059 10.15 15.6931C9.60234 15.3272 9.17552 14.8071 8.92348 14.1987C8.67144 13.5902 8.6055 12.9206 8.73398 12.2747C8.86247 11.6287 9.17963 11.0354 9.64533 10.5697C10.111 10.1039 10.7044 9.78679 11.3503 9.6583C11.9963 9.52981 12.6659 9.59576 13.2743 9.8478C13.8828 10.0998 14.4029 10.5267 14.7688 11.0743C15.1347 11.6219 15.33 12.2657 15.33 12.9243C15.33 13.3616 15.2439 13.7946 15.0765 14.1987C14.9092 14.6027 14.6639 14.9698 14.3547 15.279C14.0454 15.5882 13.6784 15.8335 13.2743 16.0008C12.8703 16.1682 12.4373 16.2543 12 16.2543Z" fill="white"/>
</g>
</svg>
