<svg width="13" height="13" viewBox="0 0 13 13" fill="none" xmlns="http://www.w3.org/2000/svg">
<path id="Vector" d="M6.19517 0.935812L1.19517 5.93581C1.10413 6.03091 1.03276 6.14306 0.985169 6.26581C0.885151 6.50927 0.885151 6.78235 0.98517 7.02581C1.03276 7.14856 1.10413 7.26071 1.19517 7.35581L6.19517 12.3558C6.28841 12.449 6.3991 12.523 6.52092 12.5735C6.64274 12.6239 6.77331 12.6499 6.90517 12.6499C7.17147 12.6499 7.42687 12.5441 7.61517 12.3558C7.80347 12.1675 7.90926 11.9121 7.90926 11.6458C7.90926 11.3795 7.80347 11.1241 7.61517 10.9358L4.31517 7.64581L11.9052 7.64581C12.1704 7.64581 12.4247 7.54045 12.6123 7.35292C12.7998 7.16538 12.9052 6.91103 12.9052 6.64581C12.9052 6.38059 12.7998 6.12624 12.6123 5.9387C12.4247 5.75117 12.1704 5.64581 11.9052 5.64581L4.31517 5.64581L7.61517 2.35581C7.7089 2.26285 7.78329 2.15225 7.83406 2.03039C7.88483 1.90853 7.91097 1.77782 7.91097 1.64581C7.91097 1.5138 7.88483 1.38309 7.83406 1.26123C7.78329 1.13937 7.7089 1.02877 7.61517 0.935812C7.52221 0.842084 7.41161 0.767688 7.28975 0.716919C7.16789 0.66615 7.03718 0.640012 6.90517 0.640012C6.77316 0.640012 6.64245 0.66615 6.52059 0.716919C6.39873 0.767688 6.28813 0.842084 6.19517 0.935812Z" fill="white" fill-opacity="0.8"/>
</svg>
