<svg width="23" height="18" viewBox="0 0 23 18" fill="none" xmlns="http://www.w3.org/2000/svg">
<path id="Icon" d="M1.90625 4L10.0712 9.71544C10.7323 10.1783 11.0629 10.4097 11.4225 10.4993C11.7401 10.5785 12.0724 10.5785 12.39 10.4993C12.7496 10.4097 13.0802 10.1783 13.7413 9.71544L21.9062 4M6.70625 17H17.1062C18.7864 17 19.6265 17 20.2682 16.673C20.8327 16.3854 21.2916 15.9265 21.5793 15.362C21.9062 14.7202 21.9062 13.8802 21.9062 12.2V5.8C21.9062 4.11984 21.9062 3.27976 21.5793 2.63803C21.2916 2.07354 20.8327 1.6146 20.2682 1.32698C19.6265 1 18.7864 1 17.1062 1H6.70625C5.02609 1 4.18601 1 3.54428 1.32698C2.97979 1.6146 2.52085 2.07354 2.23323 2.63803C1.90625 3.27976 1.90625 4.11984 1.90625 5.8V12.2C1.90625 13.8802 1.90625 14.7202 2.23323 15.362C2.52085 15.9265 2.97979 16.3854 3.54428 16.673C4.18601 17 5.02609 17 6.70625 17Z" stroke="#06385F" stroke-width="2" stroke-linecap="round" stroke-linejoin="round"/>
</svg>
