<svg width="24" height="25" viewBox="0 0 24 25" fill="none" xmlns="http://www.w3.org/2000/svg">
<g id="akar-icons:linkedin-fill">
<path id="Vector" fill-rule="evenodd" clip-rule="evenodd" d="M9.429 9.89332H13.143V11.7433C13.678 10.6793 15.05 9.72332 17.111 9.72332C21.062 9.72332 22 11.8413 22 15.7273V22.9243H18V16.6123C18 14.3993 17.465 13.1513 16.103 13.1513C14.214 13.1513 13.429 14.4963 13.429 16.6113V22.9243H9.429V9.89332ZM2.57 22.7543H6.57V9.72332H2.57V22.7543ZM7.143 5.47432C7.14315 5.80959 7.07666 6.14155 6.94739 6.4509C6.81812 6.76026 6.62865 7.04083 6.39 7.27632C5.9064 7.75694 5.25181 8.02597 4.57 8.02432C3.88939 8.02386 3.23631 7.75552 2.752 7.27732C2.51421 7.04103 2.32539 6.76014 2.19634 6.45075C2.0673 6.14136 2.00058 5.80954 2 5.47432C2 4.79732 2.27 4.14932 2.753 3.67132C3.23689 3.19247 3.89024 2.92402 4.571 2.92432C5.253 2.92432 5.907 3.19332 6.39 3.67132C6.872 4.14932 7.143 4.79732 7.143 5.47432Z" fill="white"/>
</g>
</svg>
