<svg width="115" height="20" viewBox="0 0 115 20" fill="none" xmlns="http://www.w3.org/2000/svg">
<path d="M0.793324 19V0.818181H4.0071V7.61861H4.14027C4.30599 7.28717 4.53977 6.93501 4.84162 6.56214C5.14347 6.18336 5.55185 5.86079 6.06676 5.59446C6.58168 5.32221 7.23864 5.18608 8.03764 5.18608C9.09115 5.18608 10.0411 5.45537 10.8874 5.99396C11.7397 6.52663 12.4144 7.31676 12.9116 8.36435C13.4147 9.40601 13.6662 10.6844 13.6662 12.1996C13.6662 13.697 13.4206 14.9695 12.9293 16.017C12.4381 17.0646 11.7693 17.8636 10.9229 18.4141C10.0766 18.9645 9.11778 19.2397 8.04652 19.2397C7.26527 19.2397 6.61719 19.1095 6.10227 18.8491C5.58736 18.5887 5.17306 18.275 4.85938 17.908C4.55161 17.5352 4.31191 17.183 4.14027 16.8516H3.95384V19H0.793324ZM3.94496 12.1818C3.94496 13.0637 4.06925 13.8361 4.31783 14.4989C4.57233 15.1618 4.93632 15.6797 5.4098 16.0526C5.8892 16.4195 6.46922 16.603 7.14986 16.603C7.86009 16.603 8.4549 16.4136 8.9343 16.0348C9.41371 15.6501 9.77474 15.1263 10.0174 14.4634C10.266 13.7946 10.3903 13.0341 10.3903 12.1818C10.3903 11.3355 10.2689 10.5838 10.0263 9.92685C9.78362 9.26989 9.42259 8.75497 8.94318 8.3821C8.46378 8.00923 7.866 7.8228 7.14986 7.8228C6.46331 7.8228 5.88033 8.00331 5.40092 8.36435C4.92152 8.72538 4.55753 9.23142 4.30895 9.88246C4.06629 10.5335 3.94496 11.3 3.94496 12.1818ZM19.1121 0.818181V19H15.8983V0.818181H19.1121ZM30.6083 13.2649V5.36364H33.8221V19H30.706V16.5763H30.5639C30.2562 17.3398 29.7501 17.9643 29.0458 18.4496C28.3474 18.9349 27.4863 19.1776 26.4624 19.1776C25.5687 19.1776 24.7785 18.9793 24.092 18.5827C23.4113 18.1803 22.8787 17.5973 22.494 16.8338C22.1093 16.0644 21.9169 15.1352 21.9169 14.0462V5.36364H25.1307V13.549C25.1307 14.4131 25.3674 15.0997 25.8409 15.6087C26.3144 16.1177 26.9358 16.3722 27.7053 16.3722C28.1787 16.3722 28.6374 16.2567 29.0813 16.0259C29.5252 15.7951 29.8892 15.4518 30.1733 14.9961C30.4633 14.5344 30.6083 13.9574 30.6083 13.2649ZM42.6638 19.2663C41.2966 19.2663 40.1159 18.9822 39.1215 18.4141C38.1331 17.84 37.3726 17.0291 36.8399 15.9815C36.3073 14.928 36.0409 13.6881 36.0409 12.2617C36.0409 10.859 36.3073 9.62796 36.8399 8.56854C37.3785 7.5032 38.1302 6.6746 39.0949 6.08274C40.0596 5.48497 41.193 5.18608 42.4951 5.18608C43.3356 5.18608 44.1286 5.32221 44.8744 5.59446C45.626 5.86079 46.2889 6.27509 46.863 6.83736C47.443 7.39962 47.8988 8.11577 48.2302 8.9858C48.5616 9.84991 48.7274 10.8797 48.7274 12.0753V13.0607H37.5502V10.8945H45.6468C45.6408 10.279 45.5077 9.73153 45.2472 9.25213C44.9868 8.76681 44.6228 8.38506 44.1553 8.10689C43.6936 7.82872 43.155 7.68963 42.5395 7.68963C41.8825 7.68963 41.3055 7.84943 40.8083 8.16903C40.3112 8.48272 39.9235 8.89702 39.6453 9.41193C39.3731 9.92093 39.234 10.4802 39.2281 11.0898V12.9808C39.2281 13.7739 39.3731 14.4545 39.6631 15.0227C39.9531 15.585 40.3585 16.017 40.8794 16.3189C41.4002 16.6148 42.0098 16.7628 42.7082 16.7628C43.1758 16.7628 43.5989 16.6977 43.9777 16.5675C44.3565 16.4313 44.685 16.2331 44.9632 15.9727C45.2413 15.7122 45.4514 15.3897 45.5935 15.005L48.5942 15.3423C48.4048 16.1354 48.0438 16.8279 47.5111 17.4197C46.9843 18.0057 46.3096 18.4614 45.4869 18.7869C44.6643 19.1065 43.7232 19.2663 42.6638 19.2663ZM52.6241 10.1577V19H51.541V0.818181H52.6241V7.52095H52.7306C53.0502 6.81072 53.5592 6.2455 54.2576 5.82528C54.9619 5.39915 55.8053 5.18608 56.7878 5.18608C57.7052 5.18608 58.5131 5.38139 59.2115 5.77202C59.9099 6.15672 60.4544 6.71011 60.845 7.43217C61.2415 8.14832 61.4398 9.00651 61.4398 10.0067V19H60.3656V10.0511C60.3656 8.88518 60.0194 7.95005 59.3269 7.24574C58.6344 6.54143 57.72 6.18928 56.5836 6.18928C55.8201 6.18928 55.1395 6.35499 54.5417 6.68643C53.944 7.01787 53.4734 7.48248 53.1301 8.08026C52.7928 8.67211 52.6241 9.36458 52.6241 10.1577ZM69.0342 19.293C68.247 19.293 67.5249 19.1361 66.868 18.8224C66.2169 18.5088 65.6932 18.0501 65.2966 17.4464C64.906 16.8427 64.7107 16.1088 64.7107 15.2447C64.7107 14.6765 64.8113 14.1764 65.0125 13.7443C65.2137 13.3123 65.5245 12.9394 65.9447 12.6257C66.3649 12.312 66.9035 12.0546 67.5605 11.8533C68.2174 11.6462 69.0016 11.4864 69.9131 11.3739C70.6056 11.2911 71.224 11.2112 71.7686 11.1342C72.3131 11.0514 72.7392 10.9241 73.047 10.7525C73.3606 10.5808 73.5175 10.3204 73.5175 9.97124V9.40305C73.5175 8.40874 73.2038 7.61861 72.5764 7.03267C71.9491 6.44673 71.085 6.15376 69.9841 6.15376C69.0075 6.15376 68.1849 6.36979 67.5161 6.80185C66.8532 7.22798 66.3886 7.77841 66.1222 8.45312L65.1013 8.07138C65.3617 7.42034 65.7375 6.87879 66.2288 6.44673C66.7259 6.01468 67.2941 5.69212 67.9333 5.47905C68.5785 5.26598 69.2532 5.15945 69.9575 5.15945C70.5671 5.15945 71.1471 5.24526 71.6975 5.4169C72.2539 5.58854 72.7481 5.84896 73.1801 6.19815C73.6181 6.54735 73.9643 6.9942 74.2188 7.53871C74.4733 8.0773 74.6006 8.72242 74.6006 9.47408V19H73.5175V16.5408H73.4376C73.2008 17.0498 72.8753 17.5144 72.461 17.9347C72.0526 18.349 71.5584 18.6804 70.9784 18.929C70.4043 19.1716 69.7562 19.293 69.0342 19.293ZM69.1407 18.2898C69.993 18.2898 70.7476 18.0826 71.4046 17.6683C72.0674 17.2481 72.5853 16.674 72.9582 15.946C73.3311 15.218 73.5175 14.3924 73.5175 13.4691V11.4627C73.3814 11.5811 73.1831 11.6876 72.9227 11.7823C72.6682 11.8711 72.3782 11.951 72.0526 12.022C71.733 12.0871 71.3957 12.1463 71.0406 12.1996C70.6914 12.2469 70.3511 12.2913 70.0196 12.3327C69.0253 12.4511 68.2145 12.6346 67.5871 12.8832C66.9656 13.1258 66.5099 13.4454 66.2199 13.842C65.9358 14.2385 65.7938 14.7179 65.7938 15.2802C65.7938 16.2094 66.1134 16.9433 66.7526 17.4819C67.3918 18.0205 68.1878 18.2898 69.1407 18.2898ZM88.1231 5.36364L83.1959 19H81.9708L77.0436 5.36364H78.2066L82.539 17.6062H82.6278L86.9601 5.36364H88.1231ZM95.8374 19.2841C94.6063 19.2841 93.535 18.9793 92.6236 18.3697C91.7121 17.7601 91.0078 16.9255 90.5107 15.8661C90.0135 14.8067 89.7649 13.5993 89.7649 12.244C89.7649 10.8827 90.0135 9.66939 90.5107 8.60405C91.0137 7.53871 91.7032 6.69827 92.5792 6.08274C93.4551 5.46721 94.4554 5.15945 95.5799 5.15945C96.3434 5.15945 97.0655 5.31333 97.7461 5.62109C98.4326 5.92294 99.0363 6.36091 99.5572 6.93501C100.084 7.50911 100.495 8.20159 100.791 9.01243C101.093 9.82327 101.244 10.7347 101.244 11.7468V12.4215H90.4485V11.4361H100.161C100.161 10.4477 99.9596 9.55694 99.5572 8.76385C99.1547 7.97076 98.6072 7.34044 97.9148 6.87287C97.2223 6.4053 96.444 6.17152 95.5799 6.17152C94.6744 6.17152 93.8665 6.42602 93.1562 6.93501C92.4519 7.43809 91.8926 8.11873 91.4783 8.97692C91.07 9.83511 90.8569 10.7939 90.8391 11.8533V12.2972C90.8391 13.4336 91.0374 14.4545 91.4339 15.3601C91.8364 16.2597 92.4105 16.9729 93.1562 17.4996C93.902 18.0205 94.7957 18.2809 95.8374 18.2809C96.5831 18.2809 97.2193 18.1566 97.7461 17.908C98.2788 17.6535 98.7138 17.3458 99.0511 16.9847C99.3885 16.6237 99.643 16.2745 99.8146 15.9371L100.8 16.3366C100.593 16.7924 100.27 17.2481 99.8324 17.7038C99.4003 18.1536 98.8499 18.5295 98.1811 18.8313C97.5182 19.1332 96.737 19.2841 95.8374 19.2841ZM105.556 10.1577V19H104.473V5.36364H105.529V7.52095H105.636C105.955 6.81664 106.467 6.25142 107.172 5.82528C107.876 5.39915 108.713 5.18608 109.684 5.18608C110.601 5.18608 111.406 5.38139 112.099 5.77202C112.797 6.16264 113.342 6.71899 113.732 7.44105C114.129 8.1572 114.327 9.01243 114.327 10.0067V19H113.244V10.0511C113.244 8.8911 112.898 7.95892 112.205 7.25462C111.519 6.54439 110.61 6.18928 109.48 6.18928C108.722 6.18928 108.047 6.35499 107.456 6.68643C106.864 7.01787 106.399 7.48248 106.062 8.08026C105.724 8.67211 105.556 9.36458 105.556 10.1577Z" fill="white"/>
</svg>
