<svg width="22" height="22" viewBox="0 0 22 22" fill="none" xmlns="http://www.w3.org/2000/svg">
<path id="Icon" d="M7.35684 7.99593C8.05284 9.44555 9.00162 10.8042 10.2032 12.0058C11.4048 13.2073 12.7634 14.1561 14.213 14.8521C14.3377 14.912 14.4001 14.9419 14.479 14.9649C14.7593 15.0467 15.1036 14.988 15.341 14.8179C15.4078 14.7701 15.465 14.7129 15.5793 14.5986C15.9289 14.249 16.1037 14.0742 16.2795 13.9599C16.9424 13.5289 17.7969 13.5289 18.4598 13.9599C18.6356 14.0742 18.8104 14.249 19.16 14.5986L19.3549 14.7935C19.8863 15.3249 20.1521 15.5907 20.2964 15.876C20.5835 16.4436 20.5835 17.1139 20.2964 17.6814C20.1521 17.9668 19.8863 18.2325 19.3549 18.764L19.1973 18.9216C18.6676 19.4512 18.4028 19.716 18.0428 19.9183C17.6433 20.1427 17.0228 20.3041 16.5646 20.3027C16.1516 20.3015 15.8694 20.2214 15.305 20.0612C12.2716 19.2002 9.4092 17.5757 7.02122 15.1877C4.63324 12.7998 3.00877 9.93741 2.1478 6.90401C1.98759 6.33957 1.90749 6.05734 1.90626 5.6444C1.90489 5.18618 2.06626 4.56568 2.29068 4.16618C2.49293 3.80615 2.75774 3.54133 3.28736 3.01171L3.44499 2.85408C3.97644 2.32263 4.24216 2.05691 4.52754 1.91257C5.0951 1.6255 5.76537 1.6255 6.33293 1.91257C6.61831 2.05691 6.88403 2.32263 7.41547 2.85408L7.61034 3.04895C7.95995 3.39855 8.13475 3.57335 8.24904 3.74913C8.68003 4.41202 8.68003 5.2666 8.24903 5.92949C8.13475 6.10527 7.95995 6.28008 7.61034 6.62968C7.49603 6.74399 7.43887 6.80115 7.39103 6.86796C7.22102 7.10539 7.16232 7.44965 7.24404 7.73C7.26704 7.8089 7.29697 7.87124 7.35684 7.99593Z" stroke="#06385F" stroke-width="2" stroke-linecap="round" stroke-linejoin="round"/>
</svg>
