<svg width="60" height="60" viewBox="0 0 60 60" fill="none" xmlns="http://www.w3.org/2000/svg">
<circle cx="29.5" cy="29.5" r="29.5" fill="#E1E7EC"/>
<rect x="59.0146" y="59.0359" width="59.0146" height="59.0359" rx="29.5073" transform="rotate(180 59.0146 59.0359)" fill="#06385F" fill-opacity="0.12"/>
<path d="M28.49 21.3663L21.3509 28.5055C21.2209 28.6413 21.119 28.8014 21.051 28.9767C20.9082 29.3243 20.9082 29.7142 21.051 30.0618C21.119 30.2371 21.2209 30.3972 21.3509 30.533L28.49 37.6722C28.6232 37.8053 28.7812 37.9109 28.9552 37.983C29.1291 38.055 29.3155 38.0921 29.5038 38.0921C29.884 38.0921 30.2487 37.9411 30.5176 37.6722C30.7864 37.4033 30.9375 37.0387 30.9375 36.6584C30.9375 36.2782 30.7864 35.9135 30.5176 35.6447L25.8057 30.9471L36.643 30.9471C37.0216 30.9471 37.3848 30.7967 37.6526 30.5289C37.9204 30.2611 38.0708 29.8979 38.0708 29.5193C38.0708 29.1406 37.9204 28.7774 37.6526 28.5096C37.3848 28.2419 37.0216 28.0914 36.643 28.0914L25.8057 28.0914L30.5176 23.3939C30.6514 23.2611 30.7576 23.1032 30.8301 22.9292C30.9026 22.7552 30.9399 22.5686 30.9399 22.3801C30.9399 22.1916 30.9026 22.005 30.8301 21.831C30.7576 21.657 30.6514 21.4991 30.5176 21.3663C30.3848 21.2325 30.2269 21.1263 30.0529 21.0538C29.8789 20.9813 29.6923 20.944 29.5038 20.944C29.3153 20.944 29.1287 20.9813 28.9547 21.0538C28.7807 21.1263 28.6228 21.2325 28.49 21.3663Z" fill="#06385F"/>
</svg>
