<svg width="12" height="13" viewBox="0 0 12 13" fill="none" xmlns="http://www.w3.org/2000/svg">
<path id="Vector" d="M6.7101 11.7287L11.7101 6.72874C11.8011 6.63364 11.8725 6.52149 11.9201 6.39874C12.0201 6.15528 12.0201 5.8822 11.9201 5.63874C11.8725 5.51599 11.8011 5.40384 11.7101 5.30874L6.7101 0.30874C6.61687 0.215501 6.50618 0.141541 6.38435 0.0910804C6.26253 0.0406201 6.13196 0.0146482 6.0001 0.0146482C5.7338 0.0146482 5.47841 0.120436 5.2901 0.30874C5.1018 0.497044 4.99601 0.752438 4.99601 1.01874C4.99601 1.28504 5.1018 1.54044 5.2901 1.72874L8.5901 5.01874L1.0001 5.01874C0.734887 5.01874 0.480532 5.1241 0.292996 5.31163C0.10546 5.49917 0.0001037 5.75352 0.000103688 6.01874C0.000103676 6.28396 0.10546 6.53831 0.292996 6.72585C0.480532 6.91338 0.734887 7.01874 1.0001 7.01874L8.5901 7.01874L5.2901 10.3087C5.19637 10.4017 5.12198 10.5123 5.07121 10.6342C5.02044 10.756 4.9943 10.8867 4.9943 11.0187C4.9943 11.1508 5.02044 11.2815 5.07121 11.4033C5.12198 11.5252 5.19637 11.6358 5.2901 11.7287C5.38307 11.8225 5.49367 11.8969 5.61553 11.9476C5.73739 11.9984 5.86809 12.0245 6.0001 12.0245C6.13211 12.0245 6.26282 11.9984 6.38468 11.9476C6.50654 11.8969 6.61714 11.8225 6.7101 11.7287Z" fill="#06385F"/>
</svg>
