<svg width="239" height="39" viewBox="0 0 239 39" fill="none" xmlns="http://www.w3.org/2000/svg">
<path d="M19.748 0.278809L25.9567 10.663L37.7513 13.3589L29.7938 22.4726L30.8746 34.5229L19.748 29.7713L8.62146 34.5229L9.70226 22.4726L1.74484 13.3589L13.5394 10.663L19.748 0.278809Z" fill="#FFC806"/>
<path d="M69.6074 0.278809L75.8161 10.663L87.6106 13.3589L79.6532 22.4726L80.734 34.5229L69.6074 29.7713L58.4808 34.5229L59.5616 22.4726L51.6042 13.3589L63.3988 10.663L69.6074 0.278809Z" fill="#FFC806"/>
<path d="M119.467 0.278809L125.675 10.663L137.47 13.3589L129.513 22.4726L130.593 34.5229L119.467 29.7713L108.34 34.5229L109.421 22.4726L101.464 13.3589L113.258 10.663L119.467 0.278809Z" fill="#FFC806"/>
<path d="M169.326 0.278809L175.535 10.663L187.329 13.3589L179.372 22.4726L180.453 34.5229L169.326 29.7713L158.2 34.5229L159.28 22.4726L151.323 13.3589L163.118 10.663L169.326 0.278809Z" fill="#FFC806"/>
<path d="M219.186 0.278809L225.394 10.663L237.189 13.3589L229.231 22.4726L230.312 34.5229L219.186 29.7713L208.059 34.5229L209.14 22.4726L201.182 13.3589L212.977 10.663L219.186 0.278809Z" fill="#FFC806"/>
</svg>
