<svg width="24" height="25" viewBox="0 0 24 25" fill="none" xmlns="http://www.w3.org/2000/svg">
<g id="ri:twitter-fill">
<path id="Vector" d="M22.2121 6.58024C21.449 6.91784 20.6397 7.13962 19.8111 7.23824C20.6842 6.71538 21.3374 5.89298 21.6491 4.92424C20.8291 5.41224 19.9301 5.75424 18.9941 5.93924C18.3647 5.26582 17.5305 4.81921 16.6211 4.66883C15.7117 4.51845 14.7781 4.67273 13.9654 5.1077C13.1527 5.54266 12.5065 6.23393 12.1272 7.07404C11.748 7.91414 11.6569 8.85602 11.8681 9.75324C10.2051 9.67004 8.57809 9.23797 7.09287 8.48511C5.60764 7.73224 4.29736 6.67541 3.24713 5.38324C2.87542 6.02169 2.68008 6.74747 2.68113 7.48624C2.68113 8.93624 3.42012 10.2172 4.54112 10.9672C3.87714 10.9463 3.22777 10.767 2.64713 10.4442V10.4952C2.64709 11.4611 2.98116 12.3973 3.59266 13.1449C4.20415 13.8926 5.05544 14.4057 6.00212 14.5972C5.38577 14.7645 4.73942 14.7891 4.11212 14.6692C4.37905 15.5006 4.89934 16.2277 5.60012 16.7486C6.30091 17.2696 7.14708 17.5582 8.02013 17.5742C7.15248 18.2557 6.15901 18.7594 5.09653 19.0566C4.03406 19.3538 2.92341 19.4386 1.82812 19.3062C3.73985 20.5356 5.96523 21.1883 8.23812 21.1862C15.9321 21.1862 20.1381 14.8132 20.1381 9.28624C20.1381 9.10624 20.1341 8.92424 20.1261 8.74524C20.9445 8.1536 21.6509 7.41981 22.2121 6.58024Z" fill="white"/>
</g>
</svg>
